<?xml version="1.0" encoding="UTF-8"?>
<svg width="32" height="32" version="1.1" viewBox="0 0 8.4667 8.4667" xmlns="http://www.w3.org/2000/svg" xmlns:cc="http://creativecommons.org/ns#" xmlns:dc="http://purl.org/dc/elements/1.1/" xmlns:rdf="http://www.w3.org/1999/02/22-rdf-syntax-ns#">
 <metadata>
  <rdf:RDF>
   <cc:Work rdf:about="">
    <dc:format>image/svg+xml</dc:format>
    <dc:type rdf:resource="http://purl.org/dc/dcmitype/StillImage"/>
    <dc:title/>
   </cc:Work>
  </rdf:RDF>
 </metadata>
 <g transform="translate(-35.433 -26.146)">
  <path transform="matrix(.26458 0 0 .26458 35.433 26.146)" d="m21.982-0.0019531a1 1 0 0 0-0.33594 0.068359 1 1 0 0 0-0.58398 1.2852l3.0039 8.002a1 1 0 0 0 1.2852 0.58203 1 1 0 0 0 0.58398-1.2832l-2.998-8.002a1 1 0 0 0-0.87109-0.65039 1 1 0 0 0-0.083984-0.0019531zm-11.947 0.0019531a1 1 0 0 0-0.96875 0.65039l-3.0039 8.002a1 1 0 0 0 0.58398 1.2832 1 1 0 0 0 1.291-0.58203l2.998-8.002a1 1 0 0 0-0.58398-1.2852 1 1 0 0 0-0.31641-0.066406zm-9.0371 11.029a0.97062 0.97062 0 0 0-0.19922 0.021484 0.97062 0.97062 0 0 0-0.029297 0.007813 0.97062 0.97062 0 0 0-0.013672 0.007812 0.97062 0.97062 0 0 0-0.14062 0.042969 0.97062 0.97062 0 0 0-0.0078125 0 0.97062 0.97062 0 0 0-0.11719 0.066406 0.97062 0.97062 0 0 0-0.037109 0.029297 0.97062 0.97062 0 0 0-0.082031 0.060547 0.97062 0.97062 0 0 0-0.050781 0.050781 0.97062 0.97062 0 0 0-0.052734 0.052735 0.97062 0.97062 0 0 0-0.050781 0.066406 0.97062 0.97062 0 0 0-0.052734 0.087891 0.97062 0.97062 0 0 0-0.029297 0.050781 0.97062 0.97062 0 0 0-0.029297 0.052734 0.97062 0.97062 0 0 0-0.037109 0.11719 0.97062 0.97062 0 0 0-0.013672 0.074218 0.97062 0.97062 0 0 0-0.0078125 0.029297 0.97062 0.97062 0 0 0-0.015625 0.14844 0.97062 0.97062 0 0 0 0 0.007812 0.97062 0.97062 0 0 0 0.0078125 0.1543 0.97062 0.97062 0 0 0 0.015625 0.074219l4.6719 19a0.97071 0.97071 0 0 0 0.9375 0.73828h20.67a0.97071 0.97071 0 0 0 0.94531-0.73828l4.6641-19a0.97071 0.97071 0 0 0-0.94531-1.2031h-30zm1.2402 1.9414h27.52l-4.1855 17.059h-19.141l-4.1934-17.059zm8.7344 2.0273a1 1 0 0 0-0.037109 0.001953 1 1 0 0 0-0.095703 0.015625 1 1 0 0 0-0.82812 1.1504l2 11.996a1 1 0 0 0 1.1523 0.82617 1 1 0 0 0 0.82031-1.1504l-2.002-12.004a1 1 0 0 0-1.0098-0.83594zm15.023 0a1 1 0 0 0-0.076172 0.001953 1 1 0 0 0-0.89258 0.75977l-2.998 11.996a1 1 0 0 0 0.73047 1.2109 1 1 0 0 0 1.2109-0.72266l2.998-12.004a1 1 0 0 0-0.72461-1.2109 1 1 0 0 0-0.24805-0.03125zm-19.977 0.001953a1 1 0 0 0-0.25977 0.029297 1 1 0 0 0-0.73047 1.2109l2.998 12.004a1 1 0 0 0 1.2168 0.72266 1 1 0 0 0 0.72461-1.2109l-2.998-11.996a1 1 0 0 0-0.95117-0.75977zm9.9785 0a1 1 0 0 0-0.99609 0.99609v12.004a1 1 0 0 0 0.99609 1.0039 1 1 0 0 0 1.0039-1.0039v-12.004a1 1 0 0 0-1.0039-0.99609zm5.0059 0a1 1 0 0 0-0.99023 0.83398l-2 12.004a1 1 0 0 0 0.82031 1.1504 1 1 0 0 0 1.1504-0.82617l2.002-11.996a1 1 0 0 0-0.82031-1.1504 1 1 0 0 0-0.16211-0.015625z" color="#000000" color-rendering="auto" dominant-baseline="auto" image-rendering="auto" shape-rendering="auto" solid-color="#000000" stop-color="#000000" style="font-feature-settings:normal;font-variant-alternates:normal;font-variant-caps:normal;font-variant-east-asian:normal;font-variant-ligatures:normal;font-variant-numeric:normal;font-variant-position:normal;font-variation-settings:normal;inline-size:0;isolation:auto;mix-blend-mode:normal;shape-margin:0;shape-padding:0;text-decoration-color:#000000;text-decoration-line:none;text-decoration-style:solid;text-indent:0;text-orientation:mixed;text-transform:none;white-space:normal"/>
 </g>
</svg>
