<svg width="32" height="32" version="1.1" viewBox="0 0 8.47 8.47" xmlns="http://www.w3.org/2000/svg"><title>To shopping cart</title><g transform="translate(-35.4 -26.1)" shape-rendering="auto"><path d="m35.7 26.1a0.265 0.265 0 0 0-0.209 0.105 0.265 0.265 0 0 0 0.0527 0.371l0.971 0.729 0.777 5.18a0.265 0.265 0 0 0 0.25 0.227l5.82 0.264a0.265 0.265 0 0 0 0.275-0.252 0.265 0.265 0 0 0-0.252-0.277l-5.6-0.254-0.762-5.08a0.265 0.265 0 0 0-0.104-0.174l-1.06-0.793a0.265 0.265 0 0 0-0.16-0.0527z" color="#000000" color-rendering="auto" dominant-baseline="auto" image-rendering="auto" solid-color="#000000" stop-color="#000000" style="font-feature-settings:normal;font-variant-alternates:normal;font-variant-caps:normal;font-variant-east-asian:normal;font-variant-ligatures:normal;font-variant-numeric:normal;font-variant-position:normal;font-variation-settings:normal;inline-size:0;isolation:auto;mix-blend-mode:normal;shape-margin:0;shape-padding:0;text-decoration-color:#000000;text-decoration-line:none;text-decoration-style:solid;text-indent:0;text-orientation:mixed;text-transform:none;white-space:normal"/><path d="m38.3 28a0.265 0.265 0 0 0-0.266 0.266 0.265 0.265 0 0 0 0.266 0.264h5l-0.221 2.66-5.59 0.254a0.265 0.265 0 0 0-0.252 0.277 0.265 0.265 0 0 0 0.277 0.252l5.82-0.264a0.265 0.265 0 0 0 0.252-0.242l0.264-3.18a0.265 0.265 0 0 0-0.264-0.287h-5.29z" color="#000000" color-rendering="auto" dominant-baseline="auto" image-rendering="auto" solid-color="#000000" stop-color="#000000" style="font-feature-settings:normal;font-variant-alternates:normal;font-variant-caps:normal;font-variant-east-asian:normal;font-variant-ligatures:normal;font-variant-numeric:normal;font-variant-position:normal;font-variation-settings:normal;inline-size:0;isolation:auto;mix-blend-mode:normal;shape-margin:0;shape-padding:0;text-decoration-color:#000000;text-decoration-line:none;text-decoration-style:solid;text-indent:0;text-orientation:mixed;text-transform:none;white-space:normal"/><path d="m37.9 32.8c-0.508-1e-6 -0.928 0.417-0.928 0.926s0.419 0.926 0.928 0.926c0.508 0 0.926-0.417 0.926-0.926s-0.417-0.926-0.926-0.926zm0 0.529c0.222 0 0.396 0.174 0.396 0.396s-0.174 0.396-0.396 0.396c-0.222 1e-6 -0.398-0.174-0.398-0.396s0.176-0.396 0.398-0.396z" color="#000000" color-rendering="auto" dominant-baseline="auto" image-rendering="auto" solid-color="#000000" stop-color="#000000" style="font-feature-settings:normal;font-variant-alternates:normal;font-variant-caps:normal;font-variant-east-asian:normal;font-variant-ligatures:normal;font-variant-numeric:normal;font-variant-position:normal;font-variation-settings:normal;inline-size:0;isolation:auto;mix-blend-mode:normal;shape-margin:0;shape-padding:0;text-decoration-color:#000000;text-decoration-line:none;text-decoration-style:solid;text-indent:0;text-orientation:mixed;text-transform:none;white-space:normal"/><path d="m43 32.8c-0.508 0-0.926 0.417-0.926 0.926s0.417 0.926 0.926 0.926c0.508 1e-6 0.928-0.417 0.928-0.926-1e-6 -0.508-0.419-0.926-0.928-0.926zm0 0.529c0.222-1e-6 0.398 0.174 0.398 0.396s-0.176 0.396-0.398 0.396-0.396-0.174-0.396-0.396 0.174-0.396 0.396-0.396z" color="#000000" color-rendering="auto" dominant-baseline="auto" image-rendering="auto" solid-color="#000000" stop-color="#000000" style="font-feature-settings:normal;font-variant-alternates:normal;font-variant-caps:normal;font-variant-east-asian:normal;font-variant-ligatures:normal;font-variant-numeric:normal;font-variant-position:normal;font-variation-settings:normal;inline-size:0;isolation:auto;mix-blend-mode:normal;shape-margin:0;shape-padding:0;text-decoration-color:#000000;text-decoration-line:none;text-decoration-style:solid;text-indent:0;text-orientation:mixed;text-transform:none;white-space:normal"/></g></svg>
