<?xml version="1.0" encoding="UTF-8"?>
<svg width="32" height="32" version="1.1" viewBox="0 0 8.4667 8.4667" xmlns="http://www.w3.org/2000/svg" xmlns:cc="http://creativecommons.org/ns#" xmlns:dc="http://purl.org/dc/elements/1.1/" xmlns:rdf="http://www.w3.org/1999/02/22-rdf-syntax-ns#">
 <metadata>
  <rdf:RDF>
   <cc:Work rdf:about="">
    <dc:format>image/svg+xml</dc:format>
    <dc:type rdf:resource="http://purl.org/dc/dcmitype/StillImage"/>
    <dc:title/>
   </cc:Work>
  </rdf:RDF>
 </metadata>
 <g transform="translate(-35.433 -26.146)" shape-rendering="auto">
  <path d="m35.695 26.146a0.26458 0.26458 0 0 0-0.20898 0.10547 0.26458 0.26458 0 0 0 0.052734 0.37109l0.9707 0.72852 0.77734 5.1836a0.26461 0.26461 0 0 0 0.25 0.22656l5.8223 0.26367a0.26458 0.26458 0 0 0 0.27539-0.25195 0.26458 0.26458 0 0 0-0.25195-0.27734l-5.6035-0.25391-0.76172-5.0762a0.26461 0.26461 0 0 0-0.10352-0.17383l-1.0586-0.79297a0.26458 0.26458 0 0 0-0.16016-0.052735z" color="#000000" color-rendering="auto" dominant-baseline="auto" image-rendering="auto" solid-color="#000000" stop-color="#000000" style="font-feature-settings:normal;font-variant-alternates:normal;font-variant-caps:normal;font-variant-east-asian:normal;font-variant-ligatures:normal;font-variant-numeric:normal;font-variant-position:normal;font-variation-settings:normal;inline-size:0;isolation:auto;mix-blend-mode:normal;shape-margin:0;shape-padding:0;text-decoration-color:#000000;text-decoration-line:none;text-decoration-style:solid;text-indent:0;text-orientation:mixed;text-transform:none;white-space:normal"/>
  <path d="m38.344 27.998a0.26458 0.26458 0 0 0-0.26562 0.26562 0.26458 0.26458 0 0 0 0.26562 0.26367h5.0039l-0.2207 2.6562-5.5898 0.25391a0.26458 0.26458 0 0 0-0.25195 0.27734 0.26458 0.26458 0 0 0 0.27734 0.25195l5.8203-0.26367a0.26461 0.26461 0 0 0 0.25195-0.24219l0.26367-3.1758a0.26461 0.26461 0 0 0-0.26367-0.28711h-5.291z" color="#000000" color-rendering="auto" dominant-baseline="auto" image-rendering="auto" solid-color="#000000" stop-color="#000000" style="font-feature-settings:normal;font-variant-alternates:normal;font-variant-caps:normal;font-variant-east-asian:normal;font-variant-ligatures:normal;font-variant-numeric:normal;font-variant-position:normal;font-variation-settings:normal;inline-size:0;isolation:auto;mix-blend-mode:normal;shape-margin:0;shape-padding:0;text-decoration-color:#000000;text-decoration-line:none;text-decoration-style:solid;text-indent:0;text-orientation:mixed;text-transform:none;white-space:normal"/>
  <path d="m37.947 32.762c-0.5083-1e-6 -0.92774 0.41748-0.92774 0.92578s0.41943 0.92578 0.92774 0.92578c0.5083 0 0.92578-0.41748 0.92578-0.92578s-0.41748-0.92578-0.92578-0.92578zm0 0.5293c0.22232 0 0.39648 0.17416 0.39648 0.39648s-0.17416 0.39648-0.39648 0.39648c-0.22232 1e-6 -0.39844-0.17416-0.39844-0.39648s0.17612-0.39648 0.39844-0.39648z" color="#000000" color-rendering="auto" dominant-baseline="auto" image-rendering="auto" solid-color="#000000" stop-color="#000000" style="font-feature-settings:normal;font-variant-alternates:normal;font-variant-caps:normal;font-variant-east-asian:normal;font-variant-ligatures:normal;font-variant-numeric:normal;font-variant-position:normal;font-variation-settings:normal;inline-size:0;isolation:auto;mix-blend-mode:normal;shape-margin:0;shape-padding:0;text-decoration-color:#000000;text-decoration-line:none;text-decoration-style:solid;text-indent:0;text-orientation:mixed;text-transform:none;white-space:normal"/>
  <path d="m42.973 32.762c-0.5083 0-0.92578 0.41748-0.92578 0.92578s0.41748 0.92578 0.92578 0.92578c0.5083 1e-6 0.92773-0.41748 0.92774-0.92578-1e-6 -0.5083-0.41943-0.92578-0.92774-0.92578zm0 0.5293c0.22232-1e-6 0.39844 0.17416 0.39844 0.39648s-0.17612 0.39648-0.39844 0.39648c-0.22232 0-0.39648-0.17416-0.39648-0.39648s0.17416-0.39648 0.39648-0.39648z" color="#000000" color-rendering="auto" dominant-baseline="auto" image-rendering="auto" solid-color="#000000" stop-color="#000000" style="font-feature-settings:normal;font-variant-alternates:normal;font-variant-caps:normal;font-variant-east-asian:normal;font-variant-ligatures:normal;font-variant-numeric:normal;font-variant-position:normal;font-variation-settings:normal;inline-size:0;isolation:auto;mix-blend-mode:normal;shape-margin:0;shape-padding:0;text-decoration-color:#000000;text-decoration-line:none;text-decoration-style:solid;text-indent:0;text-orientation:mixed;text-transform:none;white-space:normal"/>
 </g>
</svg>
