<?xml version="1.0" encoding="UTF-8"?>
<svg id="covida" version="1.1" viewBox="0 0 48 48" xmlns="http://www.w3.org/2000/svg" xmlns:cc="http://creativecommons.org/ns#" xmlns:dc="http://purl.org/dc/elements/1.1/" xmlns:rdf="http://www.w3.org/1999/02/22-rdf-syntax-ns#"><metadata id="covidb"><rdf:RDF><cc:Work rdf:about=""><dc:format>image/svg+xml</dc:format><dc:type rdf:resource="http://purl.org/dc/dcmitype/StillImage"/><dc:title/></cc:Work></rdf:RDF></metadata><defs id="covidc"><style id="covidd">.a{fill:#418fde;}</style></defs><path id="covide" class="a" d="m46.5 19a1.4998 1.4998 0 0 0-1.5 1.5v1.5h-4.1278a16.9 16.9 0 0 0-3.53-8.5137l2.9212-2.9214 1.1758 0.99561a1.4999 1.4999 0 1 0 2.1213-2.1211l-4.9999-5a1.4999 1.4999 0 0 0-2.1213 2.1211l0.99565 1.1758-2.9214 2.9214a16.902 16.902 0 0 0-8.5137-3.5298v-4.1279h1.5a1.5 1.5 0 0 0 0-3h-7a1.5 1.5 0 0 0 0 3h1.5v4.1279a16.902 16.902 0 0 0-8.5137 3.5298l-2.9214-2.9214 0.99565-1.1758a1.4999 1.4999 0 0 0-2.1213-2.1211l-4.8848 5a1.4999 1.4999 0 0 0 2.1213 2.1211l1.0607-0.99561 2.9212 2.9214a16.9 16.9 0 0 0-3.53 8.5137h-4.1278v-1.5a1.5 1.5 0 0 0-3 0v7a1.5 1.5 0 0 0 3 0v-1.5h4.1278a16.9 16.9 0 0 0 3.53 8.5137l-2.9212 2.9214-1.1758-0.99561a1.4999 1.4999 0 0 0-2.1213 2.1211l4.9999 5a1.4999 1.4999 0 1 0 2.1213-2.1211l-0.99565-1.1758 2.9213-2.9214a16.902 16.902 0 0 0 8.5138 3.5298v4.1279h-1.5a1.5 1.5 0 0 0 0 3h7a1.5 1.5 0 0 0 0-3h-1.5v-4.1279a16.902 16.902 0 0 0 8.5138-3.5298l2.9213 2.9214-0.99565 1.1758a1.4999 1.4999 0 0 0 2.1213 2.1211l4.9999-5a1.4999 1.4999 0 1 0-2.1213-2.1211l-1.1758 0.99561-2.9212-2.9214a16.9 16.9 0 0 0 3.53-8.5137h4.1278v1.5a1.5 1.5 0 0 0 3 0v-7a1.4998 1.4998 0 0 0-1.5-1.5zm-28 1a3.5 3.5 0 1 1 3.5-3.5 3.4999 3.4999 0 0 1-3.5 3.5zm11.5 13a2 2 0 1 1 2-2 2.0001 2.0001 0 0 1-2 2z"/></svg>
