<svg version="1.1" viewBox="0 0 48 48" xmlns="http://www.w3.org/2000/svg"><title>Virus</title><defs><style>.a{fill:#418fde;}</style></defs><path class="a" d="m46.5 19a1.5 1.5 0 0 0-1.5 1.5v1.5h-4.13a16.9 16.9 0 0 0-3.53-8.51l2.92-2.92 1.18 0.996a1.5 1.5 0 1 0 2.12-2.12l-5-5a1.5 1.5 0 0 0-2.12 2.12l0.996 1.18-2.92 2.92a16.9 16.9 0 0 0-8.51-3.53v-4.13h1.5a1.5 1.5 0 0 0 0-3h-7a1.5 1.5 0 0 0 0 3h1.5v4.13a16.9 16.9 0 0 0-8.51 3.53l-2.92-2.92 0.996-1.18a1.5 1.5 0 0 0-2.12-2.12l-4.88 5a1.5 1.5 0 0 0 2.12 2.12l1.06-0.996 2.92 2.92a16.9 16.9 0 0 0-3.53 8.51h-4.13v-1.5a1.5 1.5 0 0 0-3 0v7a1.5 1.5 0 0 0 3 0v-1.5h4.13a16.9 16.9 0 0 0 3.53 8.51l-2.92 2.92-1.18-0.996a1.5 1.5 0 0 0-2.12 2.12l5 5a1.5 1.5 0 1 0 2.12-2.12l-0.996-1.18 2.92-2.92a16.9 16.9 0 0 0 8.51 3.53v4.13h-1.5a1.5 1.5 0 0 0 0 3h7a1.5 1.5 0 0 0 0-3h-1.5v-4.13a16.9 16.9 0 0 0 8.51-3.53l2.92 2.92-0.996 1.18a1.5 1.5 0 0 0 2.12 2.12l5-5a1.5 1.5 0 1 0-2.12-2.12l-1.18 0.996-2.92-2.92a16.9 16.9 0 0 0 3.53-8.51h4.13v1.5a1.5 1.5 0 0 0 3 0v-7a1.5 1.5 0 0 0-1.5-1.5zm-28 1a3.5 3.5 0 1 1 3.5-3.5 3.5 3.5 0 0 1-3.5 3.5zm11.5 13a2 2 0 1 1 2-2 2 2 0 0 1-2 2z"/></svg>
