<svg version="1.1" viewBox="0 0 511.99 512" xml:space="preserve" xmlns="http://www.w3.org/2000/svg">
<path d="m152.71 173.92c-10.734 0-17.959 9.5507-17.959 19.109v99.49c0 9.5587 7.2248 19.109 17.959 19.109h206.58c10.734 0 17.959-9.5507 17.959-19.109v-99.49c0-9.5587-7.2248-19.109-17.959-19.109zm4.041 22h198.49v93.709h-198.49zm47.406-129.43c-8.7384 0.13043-16.65 3.7968-21.281 10.395-7.4094 10.556-5.1817 26.074 5.4121 36.51 10.507 10.35 28.078 16.673 53.975 16.732a11.001 11.001 0 0 0 19.174-10.734c-13.123-27.037-27.033-42.26-41.188-49.188-5.3078-2.5979-10.849-3.7931-16.092-3.7148zm-0.92969 21.504c1.406-0.21225 3.6462 0.15809 7.3496 1.9707 4.685 2.2931 11.152 7.5962 18.258 17.32-13.63-1.7677-21.483-5.9926-25.109-9.5645-4.7262-4.6555-3.5753-7.1522-2.8418-8.1973 0.36675-0.52252 0.93774-1.317 2.3438-1.5293zm102.6-21.539c-5.1687-0.10625-10.612 1.0865-15.748 3.748-13.697 7.0974-26.823 22.407-39.275 49.57a11.001 11.001 0 0 0 19.303 10.469c24.542-0.14713 41.44-6.6211 51.418-17.027 10.129-10.563 12.164-25.604 5.1504-36.184-4.3838-6.6125-12.233-10.399-20.848-10.576zm0.71875 21.277c1.0944 0.16608 1.4302 0.90794 1.793 1.4551 0.72546 1.0943 1.7372 4.18-2.6953 8.8027-3.3516 3.4954-10.409 7.5994-22.834 9.3809 6.8437-9.9708 13.05-15.384 17.391-17.633 3.3982-1.7609 5.2513-2.1719 6.3457-2.0059zm-47.996 25.033a10.725 10.725 0 0 0-10.562 10.875v171.5a10.725 10.725 0 1 0 21.447 0v-171.5a10.725 10.725 0 0 0-10.885-10.875zm-131.34 4.5137c-3.752 0-7.2108 0.55336-10.711 2.1523-1.75 0.79949-3.5725 1.8597-5.3691 3.8066-1.7966 1.947-3.5957 5.2242-3.5957 9.0039v48.639c0 3.7798 1.7991 7.0589 3.5957 9.0059s3.6191 3.0052 5.3691 3.8047c3.5001 1.599 6.959 2.1523 10.711 2.1523h257.58c3.752 0 7.2108-0.55337 10.711-2.1523 1.75-0.79949 3.5745-1.8578 5.3711-3.8047 1.7966-1.9469 3.5957-5.2261 3.5957-9.0059v-48.639c0-3.7798-1.7991-7.057-3.5957-9.0039-1.7966-1.9469-3.621-3.0072-5.3711-3.8066-3.5001-1.599-6.9589-2.1523-10.711-2.1523zm2.3242 22h252.93v34.564h-252.93zm269.52 327.62h-50.614v-69.68h50.614v13.477h-32.661v12.027h30.312v13.477h-30.312v17.221h32.661zm-64.383-34.77q0 9.7336-4.4645 17.455-4.4645 7.6746-11.279 11.793-5.1224 3.0886-11.232 4.3053-6.1094 1.2167-14.474 1.2167h-24.672v-69.68h25.377q8.5531 0 14.756 1.4507 6.2033 1.4039 10.433 4.0245 7.2372 4.3988 11.373 11.886 4.1826 7.4406 4.1826 17.549zm-18.657-0.14038q0-6.8791-2.5377-11.746-2.4907-4.9136-7.9422-7.6746-2.7727-1.3571-5.6864-1.825-2.8667-0.51476-8.6941-0.51476h-4.5585v43.614h4.5585q6.4383 0 9.446-0.56155 3.0077-0.60835 5.8744-2.1526 4.9345-2.8078 7.2372-7.4874 2.3028-4.7264 2.3028-11.652zm-61.187 0.0936q0 16.659-9.587 26.487-9.587 9.7804-26.505 9.7804-16.871 0-26.458-9.7804-9.587-9.8272-9.587-26.487 0-16.8 9.587-26.533 9.587-9.7804 26.458-9.7804 16.824 0 26.458 9.7804 9.634 9.7336 9.634 26.533zm-23.92 17.642q2.6317-3.1822 3.9006-7.4874 1.2688-4.352 1.2688-10.202 0-6.2707-1.4568-10.67-1.4568-4.3988-3.8066-7.113-2.3968-2.8078-5.5454-4.0713-3.1017-1.2635-6.4853-1.2635-3.4306 0-6.4853 1.2167-3.0077 1.2167-5.5454 4.0245-2.3498 2.6206-3.8536 7.2534-1.4568 4.586-1.4568 10.67 0 6.2239 1.4098 10.623 1.4568 4.352 3.8066 7.113 2.3498 2.761 5.4984 4.0713t6.6263 1.3103q3.4776 0 6.6263-1.3103 3.1487-1.3571 5.4984-4.1649zm-82.241 18.531q-7.8012 0-14.427-2.293-6.5793-2.293-11.326-6.8322-4.7465-4.5392-7.3782-11.325-2.5847-6.7855-2.5847-15.677 0-8.283 2.4907-15.022t7.2372-11.559q4.5585-4.6328 11.279-7.1598 6.7673-2.527 14.756-2.527 4.4175 0 7.9422 0.51477 3.5716 0.46795 6.5793 1.2635 3.1487 0.88913 5.6864 2.0122 2.5847 1.0763 4.5115 2.0122v16.893h-2.0678q-1.3159-1.1231-3.3366-2.6674-1.9738-1.5443-4.5115-3.0418-2.5847-1.4975-5.5924-2.527-3.0077-1.0295-6.4383-1.0295-3.8066 0-7.2372 1.2167-3.4306 1.1699-6.3443 3.9309-2.7727 2.6674-4.5115 7.0662-1.6918 4.3988-1.6918 10.67 0 6.5515 1.8328 10.95 1.8798 4.3988 4.6995 6.9258 2.8667 2.5738 6.3913 3.6969 3.5246 1.0763 6.9552 1.0763 3.2896 0 6.4853-0.98273 3.2427-0.98271 5.9684-2.6674 2.3028-1.3571 4.2765-2.9014 1.9738-1.5443 3.2426-2.6674h1.8798v16.659q-2.6317 1.1699-5.0285 2.1994-2.3967 1.0295-5.0285 1.7782-3.4306 0.98272-6.4383 1.4975-3.0077 0.51476-8.2711 0.51476zm-144.73-123.18v22h504.28v-22zm48.229-348.48c-31.521 0-55.096 29.714-55.096 63.977v390.4c0 34.262 23.574 63.977 55.096 63.977h407.68c31.521 0 55.096-29.714 55.096-63.977v-390.4c0-34.262-23.574-63.977-55.096-63.977zm0 22h407.68c17.336 0 33.096 17.542 33.096 41.977v390.4c0 24.434-15.76 41.977-33.096 41.977h-407.68c-17.336 0-33.096-17.542-33.096-41.977v-390.4c0-24.434 15.76-41.977 33.096-41.977z" color="#000000" color-rendering="auto" dominant-baseline="auto" image-rendering="auto" shape-rendering="auto" solid-color="#000000" style="font-feature-settings:normal;font-variant-alternates:normal;font-variant-caps:normal;font-variant-ligatures:normal;font-variant-numeric:normal;font-variant-position:normal;isolation:auto;mix-blend-mode:normal;shape-padding:0;text-decoration-color:#000000;text-decoration-line:none;text-decoration-style:solid;text-indent:0;text-orientation:mixed;text-transform:none;white-space:normal"/></svg>
