<svg width="512" height="512" version="1.1" viewBox="0 0 135.47 135.47" xmlns="http://www.w3.org/2000/svg">
 <g transform="translate(0 -161.53)">
  <path d="m36.242 251.26c-0.18566-5e-3 -0.3714 7e-3 -0.55469 0.0371-7.0009 1.1383-11.165 3.5612-15.406 5.9277-4.2415 2.3665-8.7349 4.7869-17.643 6.7656-3.8894 0.77569-2.5904 6.6251 1.2617 5.6816 9.5093-2.1124 14.9-4.9566 19.217-7.3652 4.2116-2.3498 7.2807-4.1664 13.105-5.1777 14.872 1.9749 19.229 3.4076 35.354 6.8652 3.4528 0.83793 8.1763 2.235 10.312 3.5723 1.0692 0.66936 1.0399 1.0638 1.0273 0.66602-0.01254-0.39778 0.13196 0.10418-1.6562 1.2539-0.37491 0.24105-1.963 0.7734-4.1016 1.0254s-4.8485 0.33883-7.7773 0.29883c-5.8578-0.08-12.609-0.65505-18.002-1.2051-3.9032-0.44575-4.5028 5.4407-0.58984 5.791 5.4714 0.55803 12.34 1.1501 18.514 1.2344 3.0869 0.0422 5.9974-0.0386 8.5371-0.33789 2.5397-0.29925 4.6886-0.70158 6.5684-1.9102 2.5439-1.6356 4.4104-3.661 4.3262-6.334-0.08425-2.673-1.9785-4.3021-3.7578-5.416-3.5586-2.2278-8.4504-3.4285-12.039-4.2988-0.02531-6e-3 -0.0507-0.0121-0.07617-0.0176-16.285-3.4901-20.734-4.9857-36.328-7.0332-0.09655-0.0127-0.19368-0.0205-0.29102-0.0234zm85.205-8.7793c-0.41731 0.019-0.82565 0.12755-1.1973 0.31836l-35.91 18.42c-3.5589 1.7371-0.82755 7.0572 2.6582 5.1777l35.051-17.98c2.0103 0.22445 3.0414 0.76752 3.5176 1.502 0.46134 0.71152 0.63202 2.2637 0.26367 4.5274-19.217 12.166-25.351 21.218-45.031 36.619-13.147-3.5136-25.124-4.0297-36.553-3.9902-0.05864 2.3e-4 -0.11726 2e-3 -0.17578 6e-3 -16.474 1.0574-29.087 1.4994-41.527 3.9958-3.8852 0.70886-2.7135 6.551 1.1445 5.7069 11.456-2.2988 23.897-2.8245 40.609-3.8884 11.704-0.0395 23.46 0.43329 36.455 4.125 0.88879 0.25295 1.8449 0.0688 2.5762-0.49609 21.578-16.692 26.69-25.506 46.766-37.959 0.65711-0.40743 1.1251-1.0596 1.3008-1.8125 0.88401-3.7949 0.83923-7.2527-0.94336-10.002-1.7826-2.7493-5.0453-4.0651-8.7129-4.2676-0.0969-6e-3 -0.19403-6e-3 -0.29101-2e-3zm-70.501-46.181c-3.6037 0-6.0293 3.0892-6.0293 6.1809v32.18c0 3.0918 2.4255 6.1809 6.0293 6.1809h69.353c3.6037 0 6.0293-3.0892 6.0293-6.1809v-32.18c0-3.0918-2.4255-6.1809-6.0293-6.1809zm1.3567 7.1159h66.639v30.31h-66.639zm15.915-41.865c-2.9337 0.0422-5.5899 1.2281-7.1446 3.3621-2.4875 3.4144-1.7396 8.4338 1.817 11.809 3.5275 3.3477 9.4266 5.393 18.121 5.4121 2.4904 3.8194 8.5149 0.56996 6.4371-3.472-4.4056-8.745-9.0758-13.669-13.828-15.91-1.782-0.84027-3.6422-1.2269-5.4024-1.2016zm-0.31212 6.9554c0.47203-0.0687 1.2241 0.0511 2.4674 0.63742 1.5729 0.74169 3.744 2.457 6.1296 5.6023-4.5759-0.57176-7.2125-1.9383-8.4298-3.0936-1.5867-1.5058-1.2003-2.3134-0.95406-2.6514 0.12313-0.16901 0.31482-0.42599 0.78685-0.49464zm34.445-6.9668c-1.7353-0.0343-3.5627 0.35144-5.287 1.2123-4.5983 2.2956-9.005 7.2475-13.186 16.034-1.9453 4.0421 4.0249 7.1616 6.4804 3.3861 8.2395-0.0476 13.912-2.1416 17.262-5.5075 3.4004-3.4166 4.0839-8.2815 1.7291-11.704-1.4718-2.1388-4.107-3.3636-6.999-3.4209zm0.24129 6.8822c0.36742 0.0537 0.48016 0.29368 0.60194 0.47065 0.24356 0.35395 0.58323 1.352-0.90488 2.8472-1.1252 1.1306-3.4946 2.458-7.666 3.0342 2.2976-3.2251 4.3813-4.9758 5.8385-5.7033 1.1408-0.56956 1.763-0.70251 2.1304-0.6488zm-16.113 8.097c-1.9871 0.0287-3.5742 1.6031-3.5461 3.5175v55.472c-0.06304 4.6851 7.2634 4.6851 7.2004 0v-55.472c0.02871-1.9553-1.6249-3.5469-3.6543-3.5175zm-44.094 1.4599c-1.2596 0-2.4209 0.17899-3.5959 0.69619-0.58754 0.25859-1.1994 0.60151-1.8026 1.2312-0.60316 0.62974-1.2072 1.6898-1.2072 2.9123v15.732c0 1.2226 0.604 2.2832 1.2072 2.9129 0.60316 0.62975 1.215 0.97203 1.8026 1.2306 1.1751 0.5172 2.3363 0.69619 3.5959 0.69619h86.476c1.2596 0 2.4209-0.17899 3.5959-0.69619 0.58752-0.25859 1.2-0.60087 1.8032-1.2306 0.60315-0.62974 1.2072-1.6904 1.2072-2.9129v-15.732c0-1.2226-0.60401-2.2826-1.2072-2.9123-0.60318-0.62974-1.2157-0.97266-1.8032-1.2312-1.1751-0.5172-2.3363-0.69619-3.5959-0.69619zm0.7803 7.1159h84.916v11.18h-84.916z" color="#000000" color-rendering="auto" dominant-baseline="auto" image-rendering="auto" shape-rendering="auto" solid-color="#000000" style="font-feature-settings:normal;font-variant-alternates:normal;font-variant-caps:normal;font-variant-ligatures:normal;font-variant-numeric:normal;font-variant-position:normal;isolation:auto;mix-blend-mode:normal;shape-padding:0;text-decoration-color:#000000;text-decoration-line:none;text-decoration-style:solid;text-indent:0;text-orientation:mixed;text-transform:none;white-space:normal"/>
 </g>
</svg>
