<svg enable-background="new 0 0 512 512" version="1.1" viewBox="0 0 512 512" xmlns="http://www.w3.org/2000/svg">
 <g transform="translate(631.32 39.051)">
  <path d="m-434.97 418.03c-10.433 0-19.129 8.6964-19.129 19.129v20.348c0 10.433 8.6964 19.129 19.129 19.129h201.9c10.433 0 19.129-8.6964 19.129-19.129v-20.348c0-10.433-8.6964-19.129-19.129-19.129zm0 19.088h201.9c0.18828 0 0.043-0.14726 0.043 0.041v20.348c0 0.18828 0.14531 0.043-0.043 0.043h-201.9c-0.18828 0-0.041 0.14531-0.041-0.043v-20.348c0-0.18828-0.14726-0.041 0.041-0.041zm146.03-474.03c-8.9347 0-17.807 6.9084-17.807 16.955v103.79c-8.4952 7.094-13.848 17.306-13.863 28.4a11.001 11.001 0 0 0 0 0.0156c-2e-5 22.055 19.936 38.631 42.578 38.631 22.642 2e-5 42.578-16.576 42.578-38.631a11.001 11.001 0 0 0 0-0.0137c-0.0119-9.5828-4.1408-18.508-10.783-25.377v-61.334h16.084c8.937 0 17.807-6.9084 17.807-16.955v-28.527c0-10.047-8.872-16.955-17.807-16.955h-33.889zm4.1934 22h50.4v18.437h-22.891a11.001 11.001 0 0 0-11 11v76.959a11.001 11.001 0 0 0 4.3125 8.7344c4.3962 3.3661 6.4629 7.695 6.4707 12.037-4e-3 8.4652-8.3428 16.625-20.578 16.625-12.234 0-20.573-8.1586-20.578-16.623 9e-3 -5.0015 2.7681-10.005 8.4746-13.389a11.001 11.001 0 0 0 5.3887-9.4629v-80.836zm-88.781 289.34c-11.214 0-20.586 9.3718-20.586 20.586v117.9c0 11.214 9.3718 20.586 20.586 20.586h85.359c11.214 0 20.586-9.3718 20.586-20.586v-117.9c0-11.214-9.3718-20.586-20.586-20.586zm1.4141 22h82.531v115.07h-82.531zm-233.05-196.83c-12.807 1e-6 -22.535 11.161-22.535 23.539v119.65c0 12.378 9.7278 23.537 22.535 23.537h167.52c12.807 0 22.535-11.159 22.535-23.537v-119.65c0-12.378-9.7278-23.539-22.535-23.539zm4.6309 22h156.5l-77.588 67.258zm163.42 23.117v98.068c0 1.5143-0.56132 1.5371-0.53515 1.5371h-167.52c0.0262 0-0.53516-0.0228-0.53516-1.5371v-96.682l77.006 65.631a11.001 11.001 0 0 0 14.34-0.0606zm81.877 129.86a11.001 11.001 0 1 0 0 22h215.33a11.001 11.001 0 1 0 0-22zm-70.506-232.71a11.001 11.001 0 1 0 0 22h129.99v-22zm168.5 0v22h40.334a11.001 11.001 0 1 0 0-22zm42.379-0.039a11.001 11.001 0 0 0-2.5332 21.65c15.957 4.3558 35.479 28.788 49.219 68.848 13.74 40.06 22.313 94.117 22.408 153.02a11.001 11.001 0 1 0 22-0.0351c-0.0983-60.998-8.8101-117.01-23.598-160.12-14.788-43.114-35.034-74.962-64.236-82.934a11.001 11.001 0 0 0-3.2598-0.42773zm-222.69-1.084c-19.716 1.4574-36.791 15.42-50.709 36.855a11.001 11.001 0 0 0-0.0391 0.0625c-5.3763 8.404-10.317 17.985-14.83 28.641a11.001 11.001 0 0 0 10.129 15.291h55.348c-0.0268 0 0.53711 0.0233 0.53711 1.5371v119.65c0 1.5138-0.56388 1.5391-0.53711 1.5391h-84.607a11.001 11.001 0 0 0-10.984 10.408c-0.58303 10.818-0.8846 21.723-0.90234 32.645a11.001 11.001 0 0 0 11.127 11.018l88.881-1.0293 88.881-1.0274a11.001 11.001 0 0 0 10.873-11.018c-0.13769-85.343-16.721-163.73-46.598-208.83v-2e-3c-15.354-23.176-34.97-37.336-56.568-35.74zm1.6211 21.941c11.016-0.81397 23.636 6.3688 36.607 25.949 24.133 36.428 41.045 107.7 42.637 185.83l-77.707 0.89649-77.445 0.89843c0.0665-3.3199 0.15465-6.6307 0.27539-9.9394h73.91c12.808 0 22.537-11.161 22.537-23.539v-119.65c0-12.378-9.7291-23.537-22.537-23.537h-37.895c1.8885-3.5476 3.7987-6.9745 5.7578-10.039 11.806-18.173 23.809-26.126 33.859-26.869z" color="#000000" color-rendering="auto" dominant-baseline="auto" enable-background="accumulate" fill-opacity=".94475" image-rendering="auto" shape-rendering="auto" solid-color="#000000" style="font-feature-settings:normal;font-variant-alternates:normal;font-variant-caps:normal;font-variant-ligatures:normal;font-variant-numeric:normal;font-variant-position:normal;isolation:auto;mix-blend-mode:normal;paint-order:stroke markers fill;shape-padding:0;text-decoration-color:#000000;text-decoration-line:none;text-decoration-style:solid;text-indent:0;text-orientation:mixed;text-transform:none;white-space:normal"/>
 </g>
</svg>
