<svg data-name="Layer 1" version="1.1" viewBox="0 0 512 512" xmlns="http://www.w3.org/2000/svg">
 <path d="m347.93-1.6602c-57.513 0-104.37 46.86-104.37 104.37 0 19.395 5.3357 37.575 14.605 53.158h-71.709c-6.2307-0.0881-11.328 4.9386-11.328 11.17 0 6.2313 5.0974 11.258 11.328 11.17h89.508c18.745 17.878 44.107 28.875 71.969 28.875 27.862 0 53.224-10.997 71.969-28.875h65.984l-17.633 47.396c-0.88526-0.2113-1.793-0.31362-2.7031-0.30469h-222.99c-6.2284-0.0847-11.322 4.9409-11.322 11.17 0 6.229 5.0938 11.255 11.322 11.17h220.92l-8.9629 41.375h-139.02c-6.2286-0.085-11.324 4.9408-11.324 11.17s5.0957 11.255 11.324 11.17h134.18l-10.475 48.352h-262.52l-89.934-253.59c-1.741-4.1484-5.8019-6.8472-10.301-6.8477h-63.713c-6.2307-0.08812-11.33 4.9386-11.33 11.17 0 6.2313 5.0994 11.258 11.33 11.17h56.285l89.936 253.59c1.741 4.1484 5.8 6.8491 10.299 6.8496h278.97c5.2651-3e-4 9.816-3.6785 10.922-8.8262l51.48-203.84c1.4909-6.9538-3.8081-13.511-10.92-13.512h-62.01c9.2698-15.584 14.605-33.763 14.605-53.158 0-57.513-46.86-104.37-104.37-104.37zm0 22c45.624 0 82.373 36.749 82.373 82.373 0 45.624-36.749 82.373-82.373 82.373s-82.373-36.749-82.373-82.373c0-45.624 36.749-82.373 82.373-82.373zm49.943 42.615a11.001 11.001 0 0 0-8.3613 4.002l-48.547 57.207-27.404-21.689a11.001 11.001 0 1 0-13.652 17.25l35.74 28.287a11.001 11.001 0 0 0 15.213-1.5078l55.424-65.313a11.001 11.001 0 0 0-8.4121-18.236zm-171.56 333.73c-31.954 0-58.096 26.141-58.096 58.096s26.141 58.096 58.096 58.096c31.954 0 58.096-26.141 58.096-58.096s-26.141-58.096-58.096-58.096zm162.27 0c-31.954 0-58.096 26.141-58.096 58.096s26.141 58.096 58.096 58.096c31.954 0 58.096-26.141 58.096-58.096s-26.141-58.096-58.096-58.096zm-162.27 22.117c20.002 0 35.979 15.977 35.979 35.979s-15.977 35.979-35.979 35.979-35.979-15.977-35.979-35.979 15.977-35.979 35.979-35.979zm162.27 0c20.002 0 35.979 15.977 35.979 35.979s-15.977 35.979-35.979 35.979c-20.002 0-35.979-15.977-35.979-35.979s15.977-35.979 35.979-35.979z" color="#000000" color-rendering="auto" dominant-baseline="auto" image-rendering="auto" shape-rendering="auto" solid-color="#000000" style="font-feature-settings:normal;font-variant-alternates:normal;font-variant-caps:normal;font-variant-ligatures:normal;font-variant-numeric:normal;font-variant-position:normal;isolation:auto;mix-blend-mode:normal;paint-order:stroke markers fill;shape-padding:0;text-decoration-color:#000000;text-decoration-line:none;text-decoration-style:solid;text-indent:0;text-orientation:mixed;text-transform:none;white-space:normal"/>
</svg>
