<svg width="512" height="512" version="1.1" viewBox="0 0 135.47 135.47" xmlns="http://www.w3.org/2000/svg">
 <g transform="translate(0 -161.53)">
  <path d="m65.387 170.68c0.69258 2.0346 2.8596 3.0372 4.8426 2.2404 15.146-5.8438 31.829-2.8064 43.664 7.9637 11.834 10.77 16.946 27.575 13.375 43.967-1.2088 5.244 6.336 6.739 7.4182 1.4699 4.181-19.189-1.8112-38.882-15.664-51.489-13.853-12.607-33.438-16.18-51.193-9.3298-2.0448 0.75565-3.1502 3.0983-2.4428 5.1772zm-3.4717 18.764c0.7866 2.0004 2.9991 2.8994 4.9432 2.0084 11.203-4.9411 23.871-3.2466 33.164 4.4461 9.2935 7.6927 13.732 20.168 11.615 32.645-0.96442 5.2958 6.6423 6.4328 7.4783 1.1178 2.5955-15.299-2.8543-30.619-14.249-40.051-11.395-9.4319-26.989-11.523-40.752-5.4534-2.0075 0.85141-3.0029 3.2437-2.1997 5.2868zm1.2499 19.599c0.79212 1.9976 3.0108 2.9002 4.9574 2.0168 5.6963-2.49 12.125-1.636 16.841 2.2339s6.9644 10.131 5.8908 16.408c-1.0034 5.3045 6.6773 6.4873 7.4933 1.1539 1.5562-9.098-1.7197-18.226-8.5566-23.836-6.8369-5.6101-16.19-6.8496-24.434-3.246-2.0096 0.84533-3.0015 3.2296-2.1921 5.2696zm-44.482-25.715c-2.0357-0.23224-4.0019 0.0452-5.8418 1.1252-0.29023 0.17013-0.55326 0.3836-0.78014 0.63315-16.854 18.56-12.908 33.835-5.9986 58.366 6.9095 24.53 25.82 43.398 49.649 49.384 23.829 5.9861 38.86 9.3958 55.664-8.9334 0.13897-0.15206 0.26369-0.31676 0.37257-0.49199 2.0105-3.2239 1.2405-6.8766-0.2367-10.517-1.4773-3.6401-3.9992-7.5395-7.3753-11.376-6.7521-7.6732-15.018-13.431-22.484-14.16-0.53276-0.052-1.0701 0.0262-1.5664 0.22836-7.8704 3.2045-11.979 7.4773-13.384 12.198-1.1936 4.0124-0.5858 7.6278-0.13997 10.82-10.009 9.1837-14.768-2.4106-24.178-12.411-9.5048-10.101-19.644-15.079-10.771-25.294 7.268-0.7066 11.531-1.9622 14.172-4.8307 1.4152-1.5367 2.09-3.3856 2.4351-4.9968 0.34508-1.6112 0.453-3.0718 0.69162-4.5131 0.0087-0.0517 0.0163-0.10364 0.02264-0.15569 0 0 0.88741-4.9377-0.91393-9.4663-1.8631-4.6838-5.4046-9.7244-10.15-14.403-4.2093-4.1499-8.7061-7.3434-12.933-9.2691-2.1134-0.96281-4.2177-1.7046-6.2534-1.9368zm-0.59282 6.8464c1.0463 0.12025 2.4604 0.45527 4.1086 1.2061 3.2964 1.5017 7.2967 4.2814 11.019 7.9508 4.196 4.1368 7.2601 8.6636 8.6288 12.105 0.69967 1.759 0.47998 6.1601 0.47961 6.1676-1e-6 2e-5 0 4e-3 0 4e-3 -0.27121 1.6832-0.40608 3.0993-0.60929 4.0481-0.21091 0.98475-0.41371 1.4206-0.8069 1.8476-0.78637 0.85393-3.5921 2.2482-11.311 2.8772-0.81304 0.0668-1.5734 0.43245-2.1366 1.0276-12.119 12.794-2.1348 22.405 10.096 35.404 12.231 12.999 22.414 24.353 34.897 11.527 0.69945-0.71876 1.0418-1.7164 0.93246-2.7174-0.44077-4.0416-1.0681-7.3698-0.31288-9.9084 0.71595-2.4066 2.6247-4.8656 8.6165-7.4796 4.2613 0.75955 11.801 5.2978 17.468 11.737 2.9681 3.3731 5.1075 6.7826 6.1958 9.4642 1.0267 2.5298 0.81549 4.0552 0.76777 4.266-15.205 16.319-27.519 11.97-48.803 6.6228-21.448-5.3881-37.523-24.837-44.857-44.705-5.9427-16.1-10.842-34.604 4.0122-51.378 0.27629-0.0818 0.72697-0.16859 1.6158-0.0665z" color="#000000" color-rendering="auto" dominant-baseline="auto" image-rendering="auto" shape-rendering="auto" solid-color="#000000" style="font-feature-settings:normal;font-variant-alternates:normal;font-variant-caps:normal;font-variant-ligatures:normal;font-variant-numeric:normal;font-variant-position:normal;isolation:auto;mix-blend-mode:normal;paint-order:stroke markers fill;shape-padding:0;text-decoration-color:#000000;text-decoration-line:none;text-decoration-style:solid;text-indent:0;text-orientation:mixed;text-transform:none;white-space:normal"/>
 </g>
</svg>
