<svg enable-background="new 0 0 512 512" version="1.1" viewBox="0 0 512 512" xmlns="http://www.w3.org/2000/svg">
 <path d="m202.13 307.94c-4.7376-0.0676-9.4149 1.0164-13.469 4.0325-5.4051 4.0215-7.8013 11.666-6.6191 17.867 1.1821 6.2018 4.6915 11.551 9.8203 16.705 9.5444 9.5914 25.663 18.637 49.973 26.207a10.751 10.555 0 0 0 14.744 8.5368 10.751 10.555 0 0 0 13.43-8.0018c14.349-4.4579 25.896-9.4618 34.791-14.75 13.756-8.1774 22.105-16.528 24.799-26.809 1.347-5.1404 0.70963-11.367-2.8613-16.004-3.571-4.6363-9.138-6.8476-14.379-7.2808-10.482-0.86639-21.375 3.6348-33.135 12.891-7.5 5.9037-15.273 14.213-23.004 24.769-10.062-13.875-20.211-23.531-29.771-29.685-6.7961-4.3744-13.294-7.0586-19.582-8.0574-1.5719-0.24971-3.1571-0.39931-4.7363-0.42185zm3.5879 21.946c2.3731 0.69041 5.2895 1.8354 8.9414 4.1859 3.5688 2.2971 7.6816 5.8881 11.977 10.192-9.3004-4.482-15.853-8.9103-19.395-12.47-0.74695-0.75063-1.0128-1.2599-1.5234-1.9079zm100.33 0.53115c-2.2706 2.6879-6.0365 6.2925-12.383 10.065-2.5752 1.5308-5.6563 3.0898-8.9766 4.65 2.7753-2.8405 5.4688-5.3486 7.9844-7.3287 5.4508-4.2907 10.065-6.3499 13.375-7.3863zm-256.83-59.635a11.001 10.801 0 1 0 0 21.599h419.8a11.001 10.801 0 1 0 0-21.599zm129.9-193.86a11.001 10.801 0 1 0 0 21.599h159.99a11.001 10.801 0 1 0 0-21.599zm-141.81 59.466c-20.779 0-37.521 17.152-37.521 37.647v151.73c0 20.495 16.741 37.647 37.521 37.647h52.795a11.001 10.801 0 0 0 11-10.799v-58.952h319.21v58.952a11.001 10.801 0 0 0 11 10.799h49.602c20.78 0 37.52-17.152 37.52-37.647v-151.73c0-20.495-16.74-37.647-37.52-37.647zm0 21.599h443.6c8.6056 0 15.52 6.7961 15.52 16.048v151.73c0 9.2516-6.915 16.048-15.52 16.048h-38.602v-58.952a11.001 10.801 0 0 0-11-10.799h-341.21a11.001 10.801 0 0 0-11 10.799v58.952h-41.795c-8.6046 0-15.521-6.7961-15.521-16.048v-151.73c0-9.2516 6.9159-16.048 15.521-16.048zm53.346 114.08a11.001 10.801 0 0 0-11 10.799v158.91c0 18.028 4.8636 34.498 13.52 47.108 8.6559 12.609 21.902 21.725 37.316 21.725h257.24c15.415 0 28.66-9.1142 37.316-21.724 8.6565-12.609 13.523-29.081 13.523-47.11v-158.91a11.001 10.801 0 0 0-11-10.799zm11 21.599h314.91v148.11c0 14.121-4.0201 26.668-9.7656 35.037-5.7455 8.3691-12.419 12.197-19.074 12.197h-257.24c-6.6549 0-13.327-3.8282-19.072-12.197-5.7451-8.369-9.7637-20.915-9.7637-35.037zm28.836-292.25c-28.013 0-50.836 22.602-50.836 50.172v95.602a11.001 10.801 0 0 0 11 10.799h336.91a11.001 10.801 0 0 0 11-10.799v-95.602c0-27.571-22.827-50.172-50.84-50.172zm0 21.599h257.24c16.126 0 28.84 12.518 28.84 28.573v84.802h-314.91v-84.802c0-16.055 12.71-28.573 28.836-28.573zm136.38 341.32-22 0.0499 0.23046 98.098 22-0.0499zm-66.808 22.372c-10.684 0.0247-17.71 9.3919-17.689 18.625l0.11171 47.326c0.0218 9.2335 7.0922 18.57 17.776 18.546l117.89-0.27182c10.684-0.0246 17.708-9.3938 17.687-18.627l-0.11171-47.326c-0.0218-9.2335-7.0902-18.568-17.774-18.544zm4.3185 21.589 109.35-0.25214 0.0975 41.299-109.35 0.25214zm-10.301-51.158c-6.3492 0.0146-12.353 1.3175-17.305 3.9588-4.9518 2.6413-9.0062 7.0826-8.994 12.232l0.0392 16.585c0.0121 5.1497 4.0875 9.5723 9.0516 12.191 4.9642 2.6184 10.974 3.893 17.323 3.8784l123.69-0.28521c6.3492-0.0146 12.354-1.3169 17.305-3.9582 4.9518-2.6413 9.0062-7.0826 8.994-12.232l-0.0391-16.585c-0.0122-5.1497-4.0875-9.5723-9.0516-12.191s-10.975-3.8936-17.324-3.879zm0.0429 18.182 123.69-0.28521c0.087-2e-4 0.12226 0.0184 0.20333 0.0221l0.0294 12.435c-0.0811 4e-3 -0.11626 0.0228-0.20323 0.023l-123.69 0.28521c-0.087 2e-4 -0.12221-0.0185-0.20333-0.0221l-0.0293-12.435c0.0811-4e-3 0.11619-0.0228 0.20322-0.023z" color="#000000" color-rendering="auto" dominant-baseline="auto" enable-background="accumulate" image-rendering="auto" shape-rendering="auto" solid-color="#000000" style="font-feature-settings:normal;font-variant-alternates:normal;font-variant-caps:normal;font-variant-ligatures:normal;font-variant-numeric:normal;font-variant-position:normal;isolation:auto;mix-blend-mode:normal;shape-padding:0;text-decoration-color:#000000;text-decoration-line:none;text-decoration-style:solid;text-indent:0;text-orientation:mixed;text-transform:none;white-space:normal"/>
</svg>
