<svg width="512" height="512" version="1.1" viewBox="0 0 135.47 135.47" xmlns="http://www.w3.org/2000/svg">
 <g transform="translate(0 -161.53)">
  <path d="m67.732 161.42c-22.448 0-40.642 18.262-40.708 40.699-0.0049 1.6692 0.3756 3.5821 0.99942 6.196 0.62382 2.6139 1.5213 5.795 2.6505 9.3534 2.2584 7.1169 5.4428 15.731 9.2077 24.094 0.2722 0.60458 0.568 1.1904 0.84594 1.7916h-12.225c-1.5982 0-3.1299 1.0162-3.837 1.9182-0.70707 0.90203-0.9994 1.6572-1.2661 2.1559l-22.754 42.552c-0.52273 0.97757-0.58826 2.2557-0.27957 3.1977 0.30869 0.942 0.85044 1.5915 1.4097 2.0867 1.1186 0.99031 2.3746 1.5348 3.9729 1.5348h123.97c1.5982 0 2.8543-0.54447 3.9729-1.5348 0.55929-0.49516 1.101-1.1447 1.4097-2.0867s0.24316-2.2202-0.27957-3.1977l-22.754-42.552c-0.26667-0.4987-0.559-1.2539-1.2661-2.1559s-2.2387-1.9182-3.837-1.9182h-11.213c0.32718-0.73933 0.67448-1.4639 0.99219-2.2081 3.5298-8.269 6.4467-16.758 8.4868-23.794 1.9384-6.6849 3.1086-11.601 3.1729-14.913a2.9107 2.9107 0 0 0 0.0382-0.51056c0-0.0117-2e-3 -0.0229-2e-3 -0.0346-9e-5 -5e-3 1e-3 -0.0128 1e-3 -0.0181a2.9107 2.9107 0 0 0-0.0176-0.30334c-0.19353-22.283-18.362-40.352-40.689-40.352zm0 5.8208c19.302 0 34.887 15.585 34.887 34.887a2.9107 2.9107 0 0 0 5.1e-4 0.0165 2.9107 2.9107 0 0 0 0 0.0362c0.0213 1.1771-1.006 6.9381-2.9812 13.75-1.9752 6.812-4.831 15.12-8.2501 23.13-1.6743 3.9223-3.4919 7.768-5.3935 11.335-0.25671 0.48101-0.52308 0.92259-0.7829 1.3927-0.65236 1.1818-1.3091 2.345-1.9777 3.4458-0.37828 0.62215-0.76245 1.194-1.1446 1.7859-0.57845 0.8962-1.1588 1.7728-1.7446 2.591-0.67 0.93689-1.3415 1.8566-2.0154 2.6758-0.13966 0.16796-0.2781 0.31488-0.41754 0.47697-0.6177 0.72522-1.229 1.3656-1.8366 1.9678-1.3045 1.2882-2.5826 2.3347-3.7905 3.0629-0.4383 0.26424-0.86534 0.48195-1.2842 0.66973-0.04848 0.0214-0.09805 0.0468-0.14624 0.0672-0.36746 0.15782-0.72347 0.27448-1.0728 0.37155-0.07599 0.0206-0.15541 0.052-0.23048 0.0698-0.40241 0.0976-0.79296 0.15888-1.1663 0.17209-0.33088 0.0117-0.68401-0.0239-1.0537-0.0977-0.05675-0.0109-0.11862-0.0336-0.17622-0.0465-0.33644-0.0779-0.68247-0.17867-1.0459-0.32453-0.01994-8e-3 -0.04096-0.0178-0.06098-0.0258-1.5173-0.62208-3.2558-1.8554-5.086-3.6266-0.63541-0.61775-1.2768-1.2694-1.9317-2.0304-0.15923-0.1828-0.31861-0.37663-0.47853-0.5674-0.62202-0.75098-1.2459-1.5863-1.8697-2.4386-0.58667-0.80075-1.1712-1.6542-1.7549-2.5332-0.41162-0.61972-0.82328-1.2273-1.2325-1.8815-0.62845-1.0057-1.2496-2.0683-1.8686-3.1445-0.34156-0.59315-0.68703-1.1616-1.0247-1.773-0.82379-1.493-1.6327-3.0421-2.4278-4.6214-0.12636-0.25118-0.25903-0.48715-0.38447-0.74001-0.96129-1.9356-1.8981-3.9176-2.7998-5.9206-3.6545-8.1172-6.777-16.562-8.9674-23.465-1.0952-3.4514-1.9579-6.5205-2.5363-8.9442-0.57842-2.4237-0.84221-4.3361-0.84078-4.8276 0.05621-19.312 15.585-34.896 34.887-34.896zm1e-3 9.2981c-13.889 0-25.211 11.322-25.211 25.211-3e-6 13.889 11.322 25.211 25.211 25.211 13.889 0 25.211-11.322 25.211-25.211-2e-6 -13.889-11.322-25.211-25.211-25.211zm0 5.8208c10.743 0 19.39 8.6466 19.39 19.39 3e-6 10.743-8.6467 19.39-19.39 19.39-10.743 0-19.39-8.6467-19.39-19.39 2e-6 -10.743 8.6467-19.39 19.39-19.39zm-38.656 67.015h14.473c4.58e-4 9e-4 0.0011 2e-3 0.0015 3e-3 0.69186 1.359 1.3873 2.7093 2.1053 4.0147 0.37461 0.68042 0.76198 1.3192 1.1436 1.9818 0.65297 1.1353 1.3082 2.2561 1.9808 3.33 0.40386 0.64428 0.81479 1.2487 1.2252 1.8676 0.66343 1.0008 1.3315 1.9719 2.0123 2.898 0.21125 0.28763 0.41307 0.621 0.6258 0.90072 2.0866 2.7437 4.2696 5.1568 6.5851 7.0068 0.02795 0.0224 0.05572 0.0455 0.08371 0.0677 0.50722 0.40147 1.0218 0.76972 1.5431 1.1105 0.1203 0.0791 0.24168 0.15374 0.36277 0.22945 0.4594 0.28535 0.92308 0.55075 1.3942 0.78393 0.21755 0.10876 0.43922 0.19857 0.65939 0.29559 0.40189 0.175 0.80396 0.34887 1.2149 0.48265 0.34728 0.11481 0.70332 0.18836 1.0573 0.27182 0.31044 0.0718 0.61641 0.16454 0.93224 0.21136 0.69204 0.10495 1.3948 0.15721 2.1136 0.13177 1.75e-4 0 3.41e-4 1e-5 5.16e-4 0 0.0019-7e-5 0.0038-4.4e-4 0.0057-5.1e-4 0.72094-0.0259 1.4255-0.12235 2.1182-0.26665 0.30359-0.0624 0.59722-0.16412 0.89555-0.24753 0.37085-0.10505 0.74282-0.20463 1.1059-0.34107 0.38694-0.14377 0.76526-0.32079 1.1436-0.49816 0.24651-0.11666 0.49392-0.22942 0.73691-0.35967 0.44041-0.23417 0.87402-0.49342 1.3033-0.76998 0.15237-0.0987 0.30427-0.1991 0.45527-0.30282 0.48574-0.33211 0.96591-0.68387 1.4382-1.0656 0.0577-0.0467 0.11458-0.0963 0.17208-0.14366 2.3183-1.9084 4.4878-4.3527 6.5412-7.1251 0.18459-0.24924 0.35642-0.54432 0.5395-0.79944 0.68493-0.95359 1.3527-1.9568 2.0149-2.9854 0.37722-0.5856 0.75813-1.1508 1.1281-1.758 0.69866-1.1478 1.3751-2.3471 2.0469-3.5615 0.31285-0.56476 0.63516-1.1025 0.94206-1.6795 0.63661-1.1982 1.2476-2.4403 1.8588-3.6825h13.351c0.11225 0.19859 0.24242 0.4341 0.54416 0.99838l21.82 40.806h-122.04l21.82-40.806c0.30174-0.56427 0.43191-0.79978 0.54415-0.99838z" color="#000000" color-rendering="auto" dominant-baseline="auto" image-rendering="auto" shape-rendering="auto" solid-color="#000000" style="font-feature-settings:normal;font-variant-alternates:normal;font-variant-caps:normal;font-variant-ligatures:normal;font-variant-numeric:normal;font-variant-position:normal;isolation:auto;mix-blend-mode:normal;paint-order:stroke markers fill;shape-padding:0;text-decoration-color:#000000;text-decoration-line:none;text-decoration-style:solid;text-indent:0;text-orientation:mixed;text-transform:none;white-space:normal"/>
 </g>
</svg>
