<svg version="1.1" viewBox="0 0 512 512" xml:space="preserve" xmlns="http://www.w3.org/2000/svg" xmlns:osb="http://www.openswatchbook.org/uri/2009/osb" xmlns:xlink="http://www.w3.org/1999/xlink">
<g transform="translate(0 103.12)" style="">
	<g style="">
		<path d="m96 168c-0.264 0-0.528 0-0.808 8e-3 -3.704-18.232-19.872-32.008-39.192-32.008-22.056 0-40 17.944-40 40 0 3.04 0.36 6.064 1.064 9.024-9.864 2.984-17.064 12.152-17.064 22.976 0 13.232 10.768 24 24 24h72c17.648 0 32-14.352 32-32s-14.352-32-32-32zm0 48h-72c-4.416 0-8-3.584-8-8s3.584-8 8-8c0.696 0 1.48 0.152 2.448 0.464 3.208 1.008 6.696-0.056 8.76-2.696 2.072-2.648 2.256-6.304 0.488-9.152-2.456-3.936-3.696-8.176-3.696-12.616 0-13.232 10.768-24 24-24s24 10.768 24 23.728c-0.032 0.216-0.128 1.088-0.144 1.304-0.168 2.688 1.04 5.28 3.192 6.888 2.168 1.608 5 2.024 7.512 1.12 1.936-0.704 3.704-1.04 5.44-1.04 8.824 0 16 7.176 16 16s-7.176 16-16 16z"/>
	</g>
</g>
<g transform="matrix(.695 0 0 .57784 180.67 126.88)">
<path transform="matrix(1.4388 0 0 1.7306 -259.95 -219.57)" d="m256.15 0.0058594c-92.731 0.70018-168.08 72.583-168.08 161.31a8.1173 8.1173 0 0 0 0.23438 2.0117 8.1173 8.1173 0 0 0-0.26953 3.1055c0.28111 2.9133 0.40592 3.7407 0.41992 3.8106 1.4684 7.4056 5.0702 14.188 10.25 19.805l54.625 122.44c-7.2849 0.21274-14.014 2.1052-19.326 5.4726-5.6427 3.5768-9.8008 9.1613-9.8008 15.541v32.426c0 6.3797 4.158 11.964 9.8008 15.541 2.5071 1.5892 5.3408 2.8339 8.3867 3.75-1.4258 3.3294-2.168 7.0252-2.168 10.908v92.531c0 5.7925 1.6148 11.185 4.7598 15.531s8.308 7.8066 14.369 7.8066h192.87c6.0611 0 11.226-3.4599 14.371-7.8066 3.145-4.3467 4.7598-9.7388 4.7598-15.531v-92.531c0-3.8646-0.73406-7.5442-2.1465-10.861 3.1043-0.91946 5.9904-2.1813 8.5391-3.7969 5.6427-3.5768 9.7988-9.1613 9.7988-15.541v-32.426c0-6.3797-4.1561-11.964-9.7988-15.541-5.5492-3.5175-12.64-5.4408-20.301-5.5039l57.307-125.91-0.57031-0.25977c7.2132-7.0102 11.828-16.119 12.619-25.998a8.1173 8.1173 0 0 0 0.10351-1.541c-0.00117-0.0699-0.00459-0.13911-0.00586-0.20898 0.01471-0.43214 0.0254-0.86425 0.0254-1.2988a8.1173 8.1173 0 0 0-0.10743-1.3984c-3.0887-87.352-78.947-156.53-170.66-155.84zm0.12305 16.232c84.182-0.63562 152.63 62.859 154.38 142.05-0.40955 8.7442-5.9174 17.049-15.598 21.891-10.066 5.0352-22.918 5.0352-32.984 0-10.067-5.0352-15.637-13.813-15.637-22.938a8.1173 8.1173 0 0 0-7.8457-8.2168 8.1173 8.1173 0 0 0-0.17774-0.00586 8.1173 8.1173 0 0 0-0.21484-0.00781 8.1173 8.1173 0 0 0-8.4277 8.2305c3e-5 9.1248-5.5702 17.902-15.637 22.938-10.066 5.0352-22.918 5.0352-32.984 0-10.067-5.0352-15.637-13.813-15.637-22.938a8.1173 8.1173 0 0 0-0.75195-3.502 8.1173 8.1173 0 0 0-15.914 2.377c0 9.1248-5.5702 17.902-15.637 22.938-10.067 5.0352-22.918 5.0352-32.984 0-10.066-5.0352-15.637-13.813-15.637-22.938a8.1173 8.1173 0 0 0-8.2383-8.2305 8.1173 8.1173 0 0 0-7.9941 8.2305c0 1.5049 0.09022 2.9964 0.26367 4.4688a8.1173 8.1173 0 0 0-0.26367 2.168c0 9.1471-5.585 17.944-15.674 22.99-10.089 5.0463-22.968 5.0463-33.057 0-8.4642-4.2338-13.762-11.197-15.242-18.637 0.01316 0.03963 0.01248-0.15594-0.1875-2.2285a8.1173 8.1173 0 0 0-0.20703-1.2227 8.1173 8.1173 0 0 0 0.3164-2.3359c0-79.543 67.532-144.44 151.97-145.08zm0.49805 163.93c4.2511 5.9899 10.104 11.027 17.109 14.531 14.837 7.4216 32.67 7.4216 47.508 0 6.7851-3.3939 12.491-8.226 16.707-13.969 4.216 5.7431 9.9235 10.575 16.709 13.969 11.336 5.6701 24.417 6.992 36.578 3.998l-51.771 113.75h-39.352c5.9116-2.8196 10.667-6.3829 14.273-10.484 9.086-10.333 10.538-23.821 4.6641-33.482-2.9369-4.8309-7.91-8.6236-13.877-9.8457-1.4917-0.30552-3.0214-0.45291-4.5762-0.44531-4.6642 0.0228-9.549 1.4346-14.275 4.1055-11.577 6.5418-22.992 20.245-34.027 44.438-11.678-24.257-23.796-37.972-35.859-44.41-4.9046-2.6178-9.9789-3.7753-14.734-3.6894-7.9258 0.14315-14.964 3.7377-18.848 9.7715-6.2138 9.654-4.6247 23.442 4.9062 33.68 3.7875 4.0685 8.7459 7.5873 14.908 10.363h-31.73l-48.33-108.32c12.334 3.1765 25.659 1.903 37.184-3.8613 8.0852-4.0442 14.663-10.113 18.984-17.352 3.8457 4.2949 8.5955 7.9393 14.035 10.66 14.837 7.4216 32.67 7.4216 47.508 0 6.5656-3.2841 12.133-7.9075 16.307-13.406zm-55.57 94.078c1.8095-0.09139 4.2669 0.54757 7.7383 2.4004 5.9767 3.19 14.236 11.052 22.959 25.988-17.493-1.1811-27.361-6.5047-32.111-11.607-5.4002-5.8009-4.8612-11.156-3.1387-13.832 0.86124-1.3381 1.9512-2.5354 3.8164-2.8672 0.23315-0.04148 0.47782-0.06897 0.73632-0.08203zm99.561 0.16797c0.49535-2.5e-4 0.92739 0.05048 1.3008 0.12695 1.4936 0.3059 2.429 1.0021 3.2637 2.375 1.6693 2.7458 2.1212 8.5236-2.9844 14.33-4.4559 5.0677-13.511 10.288-29.736 11.508 8.3562-15.187 16.273-23.171 21.85-26.322 2.7634-1.5616 4.8206-2.0168 6.3066-2.0176zm-146.08 52.625h92.158v45.363h-92.158c-4.219 0-7.8411-1.1311-10.047-2.5293-2.2058-1.3982-2.8906-2.6949-2.8906-3.9394v-32.426c0-1.2446 0.68481-2.5412 2.8906-3.9394 2.2058-1.3982 5.8279-2.5293 10.047-2.5293zm108.39 0h93.982c4.219 0 7.8411 1.1311 10.047 2.5293 2.2058 1.3982 2.8906 2.6949 2.8906 3.9394v32.426c0 1.2446-0.68481 2.5412-2.8906 3.9394-2.2058 1.3982-5.8279 2.5293-10.047 2.5293h-93.982v-45.363zm-103.73 61.986h87.494v106.74h-87.494c-0.0406 0-0.38225 0.0663-1.2188-1.0898-0.8365-1.1561-1.6777-3.375-1.6777-6.0156v-92.531c0-2.6406 0.84124-4.8614 1.6777-6.0176 0.8365-1.1561 1.1782-1.0898 1.2188-1.0898zm103.73 0h89.145c0.0406 0 0.38225-0.0663 1.2188 1.0898 0.8365 1.1561 1.6777 3.3769 1.6777 6.0176v92.531c0 2.6406-0.84124 4.8595-1.6777 6.0156-0.8365 1.1561-1.1782 1.0898-1.2188 1.0898h-89.145v-106.74z" color="#000000" color-rendering="auto" dominant-baseline="auto" image-rendering="auto" shape-rendering="auto" solid-color="#000000" style="font-feature-settings:normal;font-variant-alternates:normal;font-variant-caps:normal;font-variant-ligatures:normal;font-variant-numeric:normal;font-variant-position:normal;isolation:auto;mix-blend-mode:normal;shape-padding:0;text-decoration-color:#000000;text-decoration-line:none;text-decoration-style:solid;text-indent:0;text-orientation:mixed;text-transform:none;white-space:normal"/></g>
<path d="m196.31 306.54z" style=""/><g transform="matrix(-1 0 0 .99789 512 231.75)" style="">
	<g style="">
		<path d="m96 168c-0.264 0-0.528 0-0.808 8e-3 -3.704-18.232-19.872-32.008-39.192-32.008-22.056 0-40 17.944-40 40 0 3.04 0.36 6.064 1.064 9.024-9.864 2.984-17.064 12.152-17.064 22.976 0 13.232 10.768 24 24 24h72c17.648 0 32-14.352 32-32s-14.352-32-32-32zm0 48h-72c-4.416 0-8-3.584-8-8s3.584-8 8-8c0.696 0 1.48 0.152 2.448 0.464 3.208 1.008 6.696-0.056 8.76-2.696 2.072-2.648 2.256-6.304 0.488-9.152-2.456-3.936-3.696-8.176-3.696-12.616 0-13.232 10.768-24 24-24s24 10.768 24 23.728c-0.032 0.216-0.128 1.088-0.144 1.304-0.168 2.688 1.04 5.28 3.192 6.888 2.168 1.608 5 2.024 7.512 1.12 1.936-0.704 3.704-1.04 5.44-1.04 8.824 0 16 7.176 16 16s-7.176 16-16 16z"/>
	</g>
</g></svg>
