<svg version="1.1" viewBox="0 0 512 512" xml:space="preserve" xmlns="http://www.w3.org/2000/svg">
<g transform="translate(-84.875 99.832)">
		<path transform="translate(84.875 -99.832)" d="m39.406 1.5312c-4.632 0-7.7616 2.982-9.5215 5.5078-1.7599 2.5258-2.8394 5.2704-3.7559 8.3906-1.833 6.2404-2.7949 14.019-2.7949 22.643 0 8.624 0.96192 16.402 2.7949 22.643 0.91649 3.1202 1.9959 5.8648 3.7559 8.3906 1.7599 2.5258 4.8895 5.5078 9.5215 5.5078h15.252l-45.23 115.67a7.5598 7.5598 0 0 0-0.31836 4.6934 7.5598 7.5598 0 0 0-1.8789 5.084c-3.1e-6 24.545 12.685 47.31 33.441 59.678 5.1519 3.0698 10.61 5.376 16.223 6.9219a7.5598 7.5598 0 0 0-4.0547 6.8262v206.73h417.18v-220.01a7.5598 7.5598 0 0 0-0.09375-1.248c1.4088-0.70784 2.7996-1.4659 4.168-2.2812 20.756-12.368 33.441-35.132 33.441-59.678a7.5598 7.5598 0 0 0-0.4414-2.6582 7.5598 7.5598 0 0 0-0.45313-4.0586l-45.23-115.67h12.963c4.632 0 7.7616-2.982 9.5215-5.5078 1.7599-2.5258 2.8394-5.2704 3.7559-8.3906 1.833-6.2404 2.7949-14.019 2.7949-22.643 0-8.624-0.96193-16.402-2.7949-22.643-0.9165-3.1202-1.996-5.8648-3.7559-8.3906-1.7599-2.5258-4.8895-5.5078-9.5215-5.5078h-434.96zm2.4824 15.117h430c0.35854 0.68215 0.78377 1.4338 1.2559 3.041 1.2445 4.2368 2.1816 10.951 2.1816 18.383 0 7.4323-0.93717 14.144-2.1816 18.381-0.47225 1.6078-0.89928 2.361-1.2578 3.043h-430c-0.35853-0.68199-0.78555-1.4352-1.2578-3.043-1.2445-4.2368-2.1816-10.949-2.1816-18.381 0-7.4323 0.93718-14.146 2.1816-18.383 0.47209-1.6072 0.89732-2.3589 1.2559-3.041zm28.381 57.965h77.984l-20.186 118.77a7.5598 7.5598 0 0 0-0.10938 1.75 7.5598 7.5598 0 0 0-1.7188 4.9258c1e-5 19.335-9.997 37.117-26.062 46.689-16.065 9.5726-35.702 9.5726-51.768 0-16.066-9.5726-26.063-27.354-26.062-46.689a7.5598 7.5598 0 0 0-0.23633-1.9473 7.5598 7.5598 0 0 0 1.3965-2.3242l46.207-118.17a7.5598 7.5598 0 0 0 0.55469-3.0039zm93.32 0h86.883v119.93a7.5598 7.5598 0 0 0-2.2578 5.5156c1e-5 19.335-9.997 37.117-26.062 46.689-16.065 9.5726-35.702 9.5726-51.768 0-16.066-9.5726-26.063-27.354-26.062-46.689a7.5598 7.5598 0 0 0-1.3125-4.3594l20.58-121.09zm102 0h82.809a7.5598 7.5598 0 0 0 0.08008 0.47656l22.709 120.52a7.5598 7.5598 0 0 0 0.10352 0.45703 7.5598 7.5598 0 0 0-1.1035 3.9922c0 19.335-9.997 37.117-26.062 46.689-16.065 9.5726-35.7 9.5726-51.766 0-16.066-9.5726-26.063-27.354-26.062-46.689a7.5598 7.5598 0 0 0-0.83203-3.5469 7.5598 7.5598 0 0 0 0.125-1.3926v-120.51zm98.182 0h82.027a7.5598 7.5598 0 0 0 0.54883 3.0039l46.16 118.04a7.5598 7.5598 0 0 0-0.09375 1.3359c-1e-5 19.335-9.997 37.119-26.062 46.691-16.066 9.5726-35.702 9.5726-51.768 0-16.065-9.5726-26.062-27.356-26.062-46.691a7.5598 7.5598 0 0 0-2.8164-5.9922l-21.934-116.39zm16.256 152.26c5.7281 12.259 14.951 22.733 26.818 29.805 14.7 8.7591 31.894 11.306 48.051 7.6582v200.76h-41.064c1.2852-2.8505 2.0059-6.0025 2.0059-9.2969v-136.1c0-12.207-9.8275-22.498-22.033-22.498h-53.072c-12.206 0-22.033 10.291-22.033 22.498v136.1c0 3.2944 0.72065 6.4463 2.0059 9.2969h-252.75v-191.61a7.5598 7.5598 0 0 0-1.7617-4.9824c14.244 1.774 28.927-1.1427 41.721-8.7656 12.25-7.2995 21.686-18.223 27.365-30.994 5.6788 12.771 15.115 23.695 27.365 30.994 20.756 12.368 46.488 12.368 67.244 0 12.25-7.2995 21.686-18.223 27.365-30.994 5.6788 12.771 15.115 23.695 27.365 30.994 20.756 12.368 46.488 12.368 67.244 0 12.845-7.6535 22.594-19.291 28.164-32.865zm-217.81 75.311c-12.206 0-22.035 10.289-22.035 22.496v46.475c0 12.207 9.8295 22.496 22.035 22.496h90.752c12.206 0 22.033-10.289 22.033-22.496v-46.475c0-12.207-9.8276-22.496-22.033-22.496h-90.752zm178.51 10.139h53.072c3.8317 0 6.9141 3.0343 6.9141 7.3789v136.1c0 4.3446-3.0823 7.3789-6.9141 7.3789h-53.072c-3.8317 0-6.9141-3.0343-6.9141-7.3789v-136.1c0-4.3446 3.0823-7.3789 6.9141-7.3789zm-178.51 4.9785h90.752c3.8317 0 6.9141 3.0343 6.9141 7.3789v46.475c0 4.3446-3.0824 7.3789-6.9141 7.3789h-90.752c-3.8317 0-6.916-3.0343-6.916-7.3789v-46.475c0-4.3446 3.0843-7.3789 6.916-7.3789zm188.45 76.27a7.5598 7.5598 0 0 0-7.4453 7.666c0 1.0907-0.29108 1.8107 1.0625 4.2305 0.67684 1.21 2.6265 3.9512 6.6973 3.9512 4.0707 0 6.0224-2.7412 6.6992-3.9512 1.3536-2.4198 1.0625-3.1398 1.0625-4.2305a7.5598 7.5598 0 0 0-7.8145-7.6563 7.5598 7.5598 0 0 0-0.26171-0.00976zm7.5684 6.3457c0.13106 0.57271 0.10548 0.94849 0.10547 1.3203a7.5598 7.5598 0 0 0-0.10547-1.3203zm-14.516 0.02539a7.5598 7.5598 0 0 0-0.0957 1.2949c-1e-5 -0.36807-0.029-0.73425 0.0957-1.2949zm-332.18 93.115a7.5598 7.5598 0 1 0 0 15.119h488.91a7.5598 7.5598 0 1 0 0-15.119h-488.91z" color="#000000" color-rendering="auto" dominant-baseline="auto" image-rendering="auto" shape-rendering="auto" solid-color="#000000" style="font-feature-settings:normal;font-variant-alternates:normal;font-variant-caps:normal;font-variant-ligatures:normal;font-variant-numeric:normal;font-variant-position:normal;isolation:auto;mix-blend-mode:normal;shape-padding:0;text-decoration-color:#000000;text-decoration-line:none;text-decoration-style:solid;text-indent:0;text-orientation:mixed;text-transform:none;white-space:normal"/>
</g>
</svg>
