<svg enable-background="new 0 0 512 512" version="1.1" viewBox="0 0 512 512" xml:space="preserve" xmlns="http://www.w3.org/2000/svg"><g>
<g transform="matrix(.53646 0 0 .39871 89.911 97.62)"><path transform="matrix(1.8641 0 0 2.5081 -167.6 -244.84)" d="m182.7 186.48c-3.7296-0.0638-7.6742 0.79818-11.445 2.7031-8.8814 4.4863-17.611 13.705-25.967 29.482-8.8504-15.841-18.113-25.067-27.346-29.473-3.9011-1.8613-7.9254-2.7246-11.717-2.6797-6.319 0.07481-11.992 2.6722-15.377 7.373-5.4156 7.5213-3.7984 18.768 4.0039 26.26 1.5193 1.4589 3.246 2.8038 5.1758 4.0312h-30.17c-6.4359 0-12.429 1.4199-17.176 4.1094-4.7465 2.6895-8.3516 6.9782-8.3516 11.902v22.373c0 4.9241 3.6051 9.2148 8.3516 11.904 1.7726 1.0044 3.7183 1.8322 5.7969 2.4746-0.7013 2.0622-1.0801 4.2549-1.0801 6.459v63.846c-1e-6 9.1025 6.3385 18.062 16.061 18.062h148.87c9.722 0 16.061-8.96 16.061-18.062v-63.846c0-2.1918-0.37657-4.3717-1.0703-6.4238 2.1245-0.64761 4.1147-1.4858 5.9219-2.5098 4.7464-2.6895 8.3496-6.9802 8.3496-11.904v-22.373c0-4.9241-3.6032-9.2128-8.3496-11.902-4.7465-2.6895-10.742-4.1094-17.178-4.1094h-37.197c1.8923-1.2629 3.582-2.6473 5.0586-4.1484 7.4615-7.5856 8.9441-18.501 3.8125-26.047-3.2072-4.7159-8.823-7.3956-15.039-7.502zm0.28906 14.666c0.1486 0.00471 0.28655 0.01869 0.41602 0.03906 1.0357 0.16293 1.4886 0.79096 1.834 1.2988 0.69079 1.0157 1.4028 3.3926-2.0898 6.9434-2.7322 2.7776-8.6524 5.9065-18.768 7.1562 5.3001-7.6477 10.198-12.143 13.689-13.906 2.3451-1.1846 3.8778-1.5642 4.918-1.5312zm-77.127 0.17187c1.2496-0.05806 3.0234 0.3053 5.5684 1.5195 3.7509 1.7896 8.8514 6.2138 14.354 13.666-10.992-1.2383-17.517-4.4353-20.461-7.2617-3.7228-3.5747-2.9173-5.535-2.207-6.5215 0.35514-0.49323 0.97946-1.1593 2.2422-1.3535 0.15784-0.02427 0.3254-0.04053 0.50391-0.04883zm-36.004 35.893h69.84v28.127h-66.238c-0.85482 0-1.6819 0.07254-2.4824 0.20508h-1.1191c-2.8482 0-5.2332-0.69816-6.5449-1.4414-1.3117-0.74325-1.4453-1.2025-1.4453-1.5391v-22.373c0-0.3366 0.13363-0.79582 1.4453-1.5391 1.3117-0.74324 3.6968-1.4394 6.5449-1.4394zm84.959 0h71.248c2.8482 0 5.2332 0.69621 6.5449 1.4394 1.3117 0.74325 1.4453 1.2025 1.4453 1.5391v22.373c0 0.3366-0.13365 0.79582-1.4453 1.5391-1.3117 0.74324-3.6968 1.4414-6.5449 1.4414h-1.252c-0.80049-0.13254-1.6276-0.20508-2.4824-0.20508h-67.514v-28.127zm-81.357 43.244h66.238v69.734h-66.238c0.3025 0-0.94336-0.4083-0.94336-2.9434v-63.846c0-2.5351 1.2459-2.9453 0.94336-2.9453zm81.357 0h67.514c-0.30251 0 0.94336 0.41025 0.94336 2.9453v63.846c0 2.5351-1.2459 2.9434-0.94336 2.9434h-67.514v-69.734z" color="#000000" color-rendering="auto" dominant-baseline="auto" enable-background="accumulate" image-rendering="auto" shape-rendering="auto" solid-color="#000000" style="font-feature-settings:normal;font-variant-alternates:normal;font-variant-caps:normal;font-variant-ligatures:normal;font-variant-numeric:normal;font-variant-position:normal;isolation:auto;mix-blend-mode:normal;shape-padding:0;text-decoration-color:#000000;text-decoration-line:none;text-decoration-style:solid;text-indent:0;text-orientation:mixed;text-transform:none;white-space:normal"/></g><path d="m52.627 1.2461c-27.014 0-48.961 22.083-48.961 49.174v411.76c0 27.091 21.947 49.174 48.961 49.174h409.64c27.014 0 48.959-22.083 48.959-49.174v-411.76c0-27.091-21.945-49.174-48.959-49.174h-409.64zm0 15.117h409.64c18.858 0 33.842 15.038 33.842 34.057v0.59766h-477.32v-0.59766c0-19.019 14.984-34.057 33.842-34.057zm-33.842 49.771h477.32v30.441h-477.32v-30.441zm0 45.561h477.32v350.48c0 19.019-14.984 34.057-33.842 34.057h-409.64c-18.858 0-33.842-15.038-33.842-34.057v-350.48z" color="#000000" color-rendering="auto" dominant-baseline="auto" enable-background="accumulate" image-rendering="auto" shape-rendering="auto" solid-color="#000000" style="font-feature-settings:normal;font-variant-alternates:normal;font-variant-caps:normal;font-variant-ligatures:normal;font-variant-numeric:normal;font-variant-position:normal;isolation:auto;mix-blend-mode:normal;shape-padding:0;text-decoration-color:#000000;text-decoration-line:none;text-decoration-style:solid;text-indent:0;text-orientation:mixed;text-transform:none;white-space:normal"/><path d="m407.95 298.73c-4.7607 1e-5 -9.4863 3.6603-9.4863 9.0547 1e-5 5.3944 4.7256 9.0547 9.4863 9.0547 4.7607-1e-5 9.4863-3.6603 9.4863-9.0547-1e-5 -5.3944-4.7256-9.0547-9.4863-9.0547zm0 6.0547c0.93965 0 2.5684 0.94903 2.5684 3s-1.6287 3-2.5684 3c-0.93964 0-2.5684-0.94903-2.5684-3 1e-5 -2.051 1.6287-3 2.5684-3z" color="#000000" color-rendering="auto" dominant-baseline="auto" enable-background="accumulate" image-rendering="auto" shape-rendering="auto" solid-color="#000000" style="font-feature-settings:normal;font-variant-alternates:normal;font-variant-caps:normal;font-variant-ligatures:normal;font-variant-numeric:normal;font-variant-position:normal;isolation:auto;mix-blend-mode:normal;shape-padding:0;text-decoration-color:#000000;text-decoration-line:none;text-decoration-style:solid;text-indent:0;text-orientation:mixed;text-transform:none;white-space:normal"/><path d="m371.67 81.496a8.6235 8.6235 0 0 1-8.6235 8.6235 8.6235 8.6235 0 0 1-8.6234-8.6235 8.6235 8.6235 0 0 1 8.6234-8.6235 8.6235 8.6235 0 0 1 8.6235 8.6235z"/><path d="m401.36 81.496a8.6235 8.6235 0 0 1-8.6234 8.6235 8.6235 8.6235 0 0 1-8.6235-8.6235 8.6235 8.6235 0 0 1 8.6235-8.6235 8.6235 8.6235 0 0 1 8.6234 8.6235z"/><path d="m429.84 81.496a8.6235 8.6235 0 0 1-8.6234 8.6235 8.6235 8.6235 0 0 1-8.6235-8.6235 8.6235 8.6235 0 0 1 8.6235-8.6235 8.6235 8.6235 0 0 1 8.6234 8.6235z"/></g><g shape-rendering="auto"><path d="m85.385 73.814a7.5598 7.5598 0 1 0 0 15.117h248.52a7.5598 7.5598 0 1 0 0-15.117z" color="#000000" color-rendering="auto" dominant-baseline="auto" enable-background="accumulate" image-rendering="auto" solid-color="#000000" style="font-feature-settings:normal;font-variant-alternates:normal;font-variant-caps:normal;font-variant-ligatures:normal;font-variant-numeric:normal;font-variant-position:normal;isolation:auto;mix-blend-mode:normal;shape-padding:0;text-decoration-color:#000000;text-decoration-line:none;text-decoration-style:solid;text-indent:0;text-orientation:mixed;text-transform:none;white-space:normal"/><path d="m293 201.73a7.5598 7.5598 0 1 0 0 15.119h170.49a7.5598 7.5598 0 1 0 0-15.119z" color="#000000" color-rendering="auto" dominant-baseline="auto" enable-background="accumulate" image-rendering="auto" solid-color="#000000" style="font-feature-settings:normal;font-variant-alternates:normal;font-variant-caps:normal;font-variant-ligatures:normal;font-variant-numeric:normal;font-variant-position:normal;isolation:auto;mix-blend-mode:normal;shape-padding:0;text-decoration-color:#000000;text-decoration-line:none;text-decoration-style:solid;text-indent:0;text-orientation:mixed;text-transform:none;white-space:normal"/><path d="m293 252.14a7.5598 7.5598 0 1 0 0 15.117h170.49a7.5598 7.5598 0 1 0 0-15.117z" color="#000000" color-rendering="auto" dominant-baseline="auto" enable-background="accumulate" image-rendering="auto" solid-color="#000000" style="font-feature-settings:normal;font-variant-alternates:normal;font-variant-caps:normal;font-variant-ligatures:normal;font-variant-numeric:normal;font-variant-position:normal;isolation:auto;mix-blend-mode:normal;shape-padding:0;text-decoration-color:#000000;text-decoration-line:none;text-decoration-style:solid;text-indent:0;text-orientation:mixed;text-transform:none;white-space:normal"/><path d="m293 300.56a7.5598 7.5598 0 1 0 0 15.117h92.193a7.5598 7.5598 0 1 0 0-15.117z" color="#000000" color-rendering="auto" dominant-baseline="auto" enable-background="accumulate" image-rendering="auto" solid-color="#000000" style="font-feature-settings:normal;font-variant-alternates:normal;font-variant-caps:normal;font-variant-ligatures:normal;font-variant-numeric:normal;font-variant-position:normal;isolation:auto;mix-blend-mode:normal;shape-padding:0;text-decoration-color:#000000;text-decoration-line:none;text-decoration-style:solid;text-indent:0;text-orientation:mixed;text-transform:none;white-space:normal"/><path d="m293 352.97a7.5598 7.5598 0 1 0 0 15.119h92.193a7.5598 7.5598 0 1 0 0-15.119z" color="#000000" color-rendering="auto" dominant-baseline="auto" enable-background="accumulate" image-rendering="auto" solid-color="#000000" style="font-feature-settings:normal;font-variant-alternates:normal;font-variant-caps:normal;font-variant-ligatures:normal;font-variant-numeric:normal;font-variant-position:normal;isolation:auto;mix-blend-mode:normal;shape-padding:0;text-decoration-color:#000000;text-decoration-line:none;text-decoration-style:solid;text-indent:0;text-orientation:mixed;text-transform:none;white-space:normal"/></g></svg>
