<svg width="385" height="44.9" version="1.1" viewBox="0 0 385 90" xmlns="http://www.w3.org/2000/svg"><title>Breakout Escaperoom</title><path d="m-162 89.8c-6.19-1.2-10.7-3.31-15.4-7.28-5.42-4.53-9.85-12.2-10.8-18.6-0.206-1.4-0.29-1.51-1.24-1.6-0.969-0.0938-1.03-0.183-1.23-1.7l-0.203-1.6-0.01 1.76c-5e-3 0.968-0.0219 1.95-0.0368 2.18-0.019 0.291-0.44 0.389-1.39 0.32l-1.36-0.0984v-8.96h2.56l0.186 1.92c0.156 1.61 0.195 1.7 0.24 0.582 0.0413-1.03 0.202-1.39 0.691-1.54 0.35-0.111 0.778-0.115 0.951-8e-3 0.327 0.202 0.515-0.403 0.79-2.55 0.47-3.66 2.23-8.16 4.75-12.1l0.995-1.57-2.06-1.86c-2.21-2-2.7-2.26-2.38-1.25 0.177 0.559 0.0575 0.64-0.949 0.64-2.3 0-4.4-1.47-5.68-3.97-0.49-0.96-0.611-1.7-0.51-3.09 0.156-2.16 1.07-3.71 2.95-5.02 1.08-0.757 1.56-0.875 3.57-0.875 2.07 0 2.47 0.106 3.7 0.973 2.24 1.57 3.74 5.04 2.3 5.32-0.368 0.0714 0.168 0.677 1.73 1.96l2.26 1.85 2.67-1.82c3.19-2.17 6.17-3.65 9.04-4.47 1.76-0.504 2.11-0.718 2.11-1.29 0-0.936 0.526-1.08 3.99-1.08 2.42 0 3.02 0.0948 3.17 0.506 0.253 0.658 0.253 6.33 0 6.99-0.12 0.313-0.578 0.506-1.2 0.506-1.69 9.3e-5 -5.76 0.886-8.08 1.76-3.25 1.22-6.4 3.32-8.95 5.97-2.76 2.86-4.57 5.85-5.95 9.87-1 2.9-1.05 3.25-1.03 7.68 0.0133 4.12 0.111 4.94 0.87 7.33 2.62 8.26 8.53 14.2 17 17 1.97 0.665 2.83 0.756 7.2 0.756 4.32 3.1e-4 5.24-0.0944 7.17-0.734 9.51-3.17 15.8-10.1 17.7-19.5 0.255-1.29 0.463-2.79 0.463-3.32v-0.975l-0.717 0.923c-1.57 2.02-3.66 3-6.39 3-4.07 0-7.41-3.39-7.4-7.52 3e-3 -1.09 0.242-2.47 0.551-3.2 1.53-3.58 5.9-5.46 9.74-4.18 1.94 0.643 4.33 3.08 4.84 4.92 0.421 1.52 0.421 3.77-2e-3 4.56-0.317 0.593-0.195 0.619 2.93 0.619h3.26l-0.185 2.96c-0.451 7.22-3.8 14.4-9.35 19.9-4.3 4.32-9.2 7.06-15.5 8.67-2.59 0.661-9.6 0.84-12.3 0.314zm24.5-31.2c0-0.176-0.144-0.32-0.32-0.32s-0.32 0.144-0.32 0.32 0.144 0.32 0.32 0.32 0.32-0.144 0.32-0.32zm0.468-2.55c0.79-0.873 0.427-2.18-0.683-2.46-1.1-0.276-1.84 0.211-1.97 1.29-0.2 1.68 1.5 2.43 2.65 1.16zm-4.31-2.57c0-0.176-0.0635-0.32-0.141-0.32-0.0776 0-0.23 0.144-0.339 0.32s-0.0453 0.32 0.141 0.32c0.186 0 0.339-0.144 0.339-0.32zm6.4-0.64c0-0.176-0.144-0.32-0.32-0.32s-0.32 0.144-0.32 0.32 0.144 0.32 0.32 0.32 0.32-0.144 0.32-0.32zm-53.3-18.9-0.899-0.938 1.97-2.41c1.08-1.33 2.12-2.5 2.3-2.62 0.185-0.114 0.775 0.204 1.31 0.708l0.977 0.915-0.228-0.96c-0.58-2.44-2.8-3.9-5.47-3.6-2.75 0.31-4.51 2.54-4.24 5.36 0.236 2.45 2.19 4.45 4.39 4.47l0.78 0.0073-0.899-0.938zm41.1 41.6c-2.52-1.36-3.71-3.11-3.81-5.62-0.0868-2.05 0.572-3.66 2.08-5.09 1.9-1.8 4.38-2.21 6.76-1.13 3.32 1.51 4.93 4.85 3.79 7.85-0.683 1.79-1.84 3.21-3.17 3.9-1.49 0.776-4.28 0.817-5.64 0.0823zm1.92-2.4c0-1.02-0.149-1.51-0.498-1.64-0.598-0.229-2.75 0.862-2.61 1.32 0.0781 0.26 2.65 1.77 3.01 1.77 0.0507 0 0.0922-0.653 0.0922-1.45zm3.5 0.524c1.14-0.808 1.12-1.14-0.0897-1.79-1.57-0.843-2.13-0.503-2.13 1.29 0 1.37 0.0476 1.46 0.72 1.26 0.396-0.114 1.07-0.457 1.5-0.761zm-6.03-2.82c1.22-0.721 1.21-1.71-0.0313-2.44-1.25-0.738-1.6-0.476-1.6 1.2 0 1.94 0.201 2.09 1.63 1.25zm8.01-0.171c0.0697-1.11-0.0432-2.58-0.211-2.75-0.0829-0.0829-0.656 0.121-1.27 0.453-1.38 0.741-1.47 1.69-0.241 2.43 1.23 0.74 1.67 0.706 1.72-0.131zm-4.24-0.678c0.277-0.333 0.245-0.536-0.134-0.85-0.612-0.508-1.29 0.0276-1 0.786 0.237 0.618 0.658 0.641 1.14 0.064zm-1.31-3.8c0.0536-0.836-0.0184-1.52-0.16-1.51-0.451 9e-3 -2.76 1.42-2.87 1.75-0.144 0.442 1.51 1.41 2.29 1.34 0.527-0.047 0.657-0.326 0.738-1.58zm3.62 1.13c0.513-0.303 0.886-0.69 0.829-0.861-0.145-0.436-1.53-1.38-2.38-1.62-0.671-0.194-0.72-0.109-0.72 1.23 0 1.86 0.647 2.22 2.27 1.26zm-17.2-0.793c-0.211-0.211-0.384-0.918-0.384-1.57 0-0.933-0.211-1.36-0.984-2.02-0.966-0.813-1.19-0.835-3.18-0.326-0.614 0.157-1.09-0.162-1.55-1.04-0.562-1.07-0.467-1.31 0.88-2.2 1.74-1.15 1.93-2.67 0.55-4.4-0.927-1.16-0.952-1.27-0.496-2.08 0.614-1.09 1.44-1.24 2.8-0.512 1.05 0.567 1.11 0.566 2.23-0.0435 0.729-0.397 1.24-0.957 1.39-1.53 0.34-1.29 0.877-1.82 1.86-1.82 1.2 0 1.62 0.554 1.62 2.11 0 1.78 1.04 2.53 3.5 2.53 1.58 0 1.79 0.0849 2.24 0.898 0.491 0.886 0.479 0.913-0.868 2.08-1.65 1.43-1.81 2.71-0.555 4.35 0.997 1.31 1 1.81 0.034 2.72l-0.766 0.72-1.29-0.658c-1.18-0.6-1.39-0.618-2.38-0.2-0.838 0.35-1.23 0.798-1.65 1.91-0.501 1.31-0.659 1.46-1.59 1.46-0.566 0-1.2-0.173-1.41-0.384zm3.83-6.87c0.792-0.717 0.762-2.49-0.0548-3.31-1.36-1.36-3.84-0.368-3.84 1.53 0 1.43 0.818 2.31 2.15 2.31 0.636 0 1.42-0.238 1.74-0.53zm3.49-7.85c-3.47-1.8-3.28-6.31 0.314-7.75 2.67-1.07 5.74 0.934 5.74 3.74-3e-3 3.44-3.15 5.52-6.06 4zm1.03-2.53c-0.36-0.36-1.77 0.614-1.5 1.04 0.109 0.176 0.507 0.436 0.885 0.578 0.577 0.216 0.704 0.129 0.792-0.541 0.0578-0.439-0.0201-0.924-0.173-1.08zm2.59 1.35c0.894-0.59 0.901-0.615 0.261-0.958-1.16-0.62-1.66-0.436-1.66 0.608 0 1.12 0.164 1.16 1.4 0.35zm-3.39-2.65c0.0509-0.256-0.273-0.631-0.72-0.835-0.798-0.364-0.812-0.347-0.812 0.942 0 1.29 0.0128 1.3 0.72 0.835 0.396-0.262 0.762-0.686 0.812-0.942zm4.68-0.566c-0.287-0.623-0.294-0.623-1.09 0l-0.8 0.627 0.8 0.627c0.794 0.623 0.802 0.623 1.09 0 0.172-0.373 0.172-0.881 0-1.25zm-2.69 0.627c0-0.176-0.216-0.32-0.48-0.32s-0.48 0.144-0.48 0.32 0.216 0.32 0.48 0.32 0.48-0.144 0.48-0.32zm-0.817-2.32c0.0324-0.743-0.0627-0.849-0.612-0.681-0.358 0.109-0.844 0.353-1.08 0.543-0.351 0.282-0.323 0.421 0.154 0.77 0.859 0.628 1.49 0.367 1.54-0.632zm2.48 0.687c0.64-0.343 0.633-0.368-0.261-0.958-1.23-0.814-1.4-0.773-1.4 0.35 0 1.04 0.501 1.23 1.66 0.608zm5.26 1.05c-0.44-0.44-0.635-0.46-1.18-0.123-0.807 0.504-1.37 0.193-1.15-0.636 0.106-0.406-0.106-0.862-0.601-1.29-0.85-0.739-0.768-1.11 0.339-1.53 0.543-0.207 0.698-0.459 0.573-0.936-0.231-0.882 0.748-1.26 1.3-0.501 0.333 0.455 0.536 0.493 1.08 0.2 1.02-0.543 1.41-0.438 1.34 0.359-0.0994 1.23-4e-3 1.52 0.493 1.52 0.746 0 0.565 1.09-0.24 1.44-0.48 0.211-0.689 0.543-0.627 0.996 0.121 0.883-0.661 1.17-1.34 0.499zm0.207-2.17c0.305-0.305-0.112-1.09-0.58-1.09-0.536 0-0.886 0.537-0.625 0.96 0.219 0.354 0.906 0.427 1.2 0.129zm-6.26-1.93c-0.126-0.126-0.228-0.685-0.228-1.24 0-0.795-0.189-1.1-0.873-1.41-0.796-0.363-0.933-0.322-1.56 0.462-0.751 0.942-1.33 0.84-2.49-0.44-0.575-0.635-0.573-0.677 0.0519-1.55 0.584-0.82 0.6-0.983 0.178-1.79-0.395-0.755-0.637-0.873-1.62-0.795-1.07 0.085-1.18 0.0124-1.44-0.987-0.386-1.45-0.129-1.96 0.988-1.96 1.5 0 1.9-1.99 0.524-2.62-0.941-0.429-1-0.944-0.251-2.21 0.63-1.07 0.94-1.13 1.96-0.415 0.689 0.482 0.781 0.47 1.49-0.196 0.617-0.579 0.701-0.854 0.457-1.5-0.164-0.432-0.299-0.904-0.299-1.05 0-0.222 2.26-1.29 2.72-1.29 0.0821 0 0.346 0.471 0.586 1.05 0.321 0.768 0.662 1.06 1.28 1.12 0.695 0.0575 0.93-0.134 1.33-1.08 0.374-0.896 0.605-1.1 1.04-0.923 0.309 0.125 0.958 0.371 1.44 0.546 0.989 0.358 1.04 0.521 0.502 1.69-0.324 0.711-0.284 0.922 0.279 1.48 0.62 0.62 0.711 0.628 1.64 0.146 0.542-0.28 1.05-0.51 1.13-0.51 0.0794 0 0.458 0.531 0.841 1.18l0.696 1.18-0.745 0.573c-0.41 0.315-0.853 0.576-0.985 0.58-0.307 0.0091-0.304 1.34 5e-3 1.8 0.129 0.194 0.667 0.497 1.2 0.674 0.876 0.293 0.951 0.431 0.859 1.57-0.131 1.62-0.428 1.88-1.63 1.46-0.902-0.314-1.02-0.271-1.44 0.52-0.424 0.8-0.399 0.924 0.342 1.7l0.799 0.842-1.06 0.997c-0.585 0.548-1.15 0.997-1.25 0.998-0.101 9.6e-4 -0.511-0.346-0.91-0.771-0.622-0.662-0.857-0.727-1.64-0.455-0.748 0.261-0.93 0.529-1.01 1.49-0.0936 1.12-0.153 1.18-1.39 1.27-0.71 0.0523-1.39-8e-3 -1.52-0.133zm2.68-5.24c1.5-0.417 2.41-1.43 2.88-3.21 0.341-1.28 0.311-1.62-0.257-2.9-1.25-2.84-4.93-3.42-7.04-1.13-0.578 0.631-1.07 1.47-1.09 1.87-0.16 2.87 0.357 4 2.27 4.96 1.63 0.822 1.69 0.829 3.24 0.399zm12.5-3.39c-1.81-0.812-3.09-2.4-3.54-4.4-0.378-1.69-0.355-1.86 0.482-3.57 2.07-4.23 7.11-4.92 10.1-1.37 2.19 2.62 1.56 6.83-1.31 8.72-1.62 1.07-4.09 1.34-5.72 0.613zm1.92-2.34c0-1.55-0.795-1.94-2.23-1.1-0.915 0.54-0.932 0.591-0.404 1.18 0.564 0.627 1.52 1.12 2.23 1.16 0.256 0.013 0.4-0.434 0.4-1.24zm2.52 0.8c1.62-0.836 1.73-1.27 0.524-1.92-1.5-0.809-2.08-0.505-2.08 1.09 0 1.41 0.22 1.52 1.56 0.831zm-5.06-2.91c1.26-0.653 1.21-1.53-0.151-2.33-0.938-0.553-1.12-0.577-1.28-0.165-0.348 0.907-0.107 2.99 0.346 2.99 0.0779 0 0.566-0.22 1.09-0.488zm7.48-0.392c0.102-0.484 0.0779-1.27-0.0546-1.75l-0.241-0.868-1.04 0.659c-1.27 0.806-1.33 1.7-0.16 2.33 1.2 0.651 1.28 0.63 1.5-0.377zm-3.86-0.572c0.109-0.285-0.0198-0.572-0.307-0.682-0.598-0.229-1.25 0.34-0.95 0.827 0.314 0.508 1.04 0.425 1.26-0.144zm-1.59-1.94c0.726-0.279 0.712-2.69-0.0161-2.69-0.581 0-2.68 1.21-2.68 1.55 6.4e-4 0.213 1.57 1.25 1.97 1.3 0.118 0.0161 0.442-0.0582 0.72-0.165zm3.64-0.393 1.05-0.56-0.731-0.682c-0.402-0.375-1.13-0.781-1.61-0.901-0.85-0.211-0.88-0.175-0.88 1.07 0 1.12 0.269 1.57 0.96 1.62 0.088 0.0065 0.633-0.24 1.21-0.549zm-36.1-2.44c-0.37-0.371-0.39-1.78-0.0334-2.35 0.195-0.307 1.33-0.387 4.56-0.32l4.3 0.0897 0.0995 1.2c0.0645 0.779-0.0482 1.25-0.32 1.35-0.865 0.297-8.3 0.32-8.6 0.0271zm11.7-5.78c-0.284-0.284-0.517-0.718-0.517-0.963 0-0.818-1.19-1.18-2.41-0.74-0.966 0.349-1.18 0.331-1.66-0.143-0.514-0.514-0.514-0.599 3e-3 -1.47 0.768-1.3 0.684-2.23-0.269-2.98-0.515-0.405-0.781-0.895-0.72-1.33 0.0783-0.549 0.374-0.714 1.5-0.843 1.44-0.164 1.65-0.369 2.16-2.08 0.39-1.31 1.61-1.33 2.33-0.0287 0.64 1.15 1.51 1.49 2.52 0.961 0.426-0.221 0.967-0.328 1.2-0.238 0.701 0.269 0.879 1.38 0.321 1.99-0.782 0.864-0.617 1.97 0.43 2.89 0.791 0.694 0.891 0.943 0.635 1.58-0.256 0.642-0.466 0.735-1.35 0.592-1.29-0.21-2.06 0.315-2.2 1.51-0.0591 0.5-0.415 1.11-0.79 1.36-0.596 0.393-0.749 0.385-1.2-0.0666zm1.02-4.7c1.03-1.03-0.126-2.78-1.55-2.33-0.78 0.248-1.16 1.6-0.625 2.24 0.476 0.573 1.64 0.622 2.17 0.0918zm14.2 2.32c-2.09-1.27-2.35-3.59-0.612-5.33 0.906-0.906 1.32-1.09 2.49-1.09 1.6 0 2.62 0.592 3.31 1.92 0.617 1.19 0.605 2.08-0.0452 3.18-1.11 1.87-3.29 2.43-5.14 1.31zm2.58-2.75c0.109-0.285-0.0198-0.572-0.307-0.682-0.598-0.229-1.25 0.34-0.95 0.827 0.314 0.508 1.04 0.425 1.26-0.144zm0.416-4.85c-0.377-0.0975-0.515-0.33-0.389-0.657 0.249-0.649-0.476-1.11-1.03-0.652-0.525 0.435-1.5-0.682-1.02-1.17 0.492-0.501 0.339-1.05-0.342-1.23-0.847-0.222-0.876-1.51-0.0342-1.51 0.75 0 1.13-0.854 0.526-1.19-0.375-0.211-0.375-0.34 3e-3 -0.856 0.362-0.494 0.534-0.534 0.921-0.212 0.592 0.491 1.14 0.183 1.14-0.639 0-0.449 0.221-0.621 0.8-0.621 0.498 0 0.8 0.181 0.8 0.48 0 0.557 0.849 0.654 1.03 0.118 0.0737-0.221 0.399-0.274 0.835-0.136 0.54 0.171 0.693 0.436 0.626 1.08-0.0708 0.686 0.0317 0.835 0.518 0.751 0.615-0.106 1.14 0.417 1.15 1.14 3e-3 0.22-0.211 0.4-0.475 0.4-0.64 0-0.614 0.853 0.0364 1.22 0.797 0.446 0.044 1.67-0.879 1.42-0.601-0.157-0.666-0.0792-0.496 0.599 0.254 1.01-0.781 1.8-1.39 1.07-0.528-0.637-0.842-0.584-1.04 0.174-0.17 0.651-0.262 0.681-1.29 0.415zm2.27-2.83c1.39-0.976 0.717-3.34-0.955-3.34-1.95 0-2.86 1.88-1.53 3.2 0.769 0.769 1.53 0.812 2.49 0.142z" fill="#abca44" fill-opacity=".995"/><path d="m-63.1 35c-0.986 0.051-1.52 0.187-1.8 0.419-0.93 0.779-1.06 6.85-0.168 7.75 0.382 0.371 2.24 0.587 5.07 0.587 3.8 0 4.69 0.155 5.78 1.01 1.07 0.84 1.29 1.41 1.29 3.38 0 1.3-0.139 2.73-0.305 3.16-0.535 1.42-3.17 2.32-7.71 2.64l-4.45 0.317-0.108 2.93c-0.144 4.11 0.146 5.14 1.46 5.13 0.605-0.0046 1.39-0.195 1.74-0.419 0.825-0.519 5.89 0.65 6.83 1.59 0.394 0.397 1.12 2.88 1.62 5.53 0.503 2.64 1.28 5.64 1.72 6.65l-0.018-0.018c0.643 1.45 1.09 1.83 2.11 1.83 0.71 0 1.55-0.264 1.87-0.587 0.456-0.456 0.587-0.451 0.587 0.0299 0 0.454 0.919 0.581 3.42 0.479 1.88-0.0779 3.42-0.275 3.42-0.443 0-0.168-0.438-0.7-0.976-1.19-0.538-0.492-0.976-1.28-0.976-1.75 0-0.477-0.343-1.21-0.766-1.63-0.422-0.423-0.566-0.772-0.317-0.772 0.274 0 0.259-0.98-0.0359-2.47-0.328-1.67-0.687-2.4-1.11-2.23-0.342 0.131-0.744-0.0745-0.892-0.461-0.159-0.414 0.0259-0.7 0.449-0.7 1.94 0-1.12-7.63-3.27-8.19-0.819-0.215-0.668-0.425 0.982-1.41 3.62-2.15 5.45-6.95 4.46-11.7-0.565-2.72-2.96-6.55-4.1-6.55-0.373 0-0.794-0.299-0.934-0.665-0.397-1.01-4.23-1.79-10.4-2.13-2.07-0.111-3.5-0.147-4.49-0.0958zm182 0.0838-9.53 0.281v31.3l1.71 3.33c1.85 3.59 4.12 5.78 7.15 6.86l0.018 0.12c1.04 0.371 2.8 0.683 3.92 0.694l2.04 0.024 0.0359-4.89 0.042-4.89h-1.24c-1.48 0-2.91-1.22-3.62-3.1-0.325-0.901-0.521-6.75-0.521-15.6zm11.8 0.0059 0.036 1.85c0.0213 1.01 9e-3 7.71-0.0299 14.9l-0.0718 13-1.26 1.5c-0.886 1.05-1.7 1.51-2.71 1.51h-1.44l0.0839 4.52c0.0459 2.49 0.174 4.68 0.287 4.89 0.382 0.698 4.8 0.344 6.75-0.545 3.77-1.73 6.73-5.76 8-11 0.794-3.21 0.693-27.4-0.114-26.9-0.395 0.237-0.391 0.116 0.018-0.389 0.603-0.749 0.615-1.75 0.0299-2.69-0.199-0.321-2.21-0.569-4.96-0.617zm-237 0.0599c-1.99-0.0533-4.09 0.0283-4.78 0.293-0.709 0.275-0.785 1.85-0.718 14.9 0.0611 12.1 0.188 14.6 0.736 14.4 0.365-0.141 0.793-0.0411 0.952 0.216 0.159 0.257-0.176 0.467-0.742 0.467-0.998 0-1.03 0.182-0.898 5.99l0.0119-0.0419 0.132 5.99 4.65 0.0898c3.15 0.0611 4.75-0.0982 5.01-0.497 0.652-1.03 0.418-1.39-0.712-1.1-1.03 0.261-1.03 0.245-0.12-0.233 0.908-0.474 0.976-1.01 0.976-7.45 0-3.82-0.2-7.26-0.443-7.64-0.264-0.41-0.263-0.577 0-0.413 0.513 0.458 0.501-23.6-0.0119-24.4-0.183-0.289-2.04-0.48-4.03-0.533zm195 0.162v7.91l1.95 0.527c2.44 0.657 5.11 2.96 6.47 5.57 0.846 1.63 1.04 2.92 1.07 7.01 0.0198 2.75-0.107 5.01-0.287 5.01-0.18 0-0.48 0.719-0.665 1.59-0.382 1.86-4.05 5.6-5.71 5.83-0.724 0.102-1.07 0.444-0.982 0.976 0.0748 0.451-0.0887 0.96-0.365 1.13-0.275 0.171-0.497 0.0746-0.497-0.21 0-0.286-0.222-0.515-0.491-0.515-0.269 0-0.491 0.327-0.491 0.73 0 0.403 0.222 0.736 0.491 0.736 0.269 0 0.491 0.231 0.491 0.515 0 0.285-0.202 0.394-0.443 0.245-0.24-0.153-0.449 0.965-0.467 2.48l-0.0359 2.74 2.55-0.305c3.31-0.397 8.07-2.76 10.7-5.35 3.56-3.48 7.16-11.8 5.73-13.3-0.61-0.625-0.586-1.87 0.0299-1.49 0.276 0.171 0.491-0.228 0.491-0.922 0-0.675-0.386-1.46-0.856-1.73-0.475-0.276-0.585-0.501-0.245-0.509 0.373 3e-6 0.611-0.695 0.611-1.77 0-1.37-0.162-1.7-0.73-1.48-0.862 0.33-0.969-0.234-0.192-1.01 0.84-0.825-1.53-5.53-4.24-8.44-2.83-3.02-7.31-5.33-11.1-5.72zm-164 0.0299-0.126 20.5c-0.0703 11.2-0.0212 20.7 0.108 21.1v0.156c0.168 0.429 1.62 0.611 4.9 0.611h4.66l-0.257-42.3zm106 0.0599v42h9.78v-42zm-26.8 0.0119-3.32 9.67c-1.82 5.33-3.69 10.7-4.15 12-0.622 1.69-0.695 2.42-0.287 2.84 0.409 0.417 0.378 0.524-0.12 0.407-1.1-0.26-4 8.89-4.23 13.4l0.018-0.0299-0.198 3.79h9.21l0.299-1.84c0.163-1.01 0.485-2.29 0.712-2.86 0.703-1.83 5.45-17.8 6.59-22.3l1.08-4.26 1.84 6.47c1.02 3.56 1.95 6.73 2.08 7.05 0.168 0.419-0.794 0.634-3.3 0.736l-3.53 0.144-1.14 3.91c-0.628 2.15-1.15 3.96-1.16 4.02-0.0153 0.0596 2.68 0.17 5.98 0.245l5.99 0.138 2.44 8.56h5.5c3.02 0 5.5-0.172 5.5-0.383 0-0.306-3.27-9.64-7.26-20.9l-7.26-20.5zm82.1 0c-3.07 0-6.66 1.34-9.82 3.66-5.44 4.03-8.1 10.1-7.75 17.7 0.229 5.09 0.507 6.4 2.07 9.81 1.92 4.23 7.96 9.94 9.78 9.24 0.39-0.15 1 0.0271 1.37 0.389 0.364 0.362 1.09 0.766 1.6 0.898l0.0119-0.0359c1.61 0.409 1.68 0.377 1.68-0.629 0-0.571 0.324-0.976 0.784-0.976 0.498 0 0.688-0.266 0.509-0.73-0.171-0.446 1.4e-4 -0.736 0.437-0.736 0.878 0 0.922-0.56 0.108-1.44-0.489-0.527-0.489-0.594 0-0.317 0.403 0.228 0.611 0.0045 0.611-0.659 0-0.555-0.31-1.01-0.682-1.01-0.373 0-0.648-0.367-0.611-0.814 0.0428-0.513-0.469-0.965-1.39-1.23-0.81-0.228-1.96-0.827-2.56-1.33-1.5-1.25-3.56-5.29-3.56-6.94 0-0.749-0.203-1.89-0.449-2.53-0.519-1.34 0.494-6.87 1.67-9.15 1.12-2.15 3.14-3.85 5.74-4.78l2.32-0.832v-7.59zm-31.1 0.0059-13.4 14-0.0239 10.6 7.45 8.74 7.44 8.75 5.79 0.018c3.41 0.0092 5.72-0.173 5.62-0.443-0.0916-0.244-4.56-5.46-9.9-11.6l-9.73-11.1 9.39-9.09c5.16-5 9.37-9.25 9.36-9.45 0-0.202-2.71-0.378-6-0.389zm117 0.0059c-0.43 0.0628-0.812 0.215-1.14 0.443-0.553 0.388-0.994 0.471-0.994 0.192 0-0.33-4.24-0.501-12.4-0.497l-12.4 0.0059-0.641 1.2c-0.712 1.33-0.303 2.2 0.605 1.29 0.876-0.875 1.3-0.692 1.01 0.431-0.145 0.553-0.539 0.897-0.88 0.766-0.839-0.321-1.85 3.57-1.15 4.41l-0.042 0.0059c0.458 0.456 4.31 0.593 15.9 0.569l15.3-0.0299-0.15-8.4-1.57-0.323c-0.519-0.105-0.995-0.129-1.42-0.0658zm-213 0.0359-0.0958 2.25c-0.0779 1.78 0.0457 2.19 0.599 1.98 0.465-0.179 0.611-0.0274 0.431 0.443-0.15 0.39-0.0285 0.706 0.269 0.706 0.298 0 0.539 0.222 0.539 0.491 0 0.269-0.327 0.491-0.73 0.491-0.403 0-0.747 0.0525-0.76 0.12-0.0137 0.0611-0.144 1.51-0.293 3.21-0.231 2.62-0.135 3.2 0.635 3.83 0.787 0.645 0.793 0.707 0.0659 0.479-0.776-0.244-0.835 0.536-0.796 10.5 0.026 6.83 0.221 10.7 0.533 10.7 0.274 0 0.216 0.325-0.126 0.736-0.813 0.978-0.292 4.06 0.838 4.92 1.16 0.885 2.1 0.868 2.1-0.0359 0-0.403-0.222-0.736-0.491-0.736-0.269 0-0.485-0.234-0.485-0.521 0-0.299 0.415-0.388 0.976-0.21 1.23 0.383 1.31-0.618 0.12-1.53-0.749-0.573-0.761-0.72-0.12-1.15 0.403-0.269 0.952-0.491 1.22-0.491s0.171 0.205-0.216 0.449c-0.584 0.37-0.59 0.575-0.0539 1.22 0.46 0.553 0.822 0.625 1.26 0.263 0.435-0.362 0.686-0.308 0.874 0.18 0.157 0.409-0.213 0.898-0.922 1.22-0.651 0.296-1.19 0.742-1.19 0.988 0 0.556 2.31 1.17 2.95 0.784 0.257-0.159 0.467-0.0566 0.467 0.228l0.012-0.0059c0 0.716 1.24 0.653 1.86-0.0958 0.319-0.382 0.51-4.34 0.509-10.5v-9.9l-1.19 0.293c-0.704 0.177-1.18 0.0857-1.18-0.228 0-0.289 0.275-0.422 0.611-0.293 1.34 0.519 1.79-2.41 1.8-11.6l0.012-9.17h-2.92c-1.99 0-2.94 0.194-2.96 0.611-0.0321 0.489-0.0843 0.489-0.281 0-0.137-0.336-1.07-0.611-2.07-0.611zm184 0.072c-0.286 0-0.515 0.216-0.515 0.485s0.097 0.491 0.216 0.491c0.119 0 0.348-0.222 0.515-0.491 0.166-0.269 0.0686-0.485-0.216-0.485zm-153 0.024-20 0.0059v7.76l5.75 0.138-0.0359 0.0059c3.16 0.0755 7.67 0.069 10-0.018l4.28-0.162zm-91 0.233 0.0119 3.42c6e-3 1.88 0.0319 3.7 0.0599 4.04 0.0458 0.446 1.43 0.611 5.16 0.611 4.64 0 5.24 0.1 6.44 1.13 1.15 0.978 1.28 1.36 0.982 2.93-0.519 2.83-1.89 3.43-7.59 3.32-3.55-0.0688-4.86 0.0685-5.01 0.533-0.165 0.504-0.132 5.65 0.0479 7.35 0.0153 0.202 2.25 0.371 4.95 0.371 7.11 0 8.85 1.21 8.12 5.65-0.535 3.24-2.67 4.25-8.76 4.14-2.35-0.0443-4.3 0.0989-4.31 0.317-0.0484 0.718-0.0633 6.74-0.018 7.36l-0.018 0.018c0.0306 0.44 1.27 0.611 4.4 0.611 3.06 0 4.42-0.183 4.57-0.611 0.162-0.477 0.382-0.465 1.01 0.0539 0.871 0.707 3.27 0.404 3.27-0.413 0-0.255 0.335-0.337 0.742-0.18 1.3 0.504 6.58-2.22 6.58-3.41 0-0.255-0.38-0.768-0.85-1.14-0.784-0.615-0.755-0.657 0.365-0.539 0.672 0.0703 1.22-0.0905 1.22-0.359s-0.18-0.433-0.401-0.359c-0.222 0.0733-0.265-0.0902-0.0958-0.365 0.171-0.275 0.709-0.503 1.2-0.503 0.603 0 0.984-0.489 1.19-1.53 0.993-4.96-0.551-9.45-4.1-11.9-1.6-1.11-1.9-1.52-1.38-1.92 0.361-0.284 0.734-0.946 0.826-1.47 0.183-1.08 2.03-3.63 2.03-2.81 0 0.289-0.222 0.66-0.491 0.826-0.269 0.167-0.485 0.632-0.485 1.04 0 1.25 1.02 0.184 2-2.11 1.56-3.64 0.992-7.27-1.6-10.2-2.95-3.37-4.6-3.86-12.8-3.86zm260 9.57-4.84 0.0059-0.257 1.31c-0.141 0.719-0.0558 1.51 0.186 1.75 0.262 0.269 0.217 0.717-0.102 1.1-0.396 0.477-0.357 0.863 0.138 1.47 0.456 0.562 0.475 0.71 0.0599 0.461-0.462-0.275-0.611 0.347-0.611 2.59 0 2.96 0.149 3.19 1.95 3 0.619-0.0672 0.63-0.0079 0.0479 0.383-0.379 0.255-0.94 0.369-1.25 0.251-0.4-0.153-0.588 2.46-0.683 9.33-0.0718 5.25 7.9e-4 9.76 0.168 10l6e-3 0.0658c0.168 0.276 2.43 0.491 5.17 0.491h4.86l-0.0419-14.8c-0.0351-12.9-0.14-15-0.826-15.7-0.727-0.81-0.722-0.85 0.0419-0.557 0.558 0.214 0.826 0.0686 0.826-0.437 0-0.626-0.811-0.745-4.84-0.736zm-179 5.85c-6.94-0.0107-7.6 0.0628-7.32 0.808 0.27 0.705 0.175 0.697-0.689-0.0838-1.23-1.1-1.92-0.595-1.06 0.784 0.345 0.554 0.39 0.867 0.102 0.689-0.58-0.367-0.77 5.18-0.198 5.75h-0.018c0.5 0.493 1.54 0.386 1.9-0.192 0.205-0.33 0.515-0.343 0.88-0.0419 0.626 0.513 12.5 0.726 14.3 0.257 1.09-0.275 1.16-0.504 1.16-3.85 0-2.69-0.173-3.63-0.718-3.84-0.397-0.152-4.16-0.282-8.36-0.287zm1.25 18.1c-7.96-0.0962-9.17-0.0161-9.17 0.635 0 0.412-0.222 0.616-0.491 0.449-0.269-0.167-0.485-0.0555-0.485 0.245 0 0.301-0.222 0.412-0.491 0.245-0.269-0.167-0.491 0.0219-0.491 0.419 0 0.397 0.275 0.833 0.611 0.97 0.468 0.191 0.476 0.347 0.0299 0.665-0.724 0.504-0.691 3.68 0.0419 4.17l-0.0059 0.0119c0.304 0.197 1.04 0.367 1.63 0.371 0.965 0 1.05-0.183 0.778-1.59-0.17-0.881-0.473-1.66-0.671-1.74-0.48-0.183 0.0252-2.05 0.557-2.05 0.229 0 0.294 0.307 0.15 0.683-0.145 0.376-0.0165 0.833 0.281 1.02 0.298 0.185 0.408 0.765 0.239 1.29-0.168 0.524-0.0425 1.28 0.281 1.67 0.748 0.898 4.86 0.979 4.87 0.0958 0.0046-0.415 0.121-0.443 0.365-0.0838 0.229 0.33 2.4 0.516 5.75 0.491l5.38-0.0419v-7.82zm106 5.23c-0.57 0-2.16 2.04-1.91 2.45l-6e-3 0.0059c0.16 0.258 0.686 0.473 1.17 0.473 0.637 0 0.886-0.399 0.916-1.47 0.0229-0.807-0.0512-1.47-0.168-1.47zm-128 3.59c-0.538 0-0.976 0.216-0.976 0.485 0 0.269 0.438 0.491 0.976 0.491 0.538 3e-6 0.982-0.222 0.982-0.491 0-0.269-0.444-0.485-0.982-0.485z" fill="#feffff" stroke-width="1.53"/><path d="m356 35c-0.133 0-0.354 0.176-0.693 0.516-0.476 0.478-2.11 0.871-3.63 0.871h-2.76v7.98h4.02c3.31 0 4.34 0.315 5.8 1.78 0.98 0.975 1.78 2.63 1.78 3.65 0 1.02-0.798 2.67-1.78 3.65-1.47 1.46-2.49 1.78-5.8 1.78h-4.02v3.99l0.0181 4.01h5.47c8.01 0 11.7-1.9 14.6-7.5 1.53-2.93 1.36-9.19-0.329-12.6-0.771-1.53-1.25-3.24-1.06-3.79 0.218-0.61-0.0299-0.862-0.64-0.658-0.544 0.184-2.31-0.261-3.9-0.987-1.59-0.726-3.8-1.32-4.9-1.33-1.1-9e-3 -2-0.401-2-0.88 0-0.339-0.0449-0.516-0.178-0.516zm156 1.17-3.02 0.48c-5.85 0.952-11.2 4.92-14.2 10.6-1.05 1.97-1.35 4.1-1.35 9.43 0 6.37 0.178 7.19 2.26 10.9 2.45 4.31 7.66 8.89 9.39 8.23 0.59-0.227 1.08-0.0511 1.08 0.391l9e-3 0.0088c0 0.454 1.26 0.8 2.92 0.8h2.92l-9e-3 -0.142c0.0465 0.0924 0.0556 0.26 0.116 0.32v-0.0177c0.771 0.771 6.08-0.69 9.16-2.5 6.28-3.7 8.82-8.46 9.07-17 0.0953-3.31-0.122-6.01-0.489-6.01-0.367 0-0.491-0.46-0.275-1.02 1.16-3.02-5.54-10.7-11.1-12.8-4.57-1.7-6.03-2.03-6.5-0.249zm-229 0.0088v8.17l2.92 1.17c2.11 0.839 3.35 1.97 4.38 3.99l-9e-3 -0.0267c0.789 1.55 1.73 2.82 2.09 2.82 1.09 0 8.03-3.22 8.03-3.72 0-0.249-1.07-2.01-2.36-3.92-2.56-3.79-7.78-7.15-12.3-7.98zm-37.6 0.0711-3.49 0.516c-4.24 0.612-8.65 2.95-10.6 5.64-2.09 2.81-2.11 9.12-0.0356 11.9 2.86 3.85 13.5 8.21 14.8 6.08 0.397-0.644 0.864-0.55 1.79 0.373 0.703 0.689 2.3 1.25 3.56 1.25 1.27-0.0022 1.73 0.132 1.03 0.302-1.37 0.333-1.67 1.32-0.604 1.98 0.986 0.612-0.242 4.38-1.44 4.4-3.62 0.0454-5.9 2.99-3.88 5.01 0.73 0.73 0.779 1.09 0.169 1.3-0.469 0.154-0.647 0.814-0.4 1.46l-9e-3 0.0177c0.408 1.05 0.881 1.07 4.58 0.213 6.42-1.47 9.32-4.39 10.8-10.8 0.451-1.96 0.38-2.05-0.835-1.13-1.12 0.855-1.18 0.853-0.409-0.0177 1.21-1.34 1.15-3.23-0.133-4.3-0.574-0.476-0.909-1.25-0.747-1.72 0.635-1.81-4.81-4.77-11.7-6.35-4.1-0.952-7.26-2.11-8-2.92-1.13-1.24-1.14-1.48-0.0621-3.13 0.658-1.03 2.02-1.88 3.18-2.01 1.89-0.204 2.02-0.482 2.23-4.13zm228 0v3.35c0 1.85-0.0408 3.6-0.0889 3.9-0.0453 0.299 1.16 1.2 2.69 2 1.54 0.794 3.56 2.59 4.52 3.99 1.55 2.29 1.69 3.13 1.42 8.52-0.27 5.42-0.495 6.2-2.4 8.19-1.18 1.21-2.86 2.39-3.77 2.61-0.907 0.227-1.46 0.702-1.24 1.06 0.22 0.356-0.194 0.671-0.915 0.702-0.762 0.034-0.926 0.214-0.4 0.427 0.499 0.202 0.907 0.685 0.907 1.08 4e-5 0.39-0.288 0.529-0.64 0.311-0.481-0.295-0.571 2.77-0.133 4.49l9e-3 0.0177c0.136 0.585 4.81 0.0259 6.83-0.818 6.67-2.79 13.5-13.2 11.1-17.1-0.379-0.608-0.269-1.2 0.293-1.55 0.562-0.347 0.672-0.945 0.293-1.56-0.338-0.553-0.516-1.73-0.4-2.63 0.116-0.898-0.0533-1.63-0.382-1.64-0.329-0.0022-0.632-0.995-0.676-2.21-0.181-4.9-7.6-11.5-14.3-12.7zm-43 0.0711v7.78l4.8 0.444c2.63 0.245 5.26 0.831 5.81 1.29 1.39 1.16 1.28 6.05-0.16 7.25-0.635 0.531-3.24 1.1-5.8 1.26l-4.65 0.293v7.82h3.47c5.13 0 6.41 1.25 7.41 7.19 1.2 7.16 1.72 7.68 7.53 7.48 4-0.138 4.71 0.0125 4.36 0.933l9e-3 -0.0267c-0.231 0.603-0.0601 1.1 0.382 1.1 1.13 0 1-1.58-0.276-3.4-0.596-0.839-1.44-3.19-1.88-5.24-0.435-2.04-1.17-3.72-1.64-3.72-0.542-0.0068-0.497-0.232 0.133-0.631 1.21-0.771 0.688-2.66-1.72-6.19l-1.76-2.59 1.72-1.13c2.57-1.68 4.25-6.48 3.65-10.5-0.386-2.56-1.13-3.87-3.35-5.92-3.15-2.91-5.44-3.52-13.2-3.54zm-222 0.0267v3.99l9e-3 3.98h19.7l-0.444-7.63zm104 0.0088-3.74 11.5c-2.06 6.3-4.06 12.1-4.43 12.9-2.75 5.94-4.52 15.1-3.17 16.5l-0.0181-0.0711c0.635 0.621 7.63 0.117 8.26-0.596 0.726-0.68 8.05-25.8 8.05-27.4 0-2.15 0.7-0.767 2.12 4.22 0.744 2.61 1.55 5.34 1.79 6.08 0.363 1.16 0.0227 1.34-2.63 1.34-3.33 0-4.22 1.02-5.26 5.99l-0.498 2.36h11.5l0.862 3.45c1.27 4.95 1.7 5.26 7.44 5.26 4.9 0 5.03-0.0502 4.53-1.64-0.295-0.907-3.53-10.1-7.21-20.5l-6.69-18.9zm258 0.0088-3.34 5.54c-1.84 3.04-3.33 5.82-3.33 6.17 0 0.347-0.321 0.631-0.72 0.631s-0.729 0.31-0.729 0.693c0 0.386-1.31 2.74-2.9 5.26-2.89 4.56-2.9 4.58-2.91 12l0.0267-0.08c-2e-3 4.08 0.136 7.43 0.311 7.43 0.272 0 13.1-20.9 15.3-24.9 0.431-0.794 2.2-3.74 3.9-6.53 1.71-2.79 3.25-5.33 3.42-5.63 0.181-0.299-1.79-0.542-4.37-0.542zm-372 0.0088c-1.55 0-1.81 0.321-1.81 2.27 0 1.32 0.536 2.69 1.27 3.24 1.2 0.912 1.2 0.965 9e-3 0.987-1.17 0.0227-1.26 1.36-1.21 17.5l0.0712 17.5 1.57-0.48c2.2-0.674 2.42-1.01 1.19-1.79-0.871-0.552-0.808-0.675 0.347-0.684 1.1-9e-3 1.22-0.202 0.542-0.88-0.478-0.478-0.871-1.2-0.871-1.59 0-0.395 0.44-0.124 0.978 0.613 0.596 0.815 1.38 1.13 2 0.809 0.56-0.29 0.441-0.056-0.258 0.516-1.72 1.4-1.61 1.7 0.862 2.56 1.54 0.538 2.32 0.512 2.84-0.107 0.427-0.522 0.666-8.64 0.595-20.5l-0.125-19.6-2.47-0.231c-1.49-0.141-2.72 0.142-3.08 0.72-0.461 0.725-0.613 0.738-0.622 0.0533-7e-3 -0.499-0.824-0.907-1.82-0.907zm173 0c-1.36 0-1.66 0.416-1.73 2.47-0.0612 1.62 0.299 2.62 1.03 2.9 1 0.386 0.998 0.548-0.0267 1.57-1.37 1.36-1.56 6.11-0.24 6.12 0.717 9e-3 0.719 0.126 9e-3 0.578-1.36 0.907-1.12 23.2 0.267 25.4 1.13 1.8 2.84 2.25 2.2 0.587-0.22-0.574-4e-3 -1.22 0.471-1.45 0.66-0.311 0.645-0.505-0.0444-0.827-0.499-0.234-0.907-0.78-0.907-1.21 0-0.429 0.594-0.236 1.32 0.427 0.73 0.661 1.55 0.988 1.81 0.72 0.267-0.268 0.489-0.109 0.489 0.356 0 0.465-0.486 0.844-1.08 0.844-1.79 0-1.23 1.28 0.907 2.02l-0.0182-0.0356c1.23 0.423 2.34 0.431 2.86 0.0177 0.612-0.499 0.86-6.28 0.898-20.6l0.0533-19.9h-2.91c-1.8 0-2.91 0.342-2.94 0.907-0.0476 0.726-0.134 0.726-0.427 0-0.202-0.499-1.1-0.907-2-0.907zm9.6 0.0088v7.94h19.6v-7.94zm89 0.0356c-0.813-0.0034-2.1 0.37-4.15 0.978-10 3.17-15.6 14.8-12.2 26.1 1.09 3.65 2.15 5.3 5.48 8.68 2.61 2.64 4.54 4.03 5.22 3.77 0.592-0.227 1.29-0.0708 1.56 0.356l-9e-3 -0.08c0.771 1.24 5.25 0.951 5.76-0.373 0.243-0.635 0.247-1.47 9e-3 -1.86-0.238-0.392-0.528-1.54-0.64-2.56-0.204-1.86-1.42-3.11-3.06-3.13-1.43 0-4.44-4.53-5.17-7.78-0.723-3.22-0.0564-8.53 1.42-11.3 1.09-2.03 2.61-3.29 5.17-4.27 1.84-0.703 1.99-1.09 1.99-4.69 0-2.78-0.0234-3.83-1.38-3.83zm-50.8 0.0177v40.7l9.79-0.427 0.0977-12.3c0.0544-6.78-0.0606-15.9-0.258-20.1l-0.364-7.8zm-172 0.0088c-1.16 0.0862-1.2 1.1-1.2 3.73 0 3.61 0.129 3.89 2.22 4.68 1.41 0.521 2.52 1.65 3.06 3.06 0.883 2.35 1.64 2.55 6.51 1.75 2.27-0.374 2.73-0.739 2.73-2.2 0-4.24-4.38-8.84-9.8-10.3-1.73-0.468-2.82-0.745-3.51-0.693zm32.6 0.0088c-0.813-0.0034-2.11 0.37-4.16 0.978-10 2.95-15.4 14.4-12.2 25.9 1.09 3.95 1.97 5.35 5.47 8.86 2.63 2.64 4.56 4.03 5.24 3.77 0.592-0.227 1.29-0.0619 1.56 0.364l-0.0181-0.0622c0.771 1.24 5.25 0.951 5.76-0.373 0.243-0.635 0.247-1.47 9e-3 -1.86-0.238-0.392-0.519-1.54-0.631-2.56-0.204-1.86-1.43-3.12-3.07-3.14-1.07 0-4.21-4.1-4.92-6.42-0.864-2.83-0.529-8.5 0.675-11.4 1.27-2.99 2.65-4.36 5.66-5.51 1.84-0.703 2-1.1 2-4.7 0-2.78-0.0234-3.83-1.38-3.83zm253 0.0444c-0.813 0.0542-1.32 0.152-1.32 0.293 0 1.52 6.83 11.9 7.87 12 0.687 0.034 0.832 0.207 0.338 0.409-0.477 0.195-0.674 0.859-0.436 1.48h9e-3c0.34 0.872 1.22 1.05 3.99 0.782 3.6-0.352 6.2-1.84 4.37-2.52-0.499-0.184-0.907-0.602-0.907-0.933 0-0.317-1.4-2.99-3.13-5.92l-3.13-5.33-4.49-0.213c-1.24-0.059-2.36-0.0542-3.17 0zm-192 0.0622-3.88 0.222-0.204 18.5c-0.127 11.1 0.0757 19.3 0.507 20.5l0.0181 0.0267c0.576 1.53 1.09 1.84 2.74 1.63 1.11-0.147 3.07-0.284 4.36-0.311l2.34-0.0533 9e-3 -19.5c9e-3 -15.9-0.179-19.7-1-20.4-0.567-0.48-2.67-0.748-4.87-0.622zm191 2.71c-0.299-0.0227-0.542 2.28-0.542 5.12 0 4.54 0.17 5.21 1.44 5.54 0.794 0.206 1.27 0.651 1.07 0.987-0.206 0.336-0.855 0.429-1.44 0.204-0.73-0.279-1.07 0.0744-1.07 1.12 0 0.841 0.393 1.53 0.871 1.53 0.678 0 0.678 0.193 0 0.871-0.599 0.59-0.871 4.21-0.871 11.6v10.8h10.2l-0.107-10.6c-0.113-11.4-0.375-13.4-1.73-13.4-0.485 0-0.849-0.737-0.818-1.64 0.0453-1.28-0.308-1.59-1.58-1.46-1.39 0.147-1.51-0.0227-0.836-1.1 0.633-1.02 0.301-2.11-1.64-5.42-1.34-2.29-2.67-4.16-2.97-4.17zm46.4 0.711c-0.249 0-2.47 3.36-4.9 7.48l-4.43 7.48v11l-9e-3 11h9.39l0.205-18.5c0.113-10.2-1e-3 -18.5-0.258-18.5zm-67.4 0.747c9e-3 3.39 0.146 3.6 2.53 4.39 1.43 0.476 3.43 2.01 4.53 3.45 1.71 2.25 2 3.34 2.09 7.85 0.113 6.17-1.57 9.92-5.33 11.9-1.29 0.683-2.13 1.45-1.88 1.71 0.254 0.256-0.093 0.471-0.773 0.471-1.03 0-1.1 0.25-0.409 1.54 0.579 1.08 0.587 1.39 0.0267 1.04-0.313-0.194-0.533 0.336-0.675 1.01l-9e-3 -0.187c-0.181-3.13-1.62-5.14-4.29-5.99-2.58-0.816-4.51-5.39-4.6-10.9-0.113-6.15 1.38-9.17 5.72-11.6 2.54-1.42 2.87-1.87 3.08-4.76zm37.8 10.5c-0.237-0.0676-0.465-0.0442-0.684 0.0533-0.658 0.286-2.4 0.667-3.89 0.844-1.5 0.177-2.73 0.497-2.73 0.72 0 0.227 2.84 5.12 6.28 10.8 3.45 5.71 6.47 10.4 6.71 10.4 0.24 0 0.271-3.51 0.071-7.82-0.34-7.37-0.495-8.05-2.81-11.7-1.38-2.15-2.24-3.17-2.95-3.37zm-167 0.347c-0.404 0.185-0.696 1.48-0.773 3.68-0.0712 2.01 9e-3 3.88 0.178 4.16 0.181 0.275 3.2 0.438 6.74 0.356 3.54-0.0828 7.48-0.17 8.77-0.187 2.34-0.0227 2.36-0.0669 2.36-3.58 0-4.34-0.179-4.42-9.14-4.42-4.96 0-6.86 0.249-6.9 0.907-0.0476 0.726-0.134 0.726-0.427 0-0.293-0.731-0.575-1.03-0.818-0.915zm-166 0.0088c-5.59 0-7.11 0.206-6.69 0.907 0.429 0.713 0.302 0.712-0.587-0.0088-0.998-0.794-1.14-0.48-1.22 2.81-0.0476 2.04 0.108 4.04 0.347 4.43h0.0181c0.238 0.386 0.709 0.428 1.05 0.0889 0.34-0.339 2.83-0.454 5.53-0.249 2.7 0.205 6.31 0.274 8.01 0.151l3.08-0.222v-3.52c0-2.53-0.319-3.63-1.15-3.95-0.635-0.242-4.4-0.436-8.39-0.436zm74.7 10.2c-0.251 0-0.453 0.611-0.453 1.37 0 1.16-1.66 2.88-6.33 6.62-0.483 0.386-1.24 0.702-1.68 0.702-0.454 0-0.311 0.507 0.329 1.15 1.52 1.52 1.46 2.2-0.08 0.942-1.08-0.878-1.17-0.841-0.729 0.329 0.274 0.73 0.498 1.95 0.498 2.72l9e-3 0.0088c0 1.92 3.68 1.86 7.76-0.124 2.83-1.36 8.93-7.3 8.93-8.68 0-0.567-7.35-5.03-8.26-5.03zm-62.8 1.33v2.25c0 3.04 1.53 5.78 4.76 8.55 2.7 2.31 6.63 3.58 8.64 2.81 0.587-0.227 1.28-0.0686 1.55 0.356 0.828 1.34 1.43-0.525 1.36-4.22-0.068-3.3-0.189-3.5-2.38-3.95-2.9-0.59-4.33-1.77-4.62-3.79-0.204-1.4-0.727-1.6-4.76-1.8zm-10.6 5.96c-6.24-0.093-9.02 0.107-8.7 0.622 0.256 0.417 7e-3 0.755-0.551 0.755-1.19 0-1.67 5.82-0.542 6.51v0.0088c0.386 0.239 4.72 0.424 9.62 0.409l8.91-0.0267 0.427-8.14zm174 0.0444c-5.92-0.152-8.84 0.0274-8.84 0.542 0 0.424-0.438 0.773-0.969 0.773-1.09 0-1.37 5.87-0.32 6.59h0.0181c0.884 0.605 17.4 0.406 18.4-0.222 0.445-0.295 0.748-2.08 0.676-3.99l-0.133-3.47zm-21.2 7.15c-0.399 0-0.729 0.321-0.729 0.72 0 0.399 0.33 0.729 0.729 0.729 0.399 0 0.729-0.33 0.729-0.729 0-0.399-0.33-0.72-0.729-0.72z" fill="#feffff" stroke-width="2.27"/></svg>
