<?xml version="1.0" encoding="UTF-8" standalone="no"?>
<!-- Created with Inkscape (http://www.inkscape.org/) -->

<svg
   xmlns:dc="http://purl.org/dc/elements/1.1/"
   xmlns:cc="http://creativecommons.org/ns#"
   xmlns:rdf="http://www.w3.org/1999/02/22-rdf-syntax-ns#"
   xmlns:svg="http://www.w3.org/2000/svg"
   xmlns="http://www.w3.org/2000/svg"
   xmlns:sodipodi="http://sodipodi.sourceforge.net/DTD/sodipodi-0.dtd"
   xmlns:inkscape="http://www.inkscape.org/namespaces/inkscape"
   width="32"
   height="32"
   viewBox="0 0 8.4666659 8.4666659"
   version="1.1"
   id="svg3355"
   inkscape:version="0.92.3 (2405546, 2018-03-11)"
   sodipodi:docname="family.svg">
  <defs
     id="defs3349" />
  <sodipodi:namedview
     id="base"
     pagecolor="#ffffff"
     bordercolor="#666666"
     borderopacity="1.0"
     inkscape:pageopacity="0.0"
     inkscape:pageshadow="2"
     inkscape:zoom="11.2"
     inkscape:cx="10.521571"
     inkscape:cy="17.807421"
     inkscape:document-units="mm"
     inkscape:current-layer="g4066"
     showgrid="true"
     units="px"
     inkscape:window-width="1366"
     inkscape:window-height="705"
     inkscape:window-x="-8"
     inkscape:window-y="-8"
     inkscape:window-maximized="1">
    <inkscape:grid
       type="xygrid"
       id="grid3983"
       empspacing="4" />
  </sodipodi:namedview>
  <metadata
     id="metadata3352">
    <rdf:RDF>
      <cc:Work
         rdf:about="">
        <dc:format>image/svg+xml</dc:format>
        <dc:type
           rdf:resource="http://purl.org/dc/dcmitype/StillImage" />
        <dc:title></dc:title>
      </cc:Work>
    </rdf:RDF>
  </metadata>
  <g
     inkscape:label="Capa 1"
     inkscape:groupmode="layer"
     id="layer1"
     transform="translate(0,-288.53334)">
    <g
       id="g4066"
       transform="matrix(0.01580004,0,0,0.01580004,0.09434556,288.62563)">
      <path
         id="path4019"
         d="m 242.26953,78.453125 c -8.54297,0 -16.57422,3.328125 -22.61328,9.371094 -6.04297,6.039062 -9.37109,14.070311 -9.36719,22.613281 0,17.98828 -6.49609,34.99609 -18.35547,48.38281 0.76172,-3.67187 1.16407,-7.47265 1.16407,-11.36719 0,-30.86328 -25.10547,-55.972651 -55.96875,-55.972651 -30.86328,0 -55.97266,25.109371 -55.97266,55.972651 0,3.89454 0.402344,7.69532 1.164062,11.36719 C 70.914062,145.91406 63.96875,128.97656 63.96875,110.4375 63.96875,92.800781 49.621094,78.453125 31.984375,78.453125 14.347656,78.453125 0,92.800781 0,110.4375 0,163.66406 30.511719,211.56641 78.28125,234.28516 v 102.69531 c 0,0.0508 -0.0078,0.10156 -0.0078,0.15625 v 131.11399 c 0,5.51953 4.476562,9.99218 9.996093,9.99218 5.519531,0 9.992188,-4.47265 9.992188,-9.99218 v -121.1179 h 90.429689 v 114.62891 c 0,5.51953 4.47656,9.99609 9.99609,9.99609 5.51953,0 9.99609,-4.47656 9.99609,-9.99609 V 227.36719 c 9.20313,-5.64844 17.71485,-12.35938 25.36328,-20.00782 25.92969,-25.92968 40.20704,-60.34765 40.20704,-96.92187 0,-17.636719 -14.34766,-31.984375 -31.98438,-31.984375 z M 137.12891,111.46875 c 19.83984,0 35.98046,16.14063 35.98046,35.98437 0,19.83985 -16.14062,35.98047 -35.98046,35.98047 -19.84375,0 -35.98438,-16.14062 -35.98438,-35.98047 0,-19.84374 16.14063,-35.98437 35.98438,-35.98437 z m 82.78515,81.75391 c -7.74219,7.73828 -16.51562,14.35937 -26.08203,19.67968 -3.17187,1.76172 -5.14062,5.10547 -5.14062,8.73438 v 105.5039 H 98.269531 v -99.33593 c 0,-4.03125 -2.421875,-7.66797 -6.140625,-9.22266 C 48.304688,200.27344 19.988281,157.82422 19.988281,110.4375 c 0,-6.61328 5.378907,-11.992188 11.992188,-11.992188 6.613281,0 11.996093,5.382818 11.996093,11.992188 0,51.36328 41.789063,93.14844 93.148438,93.14844 h 0.004 c 24.83984,0 48.21875,-9.69532 65.83593,-27.3086 17.61328,-17.60937 27.3125,-40.99218 27.3125,-65.83984 0,-3.20312 1.2461,-6.21484 3.51172,-8.48047 2.26563,-2.265624 5.27735,-3.511718 8.48047,-3.511718 6.61328,0 11.99219,5.378908 11.99609,11.992188 0,31.23437 -12.20312,60.63281 -34.35156,82.78516 z"
         inkscape:connector-curvature="0"
         sodipodi:nodetypes="scccssscssscsssssccssscsssssssssccsccscssssssscsccc"
         style="stroke:none;stroke-opacity:0;fill:#000000;fill-opacity:1" />
      <path
         id="path4023"
         d="m 143.59375,387.71875 c -5.51953,0 -9.99609,4.47656 -9.99609,9.99609 v 70.79759 c 0,5.51953 4.47656,9.99609 9.99609,9.99609 5.51953,0 9.99219,-4.47656 9.99219,-9.99609 v -70.79759 c 0,-5.51953 -4.47266,-9.99609 -9.99219,-9.99609 z"
         inkscape:connector-curvature="0"
         sodipodi:nodetypes="sssssss"
         style="stroke:none;stroke-opacity:0;fill:#000000;fill-opacity:1" />
      <path
         id="path4025"
         d="m 445.85167,215.21484 c -7.34752,0 -14.25829,2.86241 -19.45228,8.0564 -5.19736,5.19736 -8.05641,12.10476 -8.05641,19.45228 0,15.47112 -5.58371,30.09896 -15.78355,41.61242 0.65176,-3.15805 0.9978,-6.42697 0.9978,-9.77653 0,-26.54447 -21.59235,-48.14019 -48.13683,-48.14019 -26.54446,0 -48.14018,21.59572 -48.14018,48.14019 0,3.34955 0.34604,6.61848 1.00117,9.77653 -9.81013,-11.10023 -15.78356,-25.6676 -15.78356,-41.61242 0,-15.16874 -12.33994,-27.50868 -27.50868,-27.50868 -15.16875,0 -27.50868,12.33994 -27.50868,27.50868 0,10.48206 43.56914,86.35012 57.97159,86.35012 2.18564,13.75797 -39.64255,-72.46616 -40.78035,-86.35012 0,-5.68785 4.62958,-10.31744 10.31744,-10.31744 5.68785,0.003 10.31407,4.62959 10.31407,10.31744 0,44.17583 35.94136,80.11383 80.11383,80.11383 h 0.003 c 21.36391,0 41.47132,-8.34197 56.62327,-23.4872 15.14858,-15.14523 23.49055,-35.25599 23.49055,-56.62999 0,-2.75154 1.07173,-5.34181 3.02032,-7.2904 1.94859,-1.94858 4.53886,-3.02367 7.29376,-3.02367 5.68786,0 10.31408,4.62958 10.31743,10.31743 -0.003,26.86363 -10.49549,52.14824 -29.54798,71.20072 -6.65207,6.65544 -14.20116,12.35001 -22.42891,16.92248 -2.72802,1.51855 -4.42128,4.39439 -4.42128,7.5155 v 90.74033 h -77.76888 v -85.43547 c 0,-3.46714 -2.08298,-6.59496 -5.28135,-7.9321 -86.98732,-109.0087 -72.58487,-65.80137 -11.90989,13.50237 v 88.32813 c -0.003,0.0437 -0.007,0.0873 -0.007,0.13438 v 23.94747 c 0,4.74716 3.84677,8.59395 8.59393,8.59395 4.74716,0 8.59731,-3.84679 8.59731,-8.59395 v -15.35352 h 77.77551 v 15.35352 c 0,4.74716 3.85015,8.59395 8.59731,8.59395 4.74716,0 8.59395,-3.84679 8.59395,-8.59395 V 343.2908 c 7.91865,-4.85803 15.23929,-10.63325 21.81745,-17.21141 22.29789,-22.29788 34.58071,-51.90298 34.58071,-83.35923 0,-15.16538 -12.33993,-27.50532 -27.50532,-27.50532 z m -90.43127,28.39563 c 17.06359,0 30.94559,13.882 30.94559,30.94894 0,17.06358 -13.882,30.94558 -30.94559,30.94558 -17.06357,0 -30.94558,-13.882 -30.94558,-30.94558 0,-17.06694 13.88201,-30.94894 30.94558,-30.94894 z"
         inkscape:connector-curvature="0"
         sodipodi:nodetypes="csscssscssscccssscscscccsccscccssssccssscssccsssss"
         style="stroke-width:0.86006618;stroke:none;stroke-opacity:0;fill:#000000;fill-opacity:1" />
      <path
         id="path4029"
         d="m 447.76953,129.74219 c 5.51953,0 9.99609,-4.47266 9.99609,-9.99219 v -13.80469 c 0,-5.51953 -4.47656,-9.996091 -9.99609,-9.996091 -5.51953,0 -9.99609,4.476561 -9.99609,9.996091 V 119.75 c 0,5.51953 4.47656,9.99219 9.99609,9.99219 z m 0,0"
         inkscape:connector-curvature="0"
         style="stroke:none;stroke-opacity:0;fill:#000000;fill-opacity:1" />
      <path
         id="path4031"
         d="m 447.76953,195.89844 c 5.51953,0 9.99609,-4.47657 9.99609,-9.9961 v -13.80468 c 0,-5.51563 -4.47656,-9.99219 -9.99609,-9.99219 -5.51953,0 -9.99609,4.47656 -9.99609,9.99219 v 13.80468 c 0,5.51953 4.47656,9.9961 9.99609,9.9961 z m 0,0"
         inkscape:connector-curvature="0"
         style="stroke:none;stroke-opacity:0;fill:#000000;fill-opacity:1" />
      <path
         id="path4033"
         d="M 473.94531,155.91797 H 487.75 c 5.51953,0 9.99219,-4.47266 9.99219,-9.99219 0,-5.51953 -4.47266,-9.99609 -9.99219,-9.99609 h -13.80469 c -5.51953,0 -9.99609,4.47656 -9.99609,9.99609 0,5.51953 4.47656,9.99219 9.99609,9.99219 z m 0,0"
         inkscape:connector-curvature="0"
         style="stroke:none;stroke-opacity:0;fill:#000000;fill-opacity:1" />
      <path
         id="path4035"
         d="m 407.78906,155.91797 h 13.80469 c 5.51953,0 9.99609,-4.47266 9.99609,-9.99219 0,-5.51953 -4.47656,-9.99609 -9.99609,-9.99609 h -13.80469 c -5.51953,0 -9.99609,4.47656 -9.99609,9.99609 0,5.51953 4.47656,9.99219 9.99609,9.99219 z m 0,0"
         inkscape:connector-curvature="0"
         style="stroke:none;stroke-opacity:0;fill:#000000;fill-opacity:1" />
      <path
         id="path4037"
         d="m 343.82422,33.792969 c 5.51953,0 9.99219,-4.476563 9.99219,-9.996094 V 9.996094 C 353.81641,4.476562 349.34375,0 343.82422,0 c -5.51953,0 -9.9961,4.476562 -9.9961,9.996094 v 13.800781 c 0,5.519531 4.47266,9.996094 9.9961,9.996094 z m 0,0"
         inkscape:connector-curvature="0"
         style="stroke:none;stroke-opacity:0;fill:#000000;fill-opacity:1" />
      <path
         id="path4039"
         d="m 343.82422,99.949219 c 5.51953,0 9.99219,-4.476563 9.99219,-9.996094 V 76.148438 c 0,-5.519532 -4.47266,-9.996094 -9.99219,-9.996094 -5.51953,0 -9.9961,4.476562 -9.9961,9.996094 v 13.804687 c 0,5.519531 4.47266,9.996094 9.9961,9.996094 z m 0,0"
         inkscape:connector-curvature="0"
         style="stroke:none;stroke-opacity:0;fill:#000000;fill-opacity:1" />
      <path
         id="path4041"
         d="m 369.99609,59.96875 h 13.80469 c 5.51953,0 9.99609,-4.476562 9.99609,-9.996094 0,-5.519531 -4.47656,-9.992187 -9.99609,-9.992187 h -13.80469 c -5.51953,0 -9.99218,4.472656 -9.99218,9.992187 0,5.519532 4.47265,9.996094 9.99218,9.996094 z m 0,0"
         inkscape:connector-curvature="0"
         style="stroke:none;stroke-opacity:0;fill:#000000;fill-opacity:1" />
      <path
         id="path4043"
         d="m 303.84375,59.96875 h 13.80469 c 5.51953,0 9.99609,-4.476562 9.99609,-9.996094 0,-5.519531 -4.47656,-9.992187 -9.99609,-9.992187 h -13.80469 c -5.51953,0 -9.99609,4.472656 -9.99609,9.992187 0,5.519532 4.47656,9.996094 9.99609,9.996094 z m 0,0"
         inkscape:connector-curvature="0"
         style="stroke:none;stroke-opacity:0;fill:#000000;fill-opacity:1" />
    </g>
  </g>
</svg>
