<?xml version="1.0" encoding="UTF-8"?>
<svg width="32" height="32" version="1.1" viewBox="0 0 8.4667 8.4667" xmlns="http://www.w3.org/2000/svg" xmlns:cc="http://creativecommons.org/ns#" xmlns:dc="http://purl.org/dc/elements/1.1/" xmlns:rdf="http://www.w3.org/1999/02/22-rdf-syntax-ns#">
 <metadata>
  <rdf:RDF>
   <cc:Work rdf:about="">
    <dc:format>image/svg+xml</dc:format>
    <dc:type rdf:resource="http://purl.org/dc/dcmitype/StillImage"/>
    <dc:title/>
   </cc:Work>
  </rdf:RDF>
 </metadata>
 <g transform="translate(0 -288.53)">
  <g transform="matrix(.0158 0 0 .0158 .094346 288.63)">
   <path transform="matrix(16.746 0 0 16.746 -5.9712 -5.8411)" d="m22.105 0c-0.35485 0-0.64453 0.28773-0.64453 0.64258v0.88672c0 0.35485 0.28943 0.64258 0.64453 0.64258 0.35485 0 0.64062-0.28773 0.64062-0.64258v-0.88672c0-0.35485-0.28577-0.64258-0.64062-0.64258zm-2.5703 2.5703c-0.35485 0-0.64453 0.28773-0.64453 0.64258 0 0.35485 0.28968 0.64258 0.64453 0.64258h0.88672c0.35485 0 0.64258-0.28773 0.64258-0.64258 0-0.35485-0.28772-0.64258-0.64258-0.64258h-0.88672zm4.252 0c-0.35485 0-0.64258 0.28773-0.64258 0.64258 0 0.35485 0.28773 0.64258 0.64258 0.64258h0.88672c0.35485 0 0.64258-0.28773 0.64258-0.64258 0-0.35485-0.28773-0.64258-0.64258-0.64258h-0.88672zm-1.6816 1.6836c-0.35485 0-0.64453 0.28773-0.64453 0.64258v0.88672c0 0.35485 0.28943 0.64258 0.64453 0.64258 0.35485 0 0.64062-0.28773 0.64062-0.64258v-0.88672c0-0.35485-0.28577-0.64258-0.64062-0.64258zm6.6816 1.9141c-0.35485 0-0.64258 0.28773-0.64258 0.64258v0.88867c0 0.35485 0.28773 0.64258 0.64258 0.64258s0.64258-0.28773 0.64258-0.64258v-0.88867c0-0.35485-0.28773-0.64258-0.64258-0.64258zm-26.73 0.12891c-1.1339 0-2.0566 0.92277-2.0566 2.0566 0 3.422 1.9621 6.5023 5.0332 7.9629v6.6016c0 0.003266-0.0019531 0.006249-0.0019531 0.009765v8.4297c0 0.35485 0.28968 0.64258 0.64453 0.64258 0.35485 0 0.64062-0.28773 0.64062-0.64258v-7.7871h5.8145v7.3691c0 0.35485 0.28773 0.64453 0.64258 0.64453 0.35485 0 0.64258-0.28968 0.64258-0.64453v-15.068c0.59167-0.36314 1.1391-0.79539 1.6309-1.2871 1.667-1.667 2.5859-3.8791 2.5859-6.2305 0-1.1339-0.92277-2.0566-2.0566-2.0566-0.54923 0-1.0668 0.21501-1.4551 0.60352-0.3885 0.38825-0.60181 0.90389-0.60156 1.4531 0 1.1565-0.41724 2.2507-1.1797 3.1113 0.048971-0.23607 0.074218-0.48009 0.074218-0.73047 0-1.9842-1.6134-3.5996-3.5977-3.5996-1.9842 0-3.5996 1.6154-3.5996 3.5996 0 0.25038 0.027201 0.4944 0.076172 0.73047-0.73331-0.82975-1.1797-1.9194-1.1797-3.1113 0-1.1339-0.92277-2.0566-2.0566-2.0566zm0 1.2852c0.42517 0 0.77148 0.34657 0.77148 0.77148 0 3.3022 2.6864 5.9883 5.9883 5.9883 1.597 0 3.0998-0.6235 4.2324-1.7559 1.1324-1.1321 1.7559-2.635 1.7559-4.2324 0-0.20593 0.080905-0.39926 0.22656-0.54492 0.14566-0.14566 0.33899-0.22656 0.54492-0.22656 0.42517 0 0.77123 0.34631 0.77148 0.77148 0 2.0081-0.78505 3.8981-2.209 5.3223-0.49775 0.4975-1.0627 0.92358-1.6777 1.2656-0.20392 0.11326-0.33008 0.32724-0.33008 0.56055v6.7832h-5.8125v-6.3867c0-0.25917-0.15545-0.49185-0.39453-0.5918-2.8175-1.1771-4.6387-3.9066-4.6387-6.9531 0-0.42517 0.34631-0.77148 0.77148-0.77148zm6.7598 0.83789c1.2755 0 2.3125 1.0387 2.3125 2.3145 0 1.2755-1.037 2.3125-2.3125 2.3125-1.2758 0-2.3145-1.037-2.3145-2.3125 0-1.2758 1.0387-2.3145 2.3145-2.3145zm17.4 0.31836c-0.35485 0-0.64258 0.28773-0.64258 0.64258 0 0.35485 0.28772 0.64258 0.64258 0.64258h0.88672c0.35485 0 0.64258-0.28773 0.64258-0.64258 0-0.35485-0.28773-0.64258-0.64258-0.64258h-0.88672zm4.2539 0c-0.35485 0-0.64258 0.28773-0.64258 0.64258 0 0.35485 0.28773 0.64258 0.64258 0.64258h0.88672c0.35485 0 0.64258-0.28773 0.64258-0.64258 0-0.35485-0.28772-0.64258-0.64258-0.64258h-0.88672zm-1.6836 1.6836c-0.35485 0-0.64258 0.28798-0.64258 0.64258v0.88672c0 0.35485 0.28773 0.64258 0.64258 0.64258s0.64258-0.28773 0.64258-0.64258v-0.88672c0-0.3546-0.28773-0.64258-0.64258-0.64258zm-11.75 5.1387c-0.97499 0-1.7676 0.79454-1.7676 1.7695 1e-6 2.0223 0.78912 3.9239 2.2227 5.3574 0.42291 0.42291 0.89388 0.79492 1.4023 1.1055l-0.001953 6.1055c-1.79e-4 0.002806 0 0.006734 0 0.009765v1.5391c0 0.3052 0.24754 0.55273 0.55273 0.55273s0.6025-0.27293 0.60156-0.57812v-0.98633l5.6543-0.019531v0.98633c0 0.3052 0.24754 0.55273 0.55273 0.55273 0.30519-1e-6 0.55274-0.24754 0.55274-0.55273v-7.6074c0.50909-0.31232 0.97943-0.68451 1.4023-1.1074 1.4335-1.4335 2.2227-3.3351 2.2227-5.3574 0-0.97499-0.79454-1.7695-1.7695-1.7695-0.47238 0-0.91412 0.18366-1.248 0.51758-0.33414 0.33414-0.51953 0.77958-0.51953 1.252 0 0.99464-0.35792 1.9336-1.0137 2.6738 0.041902-0.20303 0.0625-0.41356 0.0625-0.62891 0-1.7066-1.3852-3.0957-3.0918-3.0957-1.7066 0-3.0957 1.3892-3.0957 3.0957 0 0.21534 0.020382 0.42587 0.0625 0.62891-0.65575-0.7402-1.0137-1.6792-1.0137-2.6738 0-0.47237-0.18539-0.91781-0.51953-1.252-0.33392-0.33392-0.77567-0.51758-1.248-0.51758zm0 1.1035c0.17711 0 0.34347 0.071991 0.46875 0.19727 0.12528 0.12528 0.19336 0.29185 0.19336 0.46875 0 1.3741 0.53586 2.665 1.5098 3.6387 0.97412 0.97369 2.2673 1.5098 3.6406 1.5098h0.001953c1.3735 0 2.6645-0.53608 3.6387-1.5098 0.97391-0.97369 1.5098-2.2645 1.5098-3.6387 0-0.1769 0.068084-0.34348 0.19336-0.46875s0.29164-0.19727 0.46875-0.19727c0.36567 2e-6 0.66582 0.30034 0.66602 0.66602-1.79e-4 1.7271-0.67745 3.3513-1.9023 4.5762-0.42766 0.42788-0.91049 0.79392-1.4395 1.0879-0.17539 0.097628-0.28516 0.28372-0.28516 0.48438v5.832l-5.6543 0.019531v-5.832c0-0.2229-0.13399-0.42329-0.33594-0.50586-0.52528-0.29057-1.0098-0.65806-1.4375-1.0859-1.2249-1.2249-1.9002-2.8491-1.9004-4.5762 2.39e-4 -0.36567 0.29839-0.66601 0.66406-0.66602zm5.7773 0.72852a1.9725 1.9725 0 0 1 0.027344 0 1.9725 1.9725 0 0 1 1.9727 1.9727 1.9725 1.9725 0 0 1-1.9727 1.9727 1.9725 1.9725 0 0 1-1.9707-1.9727 1.9725 1.9725 0 0 1 1.9434-1.9727zm-13.582 7.5332c-0.35485 0-0.64258 0.28773-0.64258 0.64258v4.5527c0 0.35485 0.28773 0.64258 0.64258 0.64258s0.64258-0.28773 0.64258-0.64258v-4.5527c0-0.35485-0.28773-0.64258-0.64258-0.64258z"/>
  </g>
 </g>
</svg>
