<svg width="32" height="32" version="1.1" viewBox="0 0 8.47 8.47" xmlns="http://www.w3.org/2000/svg"><title>Icon of family playing</title><g transform="translate(-.00525 -289)"><g transform="matrix(.0158 0 0 .0158 .0943 289)"><path transform="matrix(16.7,0,0,16.7,-5.97,-5.84)" d="m22.1 0c-0.355 0-0.645 0.288-0.645 0.643v0.887c0 0.355 0.289 0.643 0.645 0.643 0.355 0 0.641-0.288 0.641-0.643v-0.887c0-0.355-0.286-0.643-0.641-0.643zm-2.57 2.57c-0.355 0-0.645 0.288-0.645 0.643s0.29 0.643 0.645 0.643h0.887c0.355 0 0.643-0.288 0.643-0.643s-0.288-0.643-0.643-0.643zm4.25 0c-0.355 0-0.643 0.288-0.643 0.643s0.288 0.643 0.643 0.643h0.887c0.355 0 0.643-0.288 0.643-0.643s-0.288-0.643-0.643-0.643zm-1.68 1.68c-0.355 0-0.645 0.288-0.645 0.643v0.887c0 0.355 0.289 0.643 0.645 0.643 0.355 0 0.641-0.288 0.641-0.643v-0.887c0-0.355-0.286-0.643-0.641-0.643zm6.68 1.91c-0.355 0-0.643 0.288-0.643 0.643v0.889c0 0.355 0.288 0.643 0.643 0.643s0.643-0.288 0.643-0.643v-0.889c0-0.355-0.288-0.643-0.643-0.643zm-26.7 0.129c-1.13 0-2.06 0.923-2.06 2.06 0 3.42 1.96 6.5 5.03 7.96v6.6c0 0.0033-0.00195 0.0062-0.00195 0.0098v8.43c0 0.355 0.29 0.643 0.645 0.643s0.641-0.288 0.641-0.643v-7.79h5.81v7.37c0 0.355 0.288 0.645 0.643 0.645s0.643-0.29 0.643-0.645v-15.1c0.592-0.363 1.14-0.795 1.63-1.29 1.67-1.67 2.59-3.88 2.59-6.23 0-1.13-0.923-2.06-2.06-2.06-0.549 0-1.07 0.215-1.46 0.604-0.388 0.388-0.602 0.904-0.602 1.45 0 1.16-0.417 2.25-1.18 3.11 0.049-0.236 0.0742-0.48 0.0742-0.73 0-1.98-1.61-3.6-3.6-3.6-1.98 0-3.6 1.62-3.6 3.6 0 0.25 0.0272 0.494 0.0762 0.73-0.733-0.83-1.18-1.92-1.18-3.11 0-1.13-0.923-2.06-2.06-2.06zm0 1.29c0.425 0 0.771 0.347 0.771 0.771 0 3.3 2.69 5.99 5.99 5.99 1.6 0 3.1-0.624 4.23-1.76 1.13-1.13 1.76-2.64 1.76-4.23 0-0.206 0.0809-0.399 0.227-0.545 0.146-0.146 0.339-0.227 0.545-0.227 0.425 0 0.771 0.346 0.771 0.771 0 2.01-0.785 3.9-2.21 5.32-0.498 0.498-1.06 0.924-1.68 1.27-0.204 0.113-0.33 0.327-0.33 0.561v6.78h-5.81v-6.39c0-0.259-0.155-0.492-0.395-0.592-2.82-1.18-4.64-3.91-4.64-6.95 0-0.425 0.346-0.771 0.771-0.771zm6.76 0.838c1.28 0 2.31 1.04 2.31 2.31 0 1.28-1.04 2.31-2.31 2.31-1.28 0-2.31-1.04-2.31-2.31 0-1.28 1.04-2.31 2.31-2.31zm17.4 0.318c-0.355 0-0.643 0.288-0.643 0.643s0.288 0.643 0.643 0.643h0.887c0.355 0 0.643-0.288 0.643-0.643s-0.288-0.643-0.643-0.643zm4.25 0c-0.355 0-0.643 0.288-0.643 0.643s0.288 0.643 0.643 0.643h0.887c0.355 0 0.643-0.288 0.643-0.643s-0.288-0.643-0.643-0.643zm-1.68 1.68c-0.355 0-0.643 0.288-0.643 0.643v0.887c0 0.355 0.288 0.643 0.643 0.643s0.643-0.288 0.643-0.643v-0.887c0-0.355-0.288-0.643-0.643-0.643zm-11.8 5.14c-0.975 0-1.77 0.795-1.77 1.77 1e-6 2.02 0.789 3.92 2.22 5.36 0.423 0.423 0.894 0.795 1.4 1.11l-2e-3 6.11c-1.79e-4 0.0028 0 0.0067 0 0.0098v1.54c0 0.305 0.248 0.553 0.553 0.553s0.602-0.273 0.602-0.578v-0.986l5.65-0.0195v0.986c0 0.305 0.248 0.553 0.553 0.553 0.305-1e-6 0.553-0.248 0.553-0.553v-7.61c0.509-0.312 0.979-0.685 1.4-1.11 1.43-1.43 2.22-3.34 2.22-5.36 0-0.975-0.795-1.77-1.77-1.77-0.472 0-0.914 0.184-1.25 0.518-0.334 0.334-0.52 0.78-0.52 1.25 0 0.995-0.358 1.93-1.01 2.67 0.0419-0.203 0.0625-0.414 0.0625-0.629 0-1.71-1.39-3.1-3.09-3.1s-3.1 1.39-3.1 3.1c0 0.215 0.0204 0.426 0.0625 0.629-0.656-0.74-1.01-1.68-1.01-2.67 0-0.472-0.185-0.918-0.52-1.25-0.334-0.334-0.776-0.518-1.25-0.518zm0 1.1c0.177 0 0.343 0.072 0.469 0.197s0.193 0.292 0.193 0.469c0 1.37 0.536 2.66 1.51 3.64 0.974 0.974 2.27 1.51 3.64 1.51h2e-3c1.37 0 2.66-0.536 3.64-1.51 0.974-0.974 1.51-2.26 1.51-3.64 0-0.177 0.0681-0.343 0.193-0.469 0.125-0.125 0.292-0.197 0.469-0.197 0.366 2e-6 0.666 0.3 0.666 0.666-1.79e-4 1.73-0.677 3.35-1.9 4.58-0.428 0.428-0.91 0.794-1.44 1.09-0.175 0.0976-0.285 0.284-0.285 0.484v5.83l-5.65 0.0195v-5.83c0-0.223-0.134-0.423-0.336-0.506-0.525-0.291-1.01-0.658-1.44-1.09-1.22-1.22-1.9-2.85-1.9-4.58 2.39e-4 -0.366 0.298-0.666 0.664-0.666zm5.78 0.729a1.97 1.97 0 0 1 0.0273 0 1.97 1.97 0 0 1 1.97 1.97 1.97 1.97 0 0 1-1.97 1.97 1.97 1.97 0 0 1-1.97-1.97 1.97 1.97 0 0 1 1.94-1.97zm-13.6 7.53c-0.355 0-0.643 0.288-0.643 0.643v4.55c0 0.355 0.288 0.643 0.643 0.643s0.643-0.288 0.643-0.643v-4.55c0-0.355-0.288-0.643-0.643-0.643z"/></g></g></svg>
