<?xml version="1.0" encoding="UTF-8"?>
<svg id="instagramc" width="22" height="22" version="1.1" viewBox="0 0 22 22" xml:space="preserve" xmlns="http://www.w3.org/2000/svg" xmlns:cc="http://creativecommons.org/ns#" xmlns:dc="http://purl.org/dc/elements/1.1/" xmlns:rdf="http://www.w3.org/1999/02/22-rdf-syntax-ns#"><metadata id="instagramd"><rdf:RDF><cc:Work rdf:about=""><dc:format>image/svg+xml</dc:format><dc:type rdf:resource="http://purl.org/dc/dcmitype/StillImage"/><dc:title/></cc:Work></rdf:RDF></metadata>
<path id="instagramf" d="m6.4531 0c-3.5525 0-6.4531 2.9018-6.4531 6.4551v9.0918c0 3.5525 2.9018 6.4531 6.4551 6.4531h9.0918c3.5525 0 6.4531-2.9018 6.4531-6.4551v-9.0918c0-3.5525-2.9018-6.4531-6.4551-6.4531h-9.0918zm0 2h9.0918c2.4727 0 4.4551 1.9816 4.4551 4.4531v9.0918c0 2.4727-1.9816 4.4551-4.4531 4.4551h-9.0918c-2.4727 0-4.4551-1.9816-4.4551-4.4531v-9.0918c0-2.4727 1.9816-4.4551 4.4531-4.4551z" color="#000000" color-rendering="auto" dominant-baseline="auto" image-rendering="auto" shape-rendering="auto" solid-color="#000000" stop-color="#000000" style="font-feature-settings:normal;font-variant-alternates:normal;font-variant-caps:normal;font-variant-east-asian:normal;font-variant-ligatures:normal;font-variant-numeric:normal;font-variant-position:normal;font-variation-settings:normal;inline-size:0;isolation:auto;mix-blend-mode:normal;shape-margin:0;shape-padding:0;text-decoration-color:#000000;text-decoration-line:none;text-decoration-style:solid;text-indent:0;text-orientation:mixed;text-transform:none;white-space:normal"/>
<path id="instagramg" d="m11 5c-3.3019 0-6 2.6981-6 6 0 3.3019 2.6981 6 6 6 3.3019 0 6-2.6981 6-6 0-3.3019-2.6981-6-6-6zm0 2c2.221 0 4 1.779 4 4 0 2.221-1.779 4-4 4-2.221 0-4-1.779-4-4 0-2.221 1.779-4 4-4z" color="#000000" color-rendering="auto" dominant-baseline="auto" image-rendering="auto" shape-rendering="auto" solid-color="#000000" stop-color="#000000" style="font-feature-settings:normal;font-variant-alternates:normal;font-variant-caps:normal;font-variant-east-asian:normal;font-variant-ligatures:normal;font-variant-numeric:normal;font-variant-position:normal;font-variation-settings:normal;inline-size:0;isolation:auto;mix-blend-mode:normal;shape-margin:0;shape-padding:0;text-decoration-color:#000000;text-decoration-line:none;text-decoration-style:solid;text-indent:0;text-orientation:mixed;text-transform:none;white-space:normal"/>
<path id="instagramh" d="m17.818 5.091a0.909 0.909 0 0 1-0.909 0.909 0.909 0.909 0 0 1-0.909-0.909 0.909 0.909 0 0 1 0.909-0.909 0.909 0.909 0 0 1 0.909 0.909z"/>
</svg>
