<svg enable-background="new 0 0 50 50" version="1.1" viewBox="0 0 50 50" xml:space="preserve" xmlns="http://www.w3.org/2000/svg"><title>Twitter</title>

<path d="m49 11.1c-1.77 0.784-3.66 1.31-5.66 1.55 2.04-1.22 3.6-3.15 4.33-5.45-1.9 1.13-4.01 1.95-6.26 2.39-1.8-1.92-4.35-3.11-7.19-3.11-5.44 0-9.85 4.41-9.85 9.85 0 0.771 0.088 1.52 0.257 2.24-8.18-0.412-15.4-4.33-20.3-10.3-0.848 1.46-1.33 3.15-1.33 4.95 0 3.42 1.74 6.43 4.38 8.2-1.62-0.051-3.13-0.495-4.46-1.23v0.125c0 4.77 3.39 8.75 7.9 9.66-0.824 0.227-1.69 0.346-2.59 0.346-0.636 0-1.25-0.062-1.86-0.178 1.26 3.91 4.89 6.76 9.2 6.84-3.37 2.64-7.61 4.21-12.2 4.21-0.797 0-1.58-0.044-2.35-0.137 4.36 2.8 9.53 4.42 15.1 4.42 18.1 0 28-15 28-28 0-0.429-0.011-0.856-0.029-1.28 1.92-1.39 3.59-3.12 4.91-5.1z" fill="none" stroke="#000" stroke-linecap="round" stroke-linejoin="round" stroke-miterlimit="10" stroke-width="2"/>
</svg>
