<svg version="1.1" viewBox="0 0 22 22" xml:space="preserve" xmlns="http://www.w3.org/2000/svg"><title>Instagram</title>


<path d="m6.45 0c-3.21-0.0684-6.16 2.6-6.42 5.8-0.0744 2.75-0.0138 5.5-0.0334 8.25-0.0257 1.55-0.0459 3.19 0.781 4.57 1.17 2.21 3.69 3.56 6.17 3.38 3.03-0.012 6.06 0.0244 9.09-0.0189 3.2-0.181 5.94-3.06 5.96-6.27-0.0071-3.25 0.0252-6.5-0.0168-9.75-0.181-3.2-3.06-5.94-6.27-5.96-3.09-0.00492-6.17-7.17e-4 -9.26-0.00212zm0 2c3.18 0.0146 6.37-0.0296 9.55 0.0229 2.33 0.173 4.2 2.42 4 4.74-0.0145 3.08 0.0295 6.16-0.0229 9.24-0.173 2.33-2.42 4.2-4.74 4-3.08-0.0145-6.16 0.0295-9.24-0.0229-2.33-0.173-4.2-2.42-4-4.74 0.0145-3.08-0.0295-6.16 0.0229-9.24 0.182-2.22 2.2-4.04 4.43-4z" style="font-feature-settings:normal;font-variant-alternates:normal;font-variant-caps:normal;font-variant-east-asian:normal;font-variant-ligatures:normal;font-variant-numeric:normal;font-variant-position:normal;font-variation-settings:normal;inline-size:0;isolation:auto;mix-blend-mode:normal;shape-margin:0;shape-padding:0;text-decoration-color:#000000;text-decoration-line:none;text-decoration-style:solid;text-indent:0;text-orientation:mixed;text-transform:none;white-space:normal"/><path d="m11 5c-3.04-0.0668-5.81 2.51-5.98 5.54-0.295 2.97 1.98 5.9 4.92 6.37 2.88 0.582 5.97-1.31 6.79-4.13 0.919-2.74-0.511-5.98-3.13-7.19-0.806-0.391-1.7-0.595-2.6-0.594zm0 2c2.29-0.0769 4.29 2.14 3.98 4.41-0.158 2.29-2.56 4.04-4.79 3.51-2.26-0.388-3.75-2.95-3.01-5.11 0.484-1.65 2.11-2.83 3.82-2.81z" style="font-feature-settings:normal;font-variant-alternates:normal;font-variant-caps:normal;font-variant-east-asian:normal;font-variant-ligatures:normal;font-variant-numeric:normal;font-variant-position:normal;font-variation-settings:normal;inline-size:0;isolation:auto;mix-blend-mode:normal;shape-margin:0;shape-padding:0;text-decoration-color:#000000;text-decoration-line:none;text-decoration-style:solid;text-indent:0;text-orientation:mixed;text-transform:none;white-space:normal"/><path d="m17.8 5.09c0.0492 0.86-1.21 1.25-1.66 0.514-0.522-0.676 0.281-1.71 1.06-1.37 0.352 0.125 0.599 0.48 0.595 0.853z"/>
</svg>
