<?xml version="1.0" encoding="UTF-8" standalone="no"?>
<svg
   xmlns:dc="http://purl.org/dc/elements/1.1/"
   xmlns:cc="http://creativecommons.org/ns#"
   xmlns:rdf="http://www.w3.org/1999/02/22-rdf-syntax-ns#"
   xmlns:svg="http://www.w3.org/2000/svg"
   xmlns="http://www.w3.org/2000/svg"
   xmlns:sodipodi="http://sodipodi.sourceforge.net/DTD/sodipodi-0.dtd"
   xmlns:inkscape="http://www.inkscape.org/namespaces/inkscape"
   width="32"
   height="32"
   viewBox="0 0 8.4666665 8.4666669"
   version="1.1"
   id="svg821"
   inkscape:version="1.0.1 (3bc2e813f5, 2020-09-07)"
   sodipodi:docname="iconcollection.svg">
  <defs
     id="defs815" />
  <sodipodi:namedview
     id="base"
     pagecolor="#ffffff"
     bordercolor="#666666"
     borderopacity="1.0"
     inkscape:pageopacity="0.0"
     inkscape:pageshadow="2"
     inkscape:zoom="3.959798"
     inkscape:cx="-20.837122"
     inkscape:cy="105.0059"
     inkscape:document-units="mm"
     inkscape:current-layer="layer1"
     showgrid="true"
     units="px"
     inkscape:window-width="1920"
     inkscape:window-height="1020"
     inkscape:window-x="1920"
     inkscape:window-y="0"
     inkscape:window-maximized="1"
     inkscape:document-rotation="0" />
  <metadata
     id="metadata818">
    <rdf:RDF>
      <cc:Work
         rdf:about="">
        <dc:format>image/svg+xml</dc:format>
        <dc:type
           rdf:resource="http://purl.org/dc/dcmitype/StillImage" />
        <dc:title></dc:title>
      </cc:Work>
    </rdf:RDF>
  </metadata>
  <g
     inkscape:label="Capa 1"
     inkscape:groupmode="layer"
     id="layer1"
     transform="translate(0,-288.53332)">
    <g
       id="g1791"
       transform="matrix(0.26458333,0,0,0.26458333,-185.03958,26.518948)">
      <g
         id="g1565">
        <path
           id="path1561"
           d="m 85,142 c -10.4,8.1 -16.6,20.5 -16.6,33.9 v 14.7 c 0,1.3 1.1,2.4 2.4,2.4 H 152 c 1.3,0 2.4,-1.1 2.4,-2.4 V 176 c 0,-13.4 -6.1,-25.8 -16.6,-33.9 13.5,-8.7 22.5,-23.9 22.5,-41.1 0,-27 -21.9,-48.9 -48.9,-48.9 -27,0 -48.9,21.9 -48.9,48.8 0,17.3 9,32.4 22.5,41.1 z m 64.7,34 v 12.4 H 73.2 V 176 c 0,-12.6 6.1,-24.2 16.3,-31.3 6.6,3.3 14,5.2 21.9,5.2 7.9,0 15.3,-1.9 21.9,-5.2 10.3,7.1 16.4,18.7 16.4,31.3 z M 111.4,56.8 c 24.3,0 44.1,19.8 44.1,44.1 0,24.3 -19.8,44.1 -44.1,44.1 -24.3,0 -44.1,-19.8 -44.1,-44.1 0,-24.3 19.8,-44.1 44.1,-44.1 z"
           class="st0"
           inkscape:connector-curvature="0"
           style="fill:#606060" />
        <path
           id="path1563"
           d="m 100.6,115.9 c 7,-2.7 14.6,-2.7 21.6,0 3.9,1.5 7.7,2.3 10.8,2.3 9.5,0 17.2,-7.7 17.2,-17.2 0,-9.5 -7.7,-17.2 -17.2,-17.2 -3.1,0 -6.9,0.8 -10.8,2.3 -7,2.7 -14.6,2.7 -21.6,0 -3.9,-1.5 -7.7,-2.3 -10.8,-2.3 -9.5,0 -17.2,7.7 -17.2,17.2 0,9.5 7.7,17.2 17.2,17.2 3.1,0 6.9,-0.9 10.8,-2.3 z m -23.3,-15 c 0,-6.9 5.6,-12.4 12.4,-12.4 2.5,0 5.8,0.7 9.1,2 8.1,3.1 17,3.1 25,0 3.3,-1.3 6.6,-2 9.1,-2 6.9,0 12.4,5.6 12.4,12.4 0,6.9 -5.6,12.4 -12.4,12.4 -2.5,0 -5.8,-0.7 -9.1,-2 -4,-1.5 -8.3,-2.3 -12.5,-2.3 -4.2,0 -8.5,0.8 -12.5,2.3 -3.3,1.3 -6.6,2 -9.1,2 -6.8,0.1 -12.4,-5.5 -12.4,-12.4 z"
           class="st0"
           inkscape:connector-curvature="0"
           style="fill:#606060" />
      </g>
      <path
         id="path1567"
         d="m 403.5,545.9 c -19.4,0 -37,7.9 -49.7,20.6 0,0 -0.1,0.1 -0.2,0.1 0,0 -0.1,0.1 -0.1,0.2 -12.7,12.8 -20.6,30.3 -20.6,49.7 0,38.9 31.6,70.5 70.5,70.5 19.4,0 36.9,-7.9 49.7,-20.5 0.1,0 0.1,-0.1 0.2,-0.1 0,0 0.1,-0.1 0.1,-0.2 12.7,-12.8 20.5,-30.3 20.5,-49.7 0.1,-38.9 -31.5,-70.6 -70.4,-70.6 z m -65.7,70.6 c 0,-17.3 6.7,-33 17.6,-44.7 l 15.8,15.8 c -1.8,4.2 -2.8,8.9 -2.8,13.7 0,12 6.1,22.7 15.3,29 -7.1,5.9 -11.2,14.5 -11.2,23.9 v 10.4 c 0,1.3 1.1,2.4 2.4,2.4 h 57.3 c 1.3,0 2.4,-1.1 2.4,-2.4 v -10.4 c 0,-1.1 -0.1,-2.3 -0.2,-3.4 l 13.9,13.9 c -11.7,10.9 -27.5,17.6 -44.7,17.6 -36.3,-0.1 -65.8,-29.6 -65.8,-65.8 z m 92,37.6 v 8 h -52.5 v -8 c 0,-8.5 4,-16.3 10.9,-21.3 4.6,2.3 9.9,3.6 15.4,3.6 4.9,0 9.5,-1 13.7,-2.8 l 10.5,10.5 c 1.3,3.1 2,6.5 2,10 z m -11.6,-26.3 -16.6,-16.6 c 3.1,-0.3 6.3,0.1 9.3,1.3 2.8,1.1 5.6,1.7 7.9,1.7 7.1,0 12.8,-5.8 12.8,-12.8 0,-7 -5.8,-12.8 -12.8,-12.8 -2.3,0 -5.1,0.6 -7.9,1.7 -4.8,1.8 -10,1.8 -14.7,0 -2.8,-1.1 -5.6,-1.7 -7.9,-1.7 -2.7,0 -5.2,0.8 -7.2,2.2 l -4.1,-4.1 c 5.2,-9.3 15.1,-15.7 26.6,-15.7 16.7,0 30.4,13.6 30.4,30.4 -0.1,11.2 -6.4,21.2 -15.8,26.4 z m -37,-30.3 11.1,11.1 c -1.5,0.4 -2.9,0.6 -4,0.6 -4.4,0 -8.1,-3.6 -8.1,-8.1 0,-1.2 0.4,-2.5 1,-3.6 z m 3.4,-3.4 c 1.1,-0.6 2.4,-1 3.7,-1 1.7,0 3.9,0.5 6.2,1.3 5.8,2.2 12.3,2.2 18.1,0 2.2,-0.9 4.5,-1.3 6.2,-1.3 4.4,0 8.1,3.6 8.1,8.1 0,4.4 -3.6,8.1 -8.1,8.1 -1.7,0 -3.9,-0.5 -6.2,-1.3 -2.9,-1.1 -6,-1.7 -9.1,-1.7 -2,0 -4.1,0.3 -6.1,0.8 z m -6.9,-0.1 c -1.4,2.1 -2.2,4.5 -2.2,7.2 0,7.1 5.8,12.8 12.8,12.8 2.3,0 5,-0.6 7.8,-1.6 l 17.4,17.4 c -3.1,1.1 -6.5,1.7 -10,1.7 -16.8,0 -30.4,-13.6 -30.4,-30.4 0,-3.5 0.6,-6.9 1.7,-10 z m 73.9,67.2 -19.8,-19.8 c -1.9,-4.3 -4.8,-8.1 -8.5,-11.2 9.2,-6.3 15.3,-17 15.3,-29 0,-19.4 -15.8,-35.2 -35.2,-35.2 -12.7,0 -23.9,6.8 -30.1,17 l -14.7,-14.7 c 11.7,-10.9 27.5,-17.6 44.7,-17.6 36.3,0 65.7,29.5 65.7,65.7 0.3,17.3 -6.4,33 -17.4,44.8 z"
         class="st0"
         inkscape:connector-curvature="0"
         style="fill:#606060" />
      <g
         id="g1575">
        <path
           id="path1569"
           d="m 405.4,92.8 c -0.6,0 -1.2,0 -1.9,0 -0.6,0 -1.2,0 -1.9,0 -39.3,1 -70.3,33.2 -71.6,34.6 -0.9,0.9 -0.9,2.4 0,3.3 1.3,1.4 32.3,33.6 71.6,34.6 0.6,0 1.2,0 1.9,0 0.6,0 1.2,0 1.9,0 39.3,-1 70.3,-33.2 71.6,-34.6 0.9,-0.9 0.9,-2.4 0,-3.3 C 475.7,126 444.7,93.8 405.4,92.8 Z M 435,129 c 0,17.4 -14.1,31.5 -31.5,31.5 -17.4,0 -31.5,-14.1 -31.5,-31.5 0,-17.4 14.1,-31.5 31.5,-31.5 17.4,0 31.5,14.2 31.5,31.5 z m -99.8,0 c 5.3,-5 22.5,-20.3 44.8,-27.5 -7.8,6.7 -12.7,16.5 -12.7,27.5 0,11 4.9,20.9 12.7,27.5 C 357.7,149.3 340.5,134 335.2,129 Z m 91.9,27.5 c 7.8,-6.7 12.7,-16.5 12.7,-27.5 0,-11 -4.9,-20.9 -12.7,-27.5 22.3,7.3 39.5,22.5 44.8,27.5 -5.3,5 -22.5,20.3 -44.8,27.5 z"
           class="st0"
           inkscape:connector-curvature="0"
           style="fill:#606060" />
        <circle
           id="circle1571"
           r="4.8000002"
           cy="129"
           cx="403.5"
           class="st0"
           style="fill:#606060" />
        <path
           id="path1573"
           d="m 340.2,108.5 c 0.5,0 1.1,-0.2 1.5,-0.5 13.6,-11.2 36.9,-23.3 61.8,-23.3 24.9,0 48.2,12 61.8,23.3 1,0.8 2.5,0.7 3.4,-0.3 0.8,-1 0.7,-2.5 -0.3,-3.4 -14.2,-11.8 -38.7,-24.4 -64.9,-24.4 -26.2,0 -50.7,12.6 -64.9,24.4 -1,0.8 -1.2,2.3 -0.3,3.4 0.5,0.5 1.2,0.8 1.9,0.8 z"
           class="st0"
           inkscape:connector-curvature="0"
           style="fill:#606060" />
      </g>
      <g
         id="g1581">
        <path
           id="path1577"
           d="m 677.5,133.8 c 7.5,0 15.1,-2.9 20.8,-8.6 11.5,-11.5 11.5,-30.1 0,-41.6 -11.5,-11.5 -30.2,-11.5 -41.6,0 -11.5,11.5 -11.5,30.1 0,41.6 5.7,5.8 13.2,8.6 20.8,8.6 z M 660,87 c 4.8,-4.8 11.1,-7.2 17.4,-7.2 6.3,0 12.6,2.4 17.4,7.2 9.6,9.6 9.6,25.3 0,34.9 -9.6,9.6 -25.3,9.6 -34.9,0 -9.5,-9.7 -9.5,-25.3 0.1,-34.9 z"
           class="st0"
           inkscape:connector-curvature="0"
           style="fill:#606060" />
        <path
           id="path1579"
           d="m 699.1,138.8 35.4,35.4 c 0.4,0.4 1.1,0.7 1.7,0.7 0.6,0 1.2,-0.3 1.7,-0.7 l 9.4,-9.4 c 0.9,-0.9 0.9,-2.4 0,-3.4 L 711.8,126 c 10.1,-16 7.9,-36.9 -5.6,-50.4 -15.8,-15.8 -41.6,-15.8 -57.5,0 -15.8,15.8 -15.8,41.6 0,57.5 13.5,13.5 34.4,15.8 50.4,5.7 z M 652.1,79 c 14,-14 36.7,-14 50.7,0 12.3,12.3 14,31.6 4,45.9 -0.7,1 -0.6,2.2 0.3,3.1 l 35.1,35.1 -6,6 -35.1,-35.1 c -0.5,-0.5 -1.1,-0.7 -1.7,-0.7 -0.5,0 -1,0.1 -1.4,0.4 -14.3,10 -33.6,8.3 -45.9,-4 -14,-13.9 -14,-36.7 0,-50.7 z"
           class="st0"
           inkscape:connector-curvature="0"
           style="fill:#606060" />
      </g>
      <path
         id="path1583"
         d="m 931,86.1 v 33.4 c 0,1.3 1.1,2.4 2.4,2.4 H 947 l 2.5,5.6 c 0.4,0.9 1.2,1.4 2.2,1.4 h 29.1 v 27.4 c 0,1.3 1.1,2.4 2.4,2.4 h 60.2 v 9.1 c 0,1.3 1.1,2.4 2.4,2.4 1.3,0 2.4,-1.1 2.4,-2.4 v -22.9 c 0,-1.3 -1.1,-2.4 -2.4,-2.4 -1.3,0 -2.4,1.1 -2.4,2.4 v 9.1 h -57.8 v -25 h 26.5 c 14.9,0 27,-12.1 27,-27 0,-14.9 -12.1,-27 -27,-27 h -82.4 c -0.8,0 -1.6,0.4 -2,1.1 -0.4,0.7 -0.5,1.5 -0.2,2.3 z m 4.8,31 V 96.8 l 9.1,20.3 z m 76.3,-37.4 c 12.3,0 22.2,10 22.2,22.2 0,12.2 -10,22.2 -22.2,22.2 h -58.9 l -2.5,-5.6 c 0,0 0,0 0,0 L 935.6,84.6 c 0,0 0,0 0,0 l -2.2,-4.9 z"
         class="st0"
         inkscape:connector-curvature="0"
         style="fill:#606060" />
      <g
         id="g1595">
        <path
           id="path1585"
           d="m 55,361.3 c 0.8,1.1 2.3,1.3 3.3,0.5 l 9.7,-7.1 v 64.1 c 0,1.3 1.1,2.4 2.4,2.4 h 25.3 c 1.3,0 2.4,-1.1 2.4,-2.4 V 380 h 26.5 v 38.8 c 0,1.3 1.1,2.4 2.4,2.4 h 25.3 c 1.3,0 2.4,-1.1 2.4,-2.4 v -64.1 l 9.7,7.1 c 1.1,0.8 2.6,0.5 3.3,-0.5 0.8,-1.1 0.5,-2.6 -0.5,-3.3 l -54.4,-39.8 c -0.8,-0.6 -2,-0.6 -2.8,0 l -40.9,29.9 c 0,0 0,0 0,0 L 55.6,358 c -1.1,0.8 -1.3,2.3 -0.6,3.3 z m 17.8,-10 38.6,-28.2 38.6,28.2 v 65.3 h -20.5 v -38.8 c 0,-1.3 -1.1,-2.4 -2.4,-2.4 H 95.8 c -1.3,0 -2.4,1.1 -2.4,2.4 v 38.8 H 72.8 Z"
           class="st0"
           inkscape:connector-curvature="0"
           style="fill:#606060" />
        <path
           id="path1587"
           d="m 148.8,319.7 c 2.2,2.2 3.5,5.2 3.5,8.4 0,1.3 1.1,2.4 2.4,2.4 v 0 c 1.3,0 2.4,-1.1 2.4,-2.4 0,-4.4 -1.7,-8.6 -4.9,-11.7 -3.1,-3.1 -7.3,-4.9 -11.8,-4.9 -1.3,0 -2.4,1.1 -2.4,2.4 0,1.3 1.1,2.4 2.4,2.4 3.2,-0.1 6.1,1.1 8.4,3.4 z"
           class="st0"
           inkscape:connector-curvature="0"
           style="fill:#606060" />
        <path
           id="path1589"
           d="m 139.5,302.6 c 0,1.3 1.1,2.4 2.4,2.4 5.8,0 11.2,2.2 15.3,6.3 4.1,4.1 6.3,9.5 6.3,15.3 0,1.3 1.1,2.4 2.4,2.4 v 0 c 1.3,0 2.4,-1.1 2.4,-2.4 0,-7 -2.7,-13.7 -7.7,-18.7 -5,-5 -11.6,-7.7 -18.7,-7.7 -1.4,0 -2.4,1.1 -2.4,2.4 z"
           class="st0"
           inkscape:connector-curvature="0"
           style="fill:#606060" />
        <path
           id="path1591"
           d="m 68.2,330.4 c 1.3,0 2.4,-1.1 2.4,-2.4 0,-3.2 1.2,-6.1 3.5,-8.4 2.2,-2.2 5.2,-3.5 8.4,-3.5 1.3,0 2.4,-1.1 2.4,-2.4 0,-1.3 -1.1,-2.4 -2.4,-2.4 -4.4,0 -8.6,1.7 -11.8,4.9 -3.1,3.1 -4.9,7.3 -4.9,11.7 0,1.5 1.1,2.5 2.4,2.5 z"
           class="st0"
           inkscape:connector-curvature="0"
           style="fill:#606060" />
        <path
           id="path1593"
           d="m 57,329 v 0 c 1.3,0 2.4,-1.1 2.4,-2.4 0,-5.8 2.3,-11.2 6.3,-15.3 4.1,-4.1 9.5,-6.3 15.3,-6.3 1.3,0 2.4,-1.1 2.4,-2.4 0,-1.3 -1.1,-2.4 -2.4,-2.4 -7,0 -13.7,2.7 -18.7,7.7 -5,5 -7.7,11.6 -7.7,18.7 0,1.3 1.1,2.4 2.4,2.4 z"
           class="st0"
           inkscape:connector-curvature="0"
           style="fill:#606060" />
      </g>
      <path
         id="path1597"
         d="m 446.3,318.9 c 0,-3.2 -1.3,-6.3 -3.5,-8.5 -4.7,-4.7 -12.4,-4.7 -17.1,0 l -81.3,81.3 c -2.3,2.3 -3.5,5.3 -3.5,8.5 0,3.2 1.3,6.3 3.5,8.5 4.7,4.7 12.4,4.7 17.1,0 l 5.1,-5.1 13.9,13.9 c 1.7,1.7 3.9,2.5 6.1,2.5 2.2,0 4.4,-0.8 6.1,-2.5 1.6,-1.6 2.5,-3.8 2.5,-6.1 0,-2.3 -0.9,-4.4 -2.5,-6.1 l -13.9,-13.9 64.1,-64.1 c 2.1,-2.2 3.4,-5.2 3.4,-8.4 z m -7,5.1 -65.8,65.8 c -0.5,0.5 -0.7,1.1 -0.7,1.8 0,0.7 0.3,1.3 0.9,1.7 l 15.5,15.4 c 1.5,1.5 1.5,3.9 0,5.4 -1.5,1.5 -3.9,1.5 -5.4,0 l -15.3,-15.3 -0.2,-0.2 c -0.4,-0.5 -1.1,-0.8 -1.7,-0.9 0,0 -0.1,0 -0.1,0 -0.6,0 -1.2,0.3 -1.7,0.7 l -6.9,6.9 c -2.8,2.8 -7.5,2.8 -10.3,0 -1.4,-1.4 -2.1,-3.2 -2.1,-5.2 0,-2 0.8,-3.8 2.1,-5.2 l 81.3,-81.3 c 2.8,-2.8 7.5,-2.8 10.3,0 1.4,1.4 2.1,3.2 2.1,5.2 0.2,2 -0.6,3.8 -2,5.2 z"
         class="st0"
         inkscape:connector-curvature="0"
         style="fill:#606060" />
      <g
         id="g1603" />
      <g
         id="g1617">
        <path
           id="path1605"
           d="m 914,363.8 h 12.2 l -8.6,8.6 c -0.9,0.9 -0.9,2.4 0,3.4 0.5,0.5 1.1,0.7 1.7,0.7 0.6,0 1.2,-0.2 1.7,-0.7 l 8.6,-8.6 v 12.2 c 0,1.3 1.1,2.4 2.4,2.4 1.3,0 2.4,-1.1 2.4,-2.4 v -12.2 l 8.6,8.6 c 0.5,0.5 1.1,0.7 1.7,0.7 0.6,0 1.2,-0.2 1.7,-0.7 0.9,-0.9 0.9,-2.4 0,-3.4 l -8.6,-8.6 H 950 c 1.3,0 2.4,-1.1 2.4,-2.4 0,-1.3 -1.1,-2.4 -2.4,-2.4 h -12.2 l 8.6,-8.6 c 0.9,-0.9 0.9,-2.4 0,-3.4 -0.9,-0.9 -2.4,-0.9 -3.4,0 l -8.6,8.6 v -12.2 c 0,-1.3 -1.1,-2.4 -2.4,-2.4 -1.3,0 -2.4,1.1 -2.4,2.4 v 12.2 L 921,347 c -0.9,-0.9 -2.4,-0.9 -3.4,0 -0.9,0.9 -0.9,2.4 0,3.4 l 8.6,8.6 H 914 c -1.3,0 -2.4,1.1 -2.4,2.4 0,1.3 1.1,2.4 2.4,2.4 z"
           class="st0"
           inkscape:connector-curvature="0"
           style="fill:#606060" />
        <path
           id="path1607"
           d="m 1005.7,359 h -12.2 l 8.6,-8.6 c 0.9,-0.9 0.9,-2.4 0,-3.4 -0.9,-0.9 -2.4,-0.9 -3.4,0 l -8.6,8.6 v -12.2 c 0,-1.3 -1.1,-2.4 -2.4,-2.4 -1.3,0 -2.4,1.1 -2.4,2.4 v 12.2 l -8.6,-8.6 c -0.9,-0.9 -2.4,-0.9 -3.4,0 -0.9,0.9 -0.9,2.4 0,3.4 l 8.6,8.6 h -12.2 c -1.3,0 -2.4,1.1 -2.4,2.4 0,1.3 1.1,2.4 2.4,2.4 H 982 l -8.6,8.6 c -0.9,0.9 -0.9,2.4 0,3.4 0.5,0.5 1.1,0.7 1.7,0.7 0.6,0 1.2,-0.2 1.7,-0.7 l 8.6,-8.6 v 12.2 c 0,1.3 1.1,2.4 2.4,2.4 1.3,0 2.4,-1.1 2.4,-2.4 v -12.2 l 8.6,8.6 c 0.5,0.5 1.1,0.7 1.7,0.7 0.6,0 1.2,-0.2 1.7,-0.7 0.9,-0.9 0.9,-2.4 0,-3.4 l -8.6,-8.6 h 12.2 c 1.3,0 2.4,-1.1 2.4,-2.4 0,-1.3 -1.2,-2.4 -2.5,-2.4 z"
           class="st0"
           inkscape:connector-curvature="0"
           style="fill:#606060" />
        <path
           id="path1609"
           d="m 1061.5,359 h -12.2 l 8.6,-8.6 c 0.9,-0.9 0.9,-2.4 0,-3.4 -0.9,-0.9 -2.4,-0.9 -3.4,0 l -8.6,8.6 v -12.2 c 0,-1.3 -1.1,-2.4 -2.4,-2.4 -1.3,0 -2.4,1.1 -2.4,2.4 v 12.2 l -8.6,-8.6 c -0.9,-0.9 -2.4,-0.9 -3.4,0 -0.9,0.9 -0.9,2.4 0,3.4 l 8.6,8.6 h -12.2 c -1.3,0 -2.4,1.1 -2.4,2.4 0,1.3 1.1,2.4 2.4,2.4 h 12.2 l -8.6,8.6 c -0.9,0.9 -0.9,2.4 0,3.4 0.5,0.5 1.1,0.7 1.7,0.7 0.6,0 1.2,-0.2 1.7,-0.7 l 8.6,-8.6 v 12.2 c 0,1.3 1.1,2.4 2.4,2.4 1.3,0 2.4,-1.1 2.4,-2.4 v -12.2 l 8.6,8.6 c 0.5,0.5 1.1,0.7 1.7,0.7 0.6,0 1.2,-0.2 1.7,-0.7 0.9,-0.9 0.9,-2.4 0,-3.4 l -8.6,-8.6 h 12.2 c 1.3,0 2.4,-1.1 2.4,-2.4 0,-1.3 -1,-2.4 -2.4,-2.4 z"
           class="st0"
           inkscape:connector-curvature="0"
           style="fill:#606060" />
        <path
           id="path1611"
           d="m 952.3,395.5 c 0,-1.3 -1.1,-2.4 -2.4,-2.4 H 914 c -1.3,0 -2.4,1.1 -2.4,2.4 0,1.3 1.1,2.4 2.4,2.4 h 35.9 c 1.3,0 2.4,-1 2.4,-2.4 z"
           class="st0"
           inkscape:connector-curvature="0"
           style="fill:#606060" />
        <path
           id="path1613"
           d="m 1005.7,393.2 h -35.9 c -1.3,0 -2.4,1.1 -2.4,2.4 0,1.3 1.1,2.4 2.4,2.4 h 35.9 c 1.3,0 2.4,-1.1 2.4,-2.4 0,-1.3 -1.1,-2.4 -2.4,-2.4 z"
           class="st0"
           inkscape:connector-curvature="0"
           style="fill:#606060" />
        <path
           id="path1615"
           d="m 1061.5,393.2 h -35.9 c -1.3,0 -2.4,1.1 -2.4,2.4 0,1.3 1.1,2.4 2.4,2.4 h 35.9 c 1.3,0 2.4,-1.1 2.4,-2.4 0,-1.3 -1,-2.4 -2.4,-2.4 z"
           class="st0"
           inkscape:connector-curvature="0"
           style="fill:#606060" />
      </g>
      <path
         id="path1619"
         d="m 1314.6,412.9 c 0.1,-0.1 0.1,-0.2 0.2,-0.3 5.7,-5.6 10.1,-12.7 12.4,-20.6 2.5,-8.4 3.7,-17.1 3.7,-25.8 v -36.8 c 0,-1.3 -1.1,-2.4 -2.4,-2.4 -15.5,0 -30.6,-4.3 -43.8,-12.5 l -3.7,-2.3 c -0.8,-0.5 -1.7,-0.5 -2.5,0 l -3.7,2.3 c -13.2,8.2 -28.3,12.5 -43.8,12.5 -0.3,0 -0.6,0.1 -0.9,0.2 0,0 0,0 0,0 -0.6,0.2 -1.1,0.7 -1.3,1.3 0,0 0,0 0,0 -0.1,0.3 -0.2,0.6 -0.2,0.9 v 36.8 c 0,8.7 1.3,17.4 3.7,25.8 6.1,20.6 25.6,35.1 47.4,35.1 13.1,0 25.4,-5.3 34.4,-13.9 0.3,-0.1 0.4,-0.2 0.5,-0.3 z m -37.1,-94.3 2.4,-1.5 2.4,1.5 c 13.2,8.2 28.4,12.7 43.9,13.2 v 34.5 c 0,8.3 -1.2,16.5 -3.5,24.4 -1.9,6.5 -5.3,12.3 -9.8,17.1 l -76.1,-76.1 c 14.4,-1 28.3,-5.4 40.7,-13.1 z m -40.4,72.1 c -2.3,-7.9 -3.5,-16.2 -3.5,-24.4 v -31 l 75.9,75.9 c -8,7 -18.5,11.2 -29.6,11.2 -19.7,-0.1 -37.3,-13.1 -42.8,-31.7 z"
         class="st0"
         inkscape:connector-curvature="0"
         style="fill:#606060" />
      <g
         id="g1625">
        <path
           id="path1621"
           d="m 164.1,609.9 c 12.7,-12.7 12.7,-33.4 0,-46.2 -12.7,-12.7 -33.4,-12.7 -46.2,0 -9.2,9.2 -12,23.2 -7.2,35.2 l -53.4,53.4 c -0.5,0.5 -0.8,1.2 -0.7,1.9 l 1.3,13.5 c 0.1,1.1 1,2 2.2,2.2 l 13.5,1.3 c 0.1,0 0.1,0 0.2,0 0.6,0 1.2,-0.3 1.7,-0.7 l 5.3,-5.3 11.9,2.9 c 0.8,0.2 1.7,0 2.3,-0.6 0.6,-0.6 0.8,-1.5 0.6,-2.3 l -2.9,-11.9 3.3,-3.3 11.9,2.9 c 0.8,0.2 1.7,0 2.3,-0.6 0.6,-0.6 0.8,-1.5 0.6,-2.3 l -2.9,-11.9 21.2,-21.2 c 11.9,5 25.8,2.2 35,-7 z m -37.4,2.6 -23.3,23.3 c -0.6,0.6 -0.8,1.5 -0.6,2.3 l 2.3,9.3 -9.3,-2.3 c -0.8,-0.2 -1.7,0 -2.3,0.6 l -5.2,5.2 c -0.6,0.6 -0.8,1.5 -0.6,2.3 l 2.3,9.3 -9.3,-2.3 c -0.8,-0.2 -1.7,0 -2.3,0.6 l -5.4,5.4 -10.4,-1 -1,-10.4 53.7,-53.7 c 0.7,-0.7 0.9,-1.8 0.5,-2.7 -4.9,-10.6 -2.6,-23.2 5.6,-31.4 10.9,-10.9 28.5,-10.9 39.4,0 10.9,10.9 10.9,28.5 0,39.4 -8.2,8.2 -20.8,10.4 -31.4,5.6 -0.9,-0.4 -2,-0.2 -2.7,0.5 z"
           class="st0"
           inkscape:connector-curvature="0"
           style="fill:#606060" />
        <path
           id="path1623"
           d="m 141.1,603.2 c 4.2,0 8.4,-1.6 11.6,-4.8 3.1,-3.1 4.8,-7.2 4.8,-11.6 0,-4.4 -1.7,-8.5 -4.8,-11.6 -3.1,-3.1 -7.2,-4.8 -11.6,-4.8 -4.4,0 -8.5,1.7 -11.6,4.8 -3.1,3.1 -4.8,7.2 -4.8,11.6 0,4.4 1.7,8.5 4.8,11.6 3.2,3.2 7.4,4.8 11.6,4.8 z m -8.2,-24.6 c 2.2,-2.2 5.1,-3.4 8.2,-3.4 3.1,0 6,1.2 8.2,3.4 2.2,2.2 3.4,5.1 3.4,8.2 0,3.1 -1.2,6 -3.4,8.2 -4.5,4.5 -11.9,4.5 -16.4,0 -2.2,-2.2 -3.4,-5.1 -3.4,-8.2 0,-3.1 1.2,-6 3.4,-8.2 z"
           class="st0"
           inkscape:connector-curvature="0"
           style="fill:#606060" />
      </g>
      <path
         id="path1627"
         d="m 772.1,565.9 h -25.2 c -1.3,0 -2.4,1.1 -2.4,2.4 0,1.3 1.1,2.4 2.4,2.4 h 10.2 v 60.8 h -21.5 v -28.4 c 0,-1.3 -1.1,-2.4 -2.4,-2.4 h -114 c -0.8,0 -1.6,0.4 -2,1.1 -0.4,0.7 -0.5,1.5 -0.2,2.3 l 2.8,6.5 v 48.9 c 0,1.3 1.1,2.4 2.4,2.4 h 19.9 l 1.6,3.8 c 0.4,0.9 1.2,1.4 2.2,1.4 h 87.3 c 1.3,0 2.4,-1.1 2.4,-2.4 v -28.4 h 23.8 c 1.3,0 2.4,-1.1 2.4,-2.4 V 570.7 H 772 c 1.3,0 2.4,-1.1 2.4,-2.4 0.1,-1.3 -1,-2.4 -2.3,-2.4 z M 624.6,657 V 621.5 L 640,657 Z m 106.3,5.2 h -83.3 l -1.6,-3.7 c 0,0 0,0 0,0 l -23.1,-53 h 108 z"
         class="st0"
         inkscape:connector-curvature="0"
         style="fill:#606060" />
      <path
         id="path1629"
         d="m 1046.5,592.3 c -4.7,0 -8.8,2.9 -10.5,7 l -28.5,-4.1 -12.7,-25.7 c 2.6,-2.1 4.3,-5.3 4.3,-8.9 0,-6.3 -5.1,-11.4 -11.4,-11.4 -6.3,0 -11.4,5.1 -11.4,11.4 0,3.6 1.7,6.8 4.3,8.9 l -12.6,25.7 -28.5,4.1 c -1.7,-4.1 -5.8,-7 -10.5,-7 -6.3,0 -11.4,5.1 -11.4,11.4 0,6.3 5.1,11.4 11.4,11.4 2.4,0 4.7,-0.8 6.6,-2.1 l 20.2,19.7 -4.8,28.3 c -6.1,0.3 -10.9,5.2 -10.9,11.4 0,6.3 5.1,11.4 11.4,11.4 6.3,0 11.4,-5.1 11.4,-11.4 0,-1.1 -0.2,-2.1 -0.4,-3.1 l 25.3,-13.3 25.3,13.3 c -0.3,1 -0.4,2 -0.4,3.1 0,6.3 5.1,11.4 11.4,11.4 6.3,0 11.4,-5.1 11.4,-11.4 0,-6.1 -4.9,-11.1 -10.9,-11.4 l -4.8,-28.2 20.2,-19.7 c 1.9,1.3 4.1,2.1 6.6,2.1 6.3,0 11.4,-5.1 11.4,-11.4 -0.1,-6.3 -5.2,-11.5 -11.5,-11.5 z M 987.8,554 c 3.6,0 6.6,3 6.6,6.6 0,3.6 -3,6.6 -6.6,6.6 -3.6,0 -6.6,-3 -6.6,-6.6 0,-3.6 2.9,-6.6 6.6,-6.6 z m -65.4,49.7 c 0,-3.6 3,-6.6 6.6,-6.6 3.6,0 6.6,3 6.6,6.6 0,3.6 -3,6.6 -6.6,6.6 -3.6,0 -6.6,-2.9 -6.6,-6.6 z m 29.1,75.2 c -3.6,0 -6.6,-3 -6.6,-6.6 0,-3.6 3,-6.6 6.6,-6.6 3.6,0 6.6,3 6.6,6.6 0,3.7 -3,6.6 -6.6,6.6 z m 79.2,-6.6 c 0,3.6 -3,6.6 -6.6,6.6 -3.6,0 -6.6,-3 -6.6,-6.6 0,-3.6 3,-6.6 6.6,-6.6 3.6,0 6.6,3 6.6,6.6 z m -15.9,-40 5.1,29.5 c -1.8,0.7 -3.3,1.8 -4.5,3.3 l -26.5,-13.9 c -0.7,-0.4 -1.5,-0.4 -2.2,0 L 960.2,665 c -1.2,-1.4 -2.7,-2.6 -4.5,-3.3 l 5.1,-29.5 c 0.1,-0.8 -0.1,-1.6 -0.7,-2.1 l -21.2,-20.7 c 0.9,-1.6 1.5,-3.5 1.6,-5.5 l 29.6,-4.3 c 0.8,-0.1 1.5,-0.6 1.8,-1.3 l 13.2,-26.8 c 0.9,0.2 1.8,0.4 2.8,0.4 1,0 1.9,-0.1 2.8,-0.4 l 13.2,26.8 c 0.3,0.7 1,1.2 1.8,1.3 l 29.6,4.3 c 0.1,2 0.6,3.8 1.6,5.5 l -21.2,20.7 c -0.8,0.6 -1.1,1.4 -0.9,2.2 z m 31.7,-22 c -3.6,0 -6.6,-3 -6.6,-6.6 0,-3.6 3,-6.6 6.6,-6.6 3.6,0 6.6,3 6.6,6.6 0,3.7 -3,6.6 -6.6,6.6 z"
         class="st0"
         inkscape:connector-curvature="0"
         style="fill:#606060" />
      <g
         id="g1637">
        <path
           id="path1631"
           d="m 1216.6,593.4 h 58.2 c 1.3,0 2.4,-1.1 2.4,-2.4 v -40.5 c 0,-1.3 -1.1,-2.4 -2.4,-2.4 h -58.2 c -1.3,0 -2.4,1.1 -2.4,2.4 V 591 c 0,1.3 1.1,2.4 2.4,2.4 z m 2.4,-40.5 h 53.4 v 35.7 H 1219 Z"
           class="st0"
           inkscape:connector-curvature="0"
           style="fill:#606060" />
        <path
           id="path1633"
           d="m 1216.6,644.1 h 33.8 v 38.3 c 0,1.3 1.1,2.4 2.4,2.4 h 54.2 c 1.3,0 2.4,-1.1 2.4,-2.4 v -38.3 h 33.8 c 1.3,0 2.4,-1.1 2.4,-2.4 v -40.5 c 0,-1.3 -1.1,-2.4 -2.4,-2.4 H 1285 c -1.3,0 -2.4,1.1 -2.4,2.4 v 3 c -0.9,-0.1 -1.8,-0.2 -2.7,-0.2 -0.9,0 -1.8,0.1 -2.7,0.2 v -3 c 0,-1.3 -1.1,-2.4 -2.4,-2.4 h -58.2 c -1.3,0 -2.4,1.1 -2.4,2.4 v 40.5 c 0,1.3 1.1,2.4 2.4,2.4 z m 88,35.9 h -49.4 v -50.5 h 49.4 z m -17.2,-76.4 h 53.4 v 35.7 h -31.4 v -12.2 c 0,-1.3 -1.1,-2.4 -2.4,-2.4 h -4.1 c -0.9,-9.1 -7.1,-16.6 -15.5,-19.4 z m 10.6,21.1 h -36.3 c 1,-7.4 6.3,-13.5 13.6,-15.4 1.5,-0.4 3,-0.6 4.5,-0.6 9.4,0.1 17,7.1 18.2,16 z m -79,-21.1 h 53.4 v 1.6 c -8.5,2.9 -14.6,10.5 -15.5,19.5 h -4.1 c -1.3,0 -2.4,1.1 -2.4,2.4 v 12.2 H 1219 Z"
           class="st0"
           inkscape:connector-curvature="0"
           style="fill:#606060" />
        <path
           id="path1635"
           d="m 1285,548.2 c -1.3,0 -2.4,1.1 -2.4,2.4 V 591 c 0,1.3 1.1,2.4 2.4,2.4 h 58.2 c 1.3,0 2.4,-1.1 2.4,-2.4 v -40.5 c 0,-1.3 -1.1,-2.4 -2.4,-2.4 H 1285 Z m 55.8,40.4 h -53.4 v -35.7 h 53.4 z"
           class="st0"
           inkscape:connector-curvature="0"
           style="fill:#606060" />
      </g>
      <path
         id="path1639"
         d="m 172.5,874.6 -10,-5.8 5.4,-9.3 c 0.3,-0.5 0.4,-1.2 0.2,-1.8 -0.2,-0.6 -0.6,-1.1 -1.1,-1.5 L 90.4,812 c -1.1,-0.7 -2.6,-0.3 -3.3,0.9 l -27.4,47.5 c -0.3,0.5 -0.4,1.2 -0.2,1.8 0.2,0.6 0.6,1.1 1.1,1.5 l 38.9,22.4 v 14.7 H 53.9 V 894 c 0,-1.3 -1.1,-2.4 -2.4,-2.4 -1.3,0 -2.4,1.1 -2.4,2.4 v 18.6 c 0,1.3 1.1,2.4 2.4,2.4 1.3,0 2.4,-1.1 2.4,-2.4 v -7 h 48 c 1.3,0 2.4,-1.1 2.4,-2.4 v -14.4 l 32.9,19 c 0.4,0.2 0.8,0.3 1.2,0.3 0.8,0 1.6,-0.4 2.1,-1.2 l 5.4,-9.3 10,5.8 c 0.4,0.2 0.8,0.3 1.2,0.3 0.8,0 1.6,-0.4 2.1,-1.2 l 14.3,-24.8 c 0.5,-1 0.2,-2.4 -1,-3.1 z m -35,28 -72.4,-41.8 25,-43.4 72.4,41.8 -5.4,9.3 c 0,0 0,0 0,0 l -7.2,12.4 z m 18.6,-4.4 -8,-4.6 6,-10.3 6,-10.3 8,4.6 z"
         class="st0"
         inkscape:connector-curvature="0"
         style="fill:#606060" />
      <g
         id="g1647">
        <path
           id="path1641"
           d="m 355.2,885.2 c -7.3,7.3 -7.3,19.2 0,26.5 3.7,3.7 8.4,5.5 13.2,5.5 4.8,0 9.6,-1.8 13.2,-5.5 7.3,-7.3 7.3,-19.2 0,-26.5 -7.2,-7.3 -19.1,-7.3 -26.4,0 z m 23.1,23.1 c -5.4,5.4 -14.3,5.4 -19.7,0 -5.4,-5.4 -5.4,-14.3 0,-19.7 2.7,-2.7 6.3,-4.1 9.9,-4.1 3.6,0 7.1,1.4 9.9,4.1 5.3,5.4 5.3,14.3 -0.1,19.7 z"
           class="st0"
           inkscape:connector-curvature="0"
           style="fill:#606060" />
        <path
           id="path1643"
           d="m 425.4,815.1 c -7.3,7.3 -7.3,19.2 0,26.5 3.7,3.7 8.4,5.5 13.2,5.5 4.8,0 9.6,-1.8 13.2,-5.5 7.3,-7.3 7.3,-19.2 0,-26.5 -7.3,-7.3 -19.1,-7.3 -26.4,0 z m 23.1,23.1 c -5.4,5.4 -14.3,5.4 -19.7,0 -5.4,-5.4 -5.4,-14.3 0,-19.7 2.7,-2.7 6.3,-4.1 9.9,-4.1 3.6,0 7.1,1.4 9.9,4.1 5.3,5.4 5.3,14.2 -0.1,19.7 z"
           class="st0"
           inkscape:connector-curvature="0"
           style="fill:#606060" />
        <path
           id="path1645"
           d="m 417.8,807.5 c -8.4,8.4 -10.9,21.2 -6.4,32.1 l -5,5 c -0.9,0.9 -0.9,2.4 0,3.4 l 4.6,4.6 -18.3,18.3 -4.6,-4.6 c -0.9,-0.9 -2.4,-0.9 -3.4,0 l -5,5 c -10.9,-4.5 -23.7,-2.1 -32.1,6.4 -11.5,11.5 -11.5,30.2 0,41.7 5.6,5.6 13,8.6 20.8,8.6 7.8,0 15.3,-3.1 20.8,-8.6 8.4,-8.4 10.9,-21.2 6.4,-32.1 l 5,-5 c 0.9,-0.9 0.9,-2.4 0,-3.4 l -4.6,-4.6 18.3,-18.3 4.6,4.6 c 0.4,0.4 1.1,0.7 1.7,0.7 0.6,0 1.2,-0.3 1.7,-0.7 l 5,-5 c 11,4.5 23.7,2.1 32.1,-6.4 5.6,-5.6 8.6,-13 8.6,-20.8 0,-7.9 -3.1,-15.3 -8.6,-20.8 C 447.9,796 429.2,796 417.8,807.5 Z m -27.1,80.2 c 4.6,9.5 2.7,20.8 -4.8,28.2 -4.7,4.7 -10.9,7.2 -17.5,7.2 -6.6,0 -12.8,-2.6 -17.5,-7.2 -9.6,-9.6 -9.6,-25.3 0,-34.9 4.7,-4.7 11,-7.2 17.5,-7.2 3.6,0 7.3,0.8 10.8,2.5 0.9,0.4 2,0.3 2.7,-0.5 l 4.5,-4.5 9.2,9.2 -4.5,4.5 c -0.7,0.7 -0.9,1.8 -0.4,2.7 z m 65.4,-41.9 c -7.4,7.4 -18.8,9.3 -28.2,4.8 -0.9,-0.4 -2,-0.3 -2.7,0.5 l -4.5,4.5 -9.2,-9.2 4.5,-4.5 c 0.7,-0.7 0.9,-1.8 0.5,-2.7 -4.6,-9.5 -2.7,-20.8 4.8,-28.2 9.6,-9.6 25.3,-9.6 34.9,0 4.7,4.7 7.2,10.9 7.2,17.5 0,6.6 -2.7,12.6 -7.3,17.3 z"
           class="st0"
           inkscape:connector-curvature="0"
           style="fill:#606060" />
      </g>
      <g
         id="g1655">
        <path
           id="path1649"
           d="m 695.6,798.8 c -35.6,0 -64.6,29 -64.6,64.6 0,35.6 29,64.6 64.6,64.6 35.6,0 64.6,-29 64.6,-64.6 0,-35.6 -29,-64.6 -64.6,-64.6 z m 0,124.4 c -33,0 -59.8,-26.8 -59.8,-59.8 0,-33 26.8,-59.8 59.8,-59.8 33,0 59.8,26.8 59.8,59.8 0,33 -26.8,59.8 -59.8,59.8 z"
           class="st0"
           inkscape:connector-curvature="0"
           style="fill:#606060" />
        <polygon
           id="polygon1651"
           points="701.2,836.4 690,836.4 690,849.1 692.7,876.5 698.6,876.5 701.2,849.1 "
           class="st0"
           style="fill:#606060" />
        <rect
           id="rect1653"
           height="10.3"
           width="10.3"
           class="st0"
           y="880"
           x="690.5"
           style="fill:#606060" />
      </g>
      <g
         id="g1679">
        <path
           id="path1657"
           d="m 1032,798.8 h -88.4 c -1.3,0 -2.4,1.1 -2.4,2.4 v 124.3 c 0,1.3 1.1,2.4 2.4,2.4 h 88.4 c 1.3,0 2.4,-1.1 2.4,-2.4 V 801.2 c 0,-1.3 -1.1,-2.4 -2.4,-2.4 z m -2.4,124.4 H 945.9 V 803.6 h 83.7 z"
           class="st0"
           inkscape:connector-curvature="0"
           style="fill:#606060" />
        <path
           id="path1659"
           d="m 955.8,845.1 h 64 c 1.3,0 2.4,-1.1 2.4,-2.4 V 814 c 0,-1.3 -1.1,-2.4 -2.4,-2.4 h -64 c -1.3,0 -2.4,1.1 -2.4,2.4 v 28.7 c 0,1.3 1,2.4 2.4,2.4 z m 2.3,-28.7 h 59.2 v 23.9 h -59.2 z"
           class="st0"
           inkscape:connector-curvature="0"
           style="fill:#606060" />
        <path
           id="path1661"
           d="m 971.1,851.1 h -13.5 c -1.3,0 -2.4,1.1 -2.4,2.4 V 867 c 0,1.3 1.1,2.4 2.4,2.4 h 13.5 c 1.3,0 2.4,-1.1 2.4,-2.4 v -13.5 c 0,-1.3 -1.1,-2.4 -2.4,-2.4 z m -2.4,13.5 h -8.8 v -8.8 h 8.8 z"
           class="st0"
           inkscape:connector-curvature="0"
           style="fill:#606060" />
        <path
           id="path1663"
           d="M 994.5,851.1 H 981 c -1.3,0 -2.4,1.1 -2.4,2.4 V 867 c 0,1.3 1.1,2.4 2.4,2.4 h 13.5 c 1.3,0 2.4,-1.1 2.4,-2.4 v -13.5 c 0,-1.3 -1.1,-2.4 -2.4,-2.4 z m -2.4,13.5 h -8.8 v -8.8 h 8.8 z"
           class="st0"
           inkscape:connector-curvature="0"
           style="fill:#606060" />
        <path
           id="path1665"
           d="m 1018,851.1 h -13.5 c -1.3,0 -2.4,1.1 -2.4,2.4 V 867 c 0,1.3 1.1,2.4 2.4,2.4 h 13.5 c 1.3,0 2.4,-1.1 2.4,-2.4 v -13.5 c 0,-1.3 -1.1,-2.4 -2.4,-2.4 z m -2.4,13.5 h -8.8 v -8.8 h 8.8 z"
           class="st0"
           inkscape:connector-curvature="0"
           style="fill:#606060" />
        <path
           id="path1667"
           d="m 971.1,874.8 h -13.5 c -1.3,0 -2.4,1.1 -2.4,2.4 v 13.5 c 0,1.3 1.1,2.4 2.4,2.4 h 13.5 c 1.3,0 2.4,-1.1 2.4,-2.4 v -13.5 c 0,-1.3 -1.1,-2.4 -2.4,-2.4 z m -2.4,13.5 h -8.8 v -8.8 h 8.8 z"
           class="st0"
           inkscape:connector-curvature="0"
           style="fill:#606060" />
        <path
           id="path1669"
           d="M 994.5,874.8 H 981 c -1.3,0 -2.4,1.1 -2.4,2.4 v 13.5 c 0,1.3 1.1,2.4 2.4,2.4 h 13.5 c 1.3,0 2.4,-1.1 2.4,-2.4 v -13.5 c 0,-1.3 -1.1,-2.4 -2.4,-2.4 z m -2.4,13.5 h -8.8 v -8.8 h 8.8 z"
           class="st0"
           inkscape:connector-curvature="0"
           style="fill:#606060" />
        <path
           id="path1671"
           d="m 1018,874.8 h -13.5 c -1.3,0 -2.4,1.1 -2.4,2.4 v 13.5 c 0,1.3 1.1,2.4 2.4,2.4 h 13.5 c 1.3,0 2.4,-1.1 2.4,-2.4 v -13.5 c 0,-1.3 -1.1,-2.4 -2.4,-2.4 z m -2.4,13.5 h -8.8 v -8.8 h 8.8 z"
           class="st0"
           inkscape:connector-curvature="0"
           style="fill:#606060" />
        <path
           id="path1673"
           d="m 971.1,898.5 h -13.5 c -1.3,0 -2.4,1.1 -2.4,2.4 v 13.5 c 0,1.3 1.1,2.4 2.4,2.4 h 13.5 c 1.3,0 2.4,-1.1 2.4,-2.4 v -13.5 c 0,-1.3 -1.1,-2.4 -2.4,-2.4 z m -2.4,13.6 h -8.8 v -8.8 h 8.8 z"
           class="st0"
           inkscape:connector-curvature="0"
           style="fill:#606060" />
        <path
           id="path1675"
           d="M 994.5,898.5 H 981 c -1.3,0 -2.4,1.1 -2.4,2.4 v 13.5 c 0,1.3 1.1,2.4 2.4,2.4 h 13.5 c 1.3,0 2.4,-1.1 2.4,-2.4 v -13.5 c 0,-1.3 -1.1,-2.4 -2.4,-2.4 z m -2.4,13.6 h -8.8 v -8.8 h 8.8 z"
           class="st0"
           inkscape:connector-curvature="0"
           style="fill:#606060" />
        <path
           id="path1677"
           d="m 1018,898.5 h -13.5 c -1.3,0 -2.4,1.1 -2.4,2.4 v 13.5 c 0,1.3 1.1,2.4 2.4,2.4 h 13.5 c 1.3,0 2.4,-1.1 2.4,-2.4 v -13.5 c 0,-1.3 -1.1,-2.4 -2.4,-2.4 z m -2.4,13.6 h -8.8 v -8.8 h 8.8 z"
           class="st0"
           inkscape:connector-curvature="0"
           style="fill:#606060" />
      </g>
      <g
         id="g1701">
        <path
           id="path1681"
           d="M 1348.5,798.8 H 1264 c -1.3,0 -2.4,1.1 -2.4,2.4 v 78.9 h -42 c -5.9,0 -10.8,4.8 -10.8,10.8 0,5.9 4.8,10.8 10.8,10.8 h 46 c 7.2,16 23,26.3 40.7,26.3 24.6,0 44.6,-20 44.6,-44.6 v -82.1 c 0,-1.4 -1.1,-2.5 -2.4,-2.5 z m -134.9,92.1 c 0,-3.3 2.7,-6 6,-6 h 79.3 c 3.3,0 6,2.7 6,6 0,3.3 -2.7,6 -6,6 h -79.3 c -3.3,-0.1 -6,-2.7 -6,-6 z m 86.6,-10.7 c 1.8,-1 3.9,-1.5 6.1,-1.5 7.2,0 13.1,5.9 13.1,13.1 0,7.2 -5.9,13.1 -13.1,13.1 -3.2,0 -6.3,-1.2 -8.6,-3.3 h 1.2 c 5.9,0 10.8,-4.8 10.8,-10.8 0,-5.4 -4.2,-9.9 -9.5,-10.6 z m 45.9,3.1 c 0,22 -17.9,39.8 -39.8,39.8 -15.1,0 -28.6,-8.4 -35.4,-21.5 h 20.5 c 3.3,5 8.8,8 14.9,8 9.9,0 17.9,-8 17.9,-17.9 0,-9.9 -8,-17.9 -17.9,-17.9 -5.2,0 -10.1,2.3 -13.5,6.2 h -26.4 v -76.5 h 79.7 z"
           class="st0"
           inkscape:connector-curvature="0"
           style="fill:#606060" />
        <path
           id="path1683"
           d="m 1280.5,826.7 h 11.5 c 1.3,0 2.4,-1.1 2.4,-2.4 v -11.5 c 0,-1.3 -1.1,-2.4 -2.4,-2.4 h -11.5 c -1.3,0 -2.4,1.1 -2.4,2.4 v 11.5 c 0,1.3 1.1,2.4 2.4,2.4 z m 2.4,-11.6 h 6.8 v 6.8 h -6.8 z"
           class="st0"
           inkscape:connector-curvature="0"
           style="fill:#606060" />
        <path
           id="path1685"
           d="m 1300.5,826.7 h 11.5 c 1.3,0 2.4,-1.1 2.4,-2.4 v -11.5 c 0,-1.3 -1.1,-2.4 -2.4,-2.4 h -11.5 c -1.3,0 -2.4,1.1 -2.4,2.4 v 11.5 c 0,1.3 1.1,2.4 2.4,2.4 z m 2.4,-11.6 h 6.8 v 6.8 h -6.8 z"
           class="st0"
           inkscape:connector-curvature="0"
           style="fill:#606060" />
        <path
           id="path1687"
           d="m 1320.5,826.7 h 11.5 c 1.3,0 2.4,-1.1 2.4,-2.4 v -11.5 c 0,-1.3 -1.1,-2.4 -2.4,-2.4 h -11.5 c -1.3,0 -2.4,1.1 -2.4,2.4 v 11.5 c 0,1.3 1.1,2.4 2.4,2.4 z m 2.4,-11.6 h 6.8 v 6.8 h -6.8 z"
           class="st0"
           inkscape:connector-curvature="0"
           style="fill:#606060" />
        <path
           id="path1689"
           d="m 1280.5,846.9 h 11.5 c 1.3,0 2.4,-1.1 2.4,-2.4 V 833 c 0,-1.3 -1.1,-2.4 -2.4,-2.4 h -11.5 c -1.3,0 -2.4,1.1 -2.4,2.4 v 11.5 c 0,1.3 1.1,2.4 2.4,2.4 z m 2.4,-11.6 h 6.8 v 6.8 h -6.8 z"
           class="st0"
           inkscape:connector-curvature="0"
           style="fill:#606060" />
        <path
           id="path1691"
           d="m 1300.5,846.9 h 11.5 c 1.3,0 2.4,-1.1 2.4,-2.4 V 833 c 0,-1.3 -1.1,-2.4 -2.4,-2.4 h -11.5 c -1.3,0 -2.4,1.1 -2.4,2.4 v 11.5 c 0,1.3 1.1,2.4 2.4,2.4 z m 2.4,-11.6 h 6.8 v 6.8 h -6.8 z"
           class="st0"
           inkscape:connector-curvature="0"
           style="fill:#606060" />
        <path
           id="path1693"
           d="m 1320.5,846.9 h 11.5 c 1.3,0 2.4,-1.1 2.4,-2.4 V 833 c 0,-1.3 -1.1,-2.4 -2.4,-2.4 h -11.5 c -1.3,0 -2.4,1.1 -2.4,2.4 v 11.5 c 0,1.3 1.1,2.4 2.4,2.4 z m 2.4,-11.6 h 6.8 v 6.8 h -6.8 z"
           class="st0"
           inkscape:connector-curvature="0"
           style="fill:#606060" />
        <path
           id="path1695"
           d="m 1280.5,867.1 h 11.5 c 1.3,0 2.4,-1.1 2.4,-2.4 v -11.5 c 0,-1.3 -1.1,-2.4 -2.4,-2.4 h -11.5 c -1.3,0 -2.4,1.1 -2.4,2.4 v 11.5 c 0,1.3 1.1,2.4 2.4,2.4 z m 2.4,-11.6 h 6.8 v 6.8 h -6.8 z"
           class="st0"
           inkscape:connector-curvature="0"
           style="fill:#606060" />
        <path
           id="path1697"
           d="m 1300.5,867.1 h 11.5 c 1.3,0 2.4,-1.1 2.4,-2.4 v -11.5 c 0,-1.3 -1.1,-2.4 -2.4,-2.4 h -11.5 c -1.3,0 -2.4,1.1 -2.4,2.4 v 11.5 c 0,1.3 1.1,2.4 2.4,2.4 z m 2.4,-11.6 h 6.8 v 6.8 h -6.8 z"
           class="st0"
           inkscape:connector-curvature="0"
           style="fill:#606060" />
        <path
           id="path1699"
           d="m 1320.5,867.1 h 11.5 c 1.3,0 2.4,-1.1 2.4,-2.4 v -11.5 c 0,-1.3 -1.1,-2.4 -2.4,-2.4 h -11.5 c -1.3,0 -2.4,1.1 -2.4,2.4 v 11.5 c 0,1.3 1.1,2.4 2.4,2.4 z m 2.4,-11.6 h 6.8 v 6.8 h -6.8 z"
           class="st0"
           inkscape:connector-curvature="0"
           style="fill:#606060" />
      </g>
      <g
         id="g1707">
        <path
           id="path1703"
           d="m 1220.2,113.7 11.3,-8.3 V 178 c 0,1.3 1.1,2.4 2.4,2.4 h 91.9 c 1.3,0 2.4,-1.1 2.4,-2.4 v -72.6 l 11.3,8.3 c 1.1,0.8 2.6,0.5 3.3,-0.5 0.8,-1.1 0.5,-2.6 -0.5,-3.3 l -15.1,-11.1 c 0,0 0,0 0,0 l -45.9,-33.6 c -0.8,-0.6 -2,-0.6 -2.8,0 l -61.1,44.7 c -1.1,0.8 -1.3,2.3 -0.5,3.3 0.7,1.1 2.2,1.3 3.3,0.5 z m 16.1,-11.7 43.6,-31.9 43.6,31.9 v 73.7 h -87.1 V 102 Z"
           class="st0"
           inkscape:connector-curvature="0"
           style="fill:#606060" />
        <path
           id="path1705"
           d="m 1279.9,104.3 c -14.7,0 -26.7,12 -26.7,26.7 0,1.3 1.1,2.4 2.4,2.4 h 22 v 21.8 c 0,1.9 -1.5,3.4 -3.4,3.4 -1.9,0 -3.4,-1.5 -3.4,-3.4 0,-1.3 -1.1,-2.4 -2.4,-2.4 -1.3,0 -2.4,1.1 -2.4,2.4 0,4.5 3.7,8.2 8.2,8.2 4.5,0 8.2,-3.7 8.2,-8.2 v -21.8 h 22 c 1.3,0 2.4,-1.1 2.4,-2.4 -0.2,-14.7 -12.2,-26.7 -26.9,-26.7 z m -21.9,24.4 c 1.2,-11 10.5,-19.6 21.8,-19.6 11.3,0 20.6,8.6 21.8,19.6 z"
           class="st0"
           inkscape:connector-curvature="0"
           style="fill:#606060" />
      </g>
    </g>
    <path
       id="path1599"
       d="m 4.5323131,288.75121 c -1.3247728,0 -2.4373232,0.7412 -2.449926,2.06593 l -0.00995,1.04487 c -0.446391,0.0505 -0.7820433,0.48868 -0.7820433,0.94227 v 3.00956 c 0,0.48957 0.3959919,0.88557 0.8855818,0.88557 h 4.6223085 c 0.4895898,0 0.8855819,-0.396 0.8855819,-0.88557 v -3.00234 c 0,-0.4536 -0.3289679,-0.85838 -0.775358,-0.90156 L 6.89189,290.82432 c 0.00721,-1.33196 -1.0276022,-2.07311 -2.3595743,-2.07311 z m -2.1043332,2.07311 c 0,-1.13755 1.0059005,-1.69065 2.1362771,-1.69065 1.1303768,0 1.9820376,0.56029 1.9820376,1.69065 v 1.10158 H 2.4279799 Z m 4.9174982,1.98718 v 3.00951 c 0,0.29521 -0.2514102,0.48712 -0.5466042,0.48712 H 2.1765693 c -0.2951942,0 -0.5333732,-0.19187 -0.5333732,-0.48712 v -3.00951 c 0,-0.29521 0.2447947,-0.53998 0.5399889,-0.53998 h 0.079197 4.4711083 0.079198 c 0.2879939,0 0.5327884,0.23759 0.5327898,0.53998 z"
       class="st0"
       inkscape:connector-curvature="0"
       style="fill-opacity:1;stroke-width:0.07199851"
       sodipodi:nodetypes="sscssssssccssssccscsssssscccc" />
    <path
       id="path1601"
       d="m 4.4894639,294.36013 c -0.241606,0 -0.4358385,0.19424 -0.4358385,0.43584 0,0.10421 0.037898,0.20371 0.1089602,0.28423 l -0.1042233,0.66325 c -0.00473,0.0332 0.00473,0.0663 0.023688,0.09 0.023686,0.0236 0.052111,0.0378 0.085274,0.0378 h 0.6395439 c 0.033161,0 0.066323,-0.0134 0.085273,-0.0378 0.023688,-0.0238 0.033161,-0.0569 0.023688,-0.09 l -0.1042233,-0.6585 c 0.071062,-0.0805 0.1089602,-0.17994 0.1089602,-0.28426 0.00473,-0.24162 -0.1894956,-0.44056 -0.4311022,-0.44056 z m 0.094747,0.70113 0.094747,0.58741 H 4.3047064 l 0.09001,-0.55425 c 0.018952,-0.0473 0.00947,-0.0997 -0.033162,-0.13272 -0.047374,-0.0378 -0.075799,-0.0997 -0.075799,-0.16101 0,-0.11379 0.094747,-0.20843 0.2084443,-0.20843 0.113697,0 0.2084445,0.0947 0.2084445,0.20843 0,0.0617 -0.028425,0.11837 -0.075799,0.16101 -0.033161,0.0192 -0.052111,0.0568 -0.042638,0.0995 z"
       class="st0"
       inkscape:connector-curvature="0"
       style="fill:#000000;fill-opacity:1;stroke-width:0.04737373" />
    <path
       id="path1599-0"
       style="fill:#000000;fill-opacity:1;stroke-width:0.05850257"
       d="m 4.5432807,289.48411 c -0.9773637,0 -1.75813,0.36732 -1.7674277,1.55286 l -0.028318,1.00693 c 0.00423,2.6e-4 0.00732,-0.001 0.011666,-8.8e-4 0.085358,0.007 0.1658343,0.0437 0.2478826,0.0698 l 0.023958,-1.06882 c 0.022814,-1.01778 0.7023674,-1.2177 1.5363133,-1.2177 0.8339461,0 1.3819198,0.34186 1.3819198,1.35347 l -0.023958,0.93777 h 0.1501912 0.1122759 l 0.016656,-0.93777 c 0.00531,-1.19203 -0.678477,-1.69574 -1.6611525,-1.69574 z m 0.014094,3.1496 c -3.252e-4,0.004 -5.374e-4,0.007 -7.28e-4,0.0115 0.024566,-7e-4 0.049072,10e-4 0.073636,8.9e-4 -0.027697,-0.002 -0.04467,-0.007 -0.072907,-0.0115 z m 2.2396948,2.55763 c 0.00916,-0.007 -0.012755,0.009 -0.028435,0.0256 l 7.281e-4,9.2e-4 c 0.01004,-0.007 0.018626,-0.0172 0.027705,-0.0267 z m -0.2537155,0.84991 c -0.00115,4.9e-4 -0.00394,0.002 -0.00511,0.004 -2.3e-4,7.9e-4 2.342e-4,0.002 0,0.004 0.00178,-0.002 0.00331,-0.004 0.00511,-0.005 z"
       inkscape:connector-curvature="0"
       sodipodi:nodetypes="cccccsssccccccccccccccccccccc" />
  </g>
  <style
     id="style1559"
     type="text/css">
	.st0{fill:#606060;}
</style>
</svg>
