<svg version="1.1" viewBox="0 0 22 24" xmlns="http://www.w3.org/2000/svg"><title>Telephone</title><path d="m13.9 23.7c-7.37 3.37-18.8-18.9-11.6-22.6l2.11-1.04 3.49 6.82-2.08 1.03c-2.19 1.17 2.37 10.1 4.61 8.99 0.091-0.041 2.06-1.01 2.06-1.01l3.52 6.8c-8e-3 4e-3 -1.99 0.978-2.11 1.03zm-1.54-13.4 2.92 0.87c0.223-0.747 0.16-1.58-0.24-2.32-0.399-0.739-1.06-1.25-1.81-1.47zm1.8-6.06c1.55 0.462 2.93 1.52 3.76 3.05 0.831 1.54 0.96 3.26 0.498 4.81l-1.8-0.535c0.325-1.09 0.233-2.31-0.352-3.39-0.583-1.08-1.55-1.82-2.64-2.15zm0.95-3.19c2.36 0.705 4.46 2.31 5.73 4.66 1.27 2.34 1.47 4.98 0.761 7.34l-1.84-0.548c0.564-1.9 0.406-4.01-0.608-5.88-1.02-1.88-2.7-3.16-4.59-3.73z"/></svg>
