<svg version="1.1" viewBox="0 0 23.9 24" xmlns="http://www.w3.org/2000/svg"><title>WhatsApp</title><path d="m0 24 1.69-6.16c-1.04-1.8-1.59-3.85-1.59-5.95 3e-3 -6.56 5.34-11.9 11.9-11.9 3.18 1e-3 6.17 1.24 8.41 3.49s3.48 5.24 3.48 8.41c-3e-3 6.56-5.34 11.9-11.9 11.9-1.99-1e-3 -3.95-0.5-5.69-1.45zm6.6-3.81c1.68 0.995 3.28 1.59 5.39 1.59 5.45 0 9.89-4.43 9.89-9.88 2e-3 -5.46-4.42-9.89-9.88-9.89-5.45 0-9.89 4.43-9.89 9.88-1e-3 2.22 0.651 3.89 1.75 5.63l-0.999 3.65zm11.4-5.46c-0.074-0.124-0.272-0.198-0.57-0.347-0.297-0.149-1.76-0.868-2.03-0.967-0.272-0.099-0.47-0.149-0.669 0.149-0.198 0.297-0.768 0.967-0.941 1.16s-0.347 0.223-0.644 0.074-1.26-0.462-2.39-1.48c-0.883-0.788-1.48-1.76-1.65-2.06-0.173-0.297-0.018-0.458 0.13-0.606 0.134-0.133 0.297-0.347 0.446-0.521 0.151-0.172 0.2-0.296 0.3-0.495 0.099-0.198 0.05-0.372-0.025-0.521-0.075-0.148-0.669-1.61-0.916-2.21-0.242-0.579-0.487-0.501-0.669-0.51l-0.57-0.01c-0.198 0-0.52 0.074-0.792 0.372s-1.04 1.02-1.04 2.48 1.06 2.88 1.21 3.07c0.149 0.198 2.1 3.2 5.08 4.49 0.709 0.306 1.26 0.489 1.69 0.626 0.712 0.226 1.36 0.194 1.87 0.118 0.571-0.085 1.76-0.719 2.01-1.41 0.248-0.695 0.248-1.29 0.173-1.41z"/></svg>
