<?xml version="1.0" encoding="UTF-8"?>
<svg id="twittera" width="50px" height="50px" enable-background="new 0 0 50 50" version="1.1" viewBox="0 0 50 50" xml:space="preserve" xmlns="http://www.w3.org/2000/svg" xmlns:cc="http://creativecommons.org/ns#" xmlns:dc="http://purl.org/dc/elements/1.1/" xmlns:osb="http://www.openswatchbook.org/uri/2009/osb" xmlns:rdf="http://www.w3.org/1999/02/22-rdf-syntax-ns#"><metadata id="twitterb"><rdf:RDF><cc:Work rdf:about=""><dc:format>image/svg+xml</dc:format><dc:type rdf:resource="http://purl.org/dc/dcmitype/StillImage"/><dc:title/></cc:Work></rdf:RDF></metadata>

<path id="twitterc" d="m49 11.096c-1.768 0.784-3.664 1.311-5.658 1.552 2.035-1.22 3.597-3.151 4.332-5.448-1.903 1.127-4.013 1.947-6.255 2.388-1.795-1.916-4.354-3.11-7.186-3.11-5.44 0-9.849 4.409-9.849 9.847 0 0.771 0.088 1.522 0.257 2.244-8.184-0.412-15.441-4.332-20.299-10.29-0.848 1.458-1.332 3.149-1.332 4.953 0 3.416 1.735 6.429 4.38 8.197-1.616-0.051-3.132-0.495-4.46-1.233v0.125c0 4.773 3.394 8.748 7.896 9.657-0.824 0.227-1.694 0.346-2.592 0.346-0.636 0-1.253-0.062-1.856-0.178 1.257 3.909 4.892 6.761 9.201 6.84-3.368 2.641-7.614 4.213-12.23 4.213-0.797 0-1.579-0.044-2.348-0.137 4.356 2.795 9.534 4.425 15.095 4.425 18.114 0 28.022-15.007 28.022-28.016 0-0.429-0.011-0.856-0.029-1.275 1.923-1.389 3.592-3.125 4.911-5.1z" fill="none" stroke="#000" stroke-linecap="round" stroke-linejoin="round" stroke-miterlimit="10" stroke-width="2"/>
</svg>
