<?xml version="1.0" encoding="UTF-8"?>
<svg width="32" height="32" version="1.1" viewBox="0 0 8.4667 8.4667" xmlns="http://www.w3.org/2000/svg" xmlns:cc="http://creativecommons.org/ns#" xmlns:dc="http://purl.org/dc/elements/1.1/" xmlns:rdf="http://www.w3.org/1999/02/22-rdf-syntax-ns#">
 <metadata>
  <rdf:RDF>
   <cc:Work rdf:about="">
    <dc:format>image/svg+xml</dc:format>
    <dc:type rdf:resource="http://purl.org/dc/dcmitype/StillImage"/>
    <dc:title/>
   </cc:Work>
  </rdf:RDF>
 </metadata>
 <g transform="translate(0 -288.53)">
  <g transform="matrix(.016466 0 0 .016466 .43746 288.61)">
   <path d="m230.58-4.706c-5.9202 0-10.697 4.809-10.697 10.728v14.83c0 5.9186 4.7767 10.728 10.697 10.728s10.731-4.809 10.731-10.728v-14.83c0-5.9186-4.8103-10.728-10.731-10.728zm-165.2 31.847c-2.7434 0-5.5088 1.0346-7.6022 3.1275-4.1869 4.1857-4.1869 10.985 0 15.167l30.308 30.3c4.1869 4.1857 10.984 4.1857 15.171 0 4.1869-4.1857 4.1869-10.952 0-15.133l-30.308-30.333c-2.0934-2.0929-4.8251-3.1275-7.5686-3.1275zm330.43 0c-2.7429 0-5.5067 1.0346-7.6022 3.1275l-30.308 30.333c-4.1869 4.1816-4.1869 10.947 0 15.133 4.1869 4.1857 10.98 4.1857 15.171 0l30.308-30.3c4.1869-4.1857 4.1869-10.981 0-15.167-2.0934-2.0929-4.8257-3.1275-7.5686-3.1275zm-168.02 25.894c-83.959 1.4399-154.78 70.832-157.86 154.69-1.6371 44.427 14.627 86.428 45.815 118.24 25.674 26.165 39.828 58.566 39.828 91.236v38.707c0 29.543 24.035 53.571 53.586 53.571h42.855c29.551 0 53.619-24.028 53.619-53.571v-38.842c0-33.26 13.586-65.064 38.28-89.588 30.602-30.38 47.463-70.771 47.463-113.73 0-89.508-73.418-162.24-163.58-160.71zm0.37001 21.422c77.796-1.3352 141.75 61.408 141.75 139.29 0 37.211-14.586 72.209-41.106 98.533-28.776 28.58-44.638 65.777-44.638 104.79v0.26906h-21.428v-81.147h10.731c17.731 0 32.158-14.423 32.158-32.149 0-17.727-14.427-32.149-32.158-32.149-17.731 0-32.158 14.423-32.158 32.149 0 3.7588 0.66103 7.3749 1.8501 10.728h-25.128c1.1891-3.3528 1.8501-6.9689 1.8501-10.728 0-17.727-14.427-32.149-32.158-32.149-17.731 0-32.158 14.423-32.158 32.149 0 17.727 14.427 32.149 32.158 32.149h10.697v81.147h-21.428v-0.13452c0-38.316-16.328-76.072-45.95-106.27-27.026-27.563-41.112-63.913-39.693-102.4 2.6712-72.677 64.047-132.84 136.81-134.08zm2.4219 21.422c-37.313 0-71.338 18.854-91.025 50.444-3.1276 5.0229-1.5932 11.632 3.4311 14.763 5.0452 3.1393 11.648 1.576 14.767-3.4302 15.743-25.265 42.966-40.355 72.827-40.355 5.9202 0 10.731-4.809 10.731-10.728s-4.8103-10.694-10.731-10.694zm52.24 14.898c-5.916 0-10.731 4.8132-10.731 10.728s4.8145 10.694 10.731 10.694 10.731-4.7796 10.731-10.694-4.8145-10.728-10.731-10.728zm-298.52 71.118c-5.9201 0.0328-10.697 4.809-10.697 10.728 0 5.9186 4.7768 10.727 10.697 10.694l53.363-0.29555c5.9201-0.0328 10.697-4.7754 10.697-10.694 0-5.9186-4.7768-10.76-10.697-10.728zm439.23-0.29555c-5.9203 0-10.731 4.809-10.731 10.728 0 5.9186 4.8103 10.694 10.731 10.694h53.535c5.9202 0 10.731-4.7754 10.731-10.694 0-5.9186-4.8103-10.728-10.731-10.728zm-235.8 111.72c5.9119 0 10.697 4.8174 10.697 10.728 0 5.9103-4.7851 10.728-10.697 10.728-5.9119 0-10.731-4.8174-10.731-10.728 0-5.9103 4.8187-10.728 10.731-10.728zm85.744 0c5.9119 0 10.697 4.8174 10.697 10.728 0 5.9103-4.7851 10.728-10.697 10.728-5.9119 0-10.731-4.8174-10.731-10.728 0-5.9103 4.8187-10.728 10.731-10.728zm-53.586 42.877h21.428v81.147h-21.428zm-42.889 102.57h107.17v17.151c0 17.727-14.427 32.149-32.158 32.149h-42.855c-17.731 0-32.158-14.423-32.158-32.149z" stroke-width="1.0717"/>
  </g>
 </g>
</svg>
