<?xml version="1.0" encoding="UTF-8"?>
<svg width="32" height="32" version="1.1" viewBox="0 0 8.4668 8.4668" xmlns="http://www.w3.org/2000/svg" xmlns:cc="http://creativecommons.org/ns#" xmlns:dc="http://purl.org/dc/elements/1.1/" xmlns:rdf="http://www.w3.org/1999/02/22-rdf-syntax-ns#">
 <metadata>
  <rdf:RDF>
   <cc:Work rdf:about="">
    <dc:format>image/svg+xml</dc:format>
    <dc:type rdf:resource="http://purl.org/dc/dcmitype/StillImage"/>
    <dc:title/>
   </cc:Work>
  </rdf:RDF>
 </metadata>
 <g transform="matrix(1 0 0 1.0652 -1.0366 -307.59)">
  <path d="m5.3295 288.75c-1.7544 0-3.2271 0.74128-3.2438 2.066l-0.013687 1.0449c-0.59113 0.0505-1.0354 0.48847-1.0354 0.94204v3.0096c0 0.48955 0.52459 0.88573 1.173 0.88573h6.1209c0.64835 0 1.173-0.39615 1.173-0.88573v-3.0025c0-0.45359-0.43535-0.85803-1.0265-0.90121l-0.021899-1.0857c0.00955-1.332-1.3615-2.0732-3.1254-2.0732zm0.042428 0.3824c1.4969 0 2.6251 0.56049 2.6251 1.6908v1.1012h-0.36818l-0.013685-0.73794c0.00705-1.0621-1.0033-1.6531-2.3042-1.6531-1.2939 0-2.3808 0.59104-2.3932 1.6474l-0.00821 0.7436h-0.36682v-1.1012c0-1.1375 1.3321-1.6908 2.8291-1.6908zm-0.030112 0.7059c1.104 0 1.936 0.44685 1.936 1.3482v0.73794h-4.0221v-0.73794c0-0.90711 0.98188-1.3482 2.0859-1.3482zm-3.1227 2.4319h6.1303c0.38139 0 0.70557 0.23763 0.70557 0.54001v3.0096c0 0.29521-0.33243 0.4873-0.72337 0.4873h-6.1216c-0.39092 0-0.70623-0.19206-0.70623-0.4873v-3.0096c0-0.29522 0.32422-0.54001 0.71513-0.54001zm3.0542 1.5596c-0.31996 0-0.57757 0.19403-0.57757 0.43563 0 0.10421 0.05029 0.2037 0.1444 0.28421l-0.13824 0.66351c-0.00626 0.0332 0.00637 0.0662 0.031479 0.0899 0.031366 0.0236 0.068997 0.0377 0.11292 0.0377h0.84723c0.043914 0 0.08782-0.0133 0.11292-0.0377 0.03137-0.0238 0.044025-0.0568 0.031479-0.0899l-0.13824-0.65835c0.094106-0.0805 0.1444-0.18041 0.1444-0.28474 0.00626-0.24162-0.25079-0.44029-0.57074-0.44029zm0.00616 0.23202c0.15057 0 0.27579 0.0945 0.27579 0.20825 0 0.0617-0.037862 0.11859-0.1006 0.16123-0.043914 0.0192-0.068661 0.057-0.056117 0.0997l0.12523 0.58705h-0.49548l0.11907-0.55398c0.025098-0.0473 0.01266-0.0998-0.043797-0.13281-0.062736-0.0378-0.1006-0.0999-0.1006-0.16123 0-0.11378 0.12591-0.20825 0.27647-0.20825z" stroke-width=".082854"/>
 </g>
 <style type="text/css">.st0{fill:#606060;}</style>
</svg>
