<svg version="1.1" viewBox="0 0 262 90.1" xmlns="http://www.w3.org/2000/svg"><title>Breakout logo (Home)</title><path d="m32.1 89.8c-6.19-1.2-10.7-3.31-15.4-7.28-5.42-4.53-9.85-12.2-10.8-18.6-0.206-1.4-0.29-1.51-1.24-1.6-0.969-0.0938-1.03-0.183-1.23-1.7l-0.203-1.6-0.0096 1.76c-0.0052 0.968-0.0219 1.95-0.0368 2.18-0.019 0.291-0.44 0.389-1.39 0.32l-1.36-0.0984v-8.96h2.56l0.186 1.92c0.156 1.61 0.195 1.7 0.24 0.582 0.0413-1.03 0.202-1.39 0.691-1.54 0.35-0.111 0.778-0.115 0.951-8e-3 0.327 0.202 0.515-0.403 0.79-2.55 0.47-3.66 2.23-8.16 4.75-12.1l0.995-1.57-2.06-1.86c-2.21-2-2.7-2.26-2.38-1.25 0.177 0.559 0.0575 0.64-0.949 0.64-2.3 0-4.4-1.47-5.68-3.97-0.49-0.96-0.611-1.7-0.51-3.09 0.156-2.16 1.07-3.71 2.95-5.02 1.08-0.757 1.56-0.875 3.57-0.875 2.07 0 2.47 0.106 3.7 0.973 2.24 1.57 3.74 5.04 2.3 5.32-0.368 0.0714 0.168 0.677 1.73 1.96l2.26 1.85 2.67-1.82c3.19-2.17 6.17-3.65 9.04-4.47 1.76-0.504 2.11-0.718 2.11-1.29 0-0.936 0.526-1.08 3.99-1.08 2.42 0 3.02 0.0948 3.17 0.506 0.253 0.658 0.253 6.33 0 6.99-0.12 0.313-0.578 0.506-1.2 0.506-1.69 9.3e-5 -5.76 0.886-8.08 1.76-3.25 1.22-6.4 3.32-8.95 5.97-2.76 2.86-4.57 5.85-5.95 9.87-1 2.9-1.05 3.25-1.03 7.68 0.0133 4.12 0.111 4.94 0.87 7.33 2.62 8.26 8.53 14.2 17 17 1.97 0.665 2.83 0.756 7.2 0.756 4.32 3.1e-4 5.24-0.0944 7.17-0.734 9.51-3.17 15.8-10.1 17.7-19.5 0.255-1.29 0.463-2.79 0.463-3.32v-0.975l-0.717 0.923c-1.57 2.02-3.66 3-6.39 3-4.07 0-7.41-3.39-7.4-7.52 0.0026-1.09 0.242-2.47 0.551-3.2 1.53-3.58 5.9-5.46 9.74-4.18 1.94 0.643 4.33 3.08 4.84 4.92 0.421 1.52 0.421 3.77-2e-3 4.56-0.317 0.593-0.195 0.619 2.93 0.619h3.26l-0.185 2.96c-0.451 7.22-3.8 14.4-9.35 19.9-4.3 4.32-9.2 7.06-15.5 8.67-2.59 0.661-9.6 0.84-12.3 0.314zm24.5-31.2c0-0.176-0.144-0.32-0.32-0.32s-0.32 0.144-0.32 0.32 0.144 0.32 0.32 0.32 0.32-0.144 0.32-0.32zm0.468-2.55c0.79-0.873 0.427-2.18-0.683-2.46-1.1-0.276-1.84 0.211-1.97 1.29-0.2 1.68 1.5 2.43 2.65 1.16zm-4.31-2.57c0-0.176-0.0635-0.32-0.141-0.32-0.0776 0-0.23 0.144-0.339 0.32s-0.0453 0.32 0.141 0.32c0.186 0 0.339-0.144 0.339-0.32zm6.4-0.64c0-0.176-0.144-0.32-0.32-0.32s-0.32 0.144-0.32 0.32 0.144 0.32 0.32 0.32 0.32-0.144 0.32-0.32zm-53.3-18.9-0.899-0.938 1.97-2.41c1.08-1.33 2.12-2.5 2.3-2.62 0.185-0.114 0.775 0.204 1.31 0.708l0.977 0.915-0.228-0.96c-0.58-2.44-2.8-3.9-5.47-3.6-2.75 0.31-4.51 2.54-4.24 5.36 0.236 2.45 2.19 4.45 4.39 4.47l0.78 0.0073-0.899-0.938zm41.1 41.6c-2.52-1.36-3.71-3.11-3.81-5.62-0.0868-2.05 0.572-3.66 2.08-5.09 1.9-1.8 4.38-2.21 6.76-1.13 3.32 1.51 4.93 4.85 3.79 7.85-0.683 1.79-1.84 3.21-3.17 3.9-1.49 0.776-4.28 0.817-5.64 0.0823zm1.92-2.4c0-1.02-0.149-1.51-0.498-1.64-0.598-0.229-2.75 0.862-2.61 1.32 0.0781 0.26 2.65 1.77 3.01 1.77 0.0507 0 0.0922-0.653 0.0922-1.45zm3.5 0.524c1.14-0.808 1.12-1.14-0.0897-1.79-1.57-0.843-2.13-0.503-2.13 1.29 0 1.37 0.0476 1.46 0.72 1.26 0.396-0.114 1.07-0.457 1.5-0.761zm-6.03-2.82c1.22-0.721 1.21-1.71-0.0313-2.44-1.25-0.738-1.6-0.476-1.6 1.2 0 1.94 0.201 2.09 1.63 1.25zm8.01-0.171c0.0697-1.11-0.0432-2.58-0.211-2.75-0.0829-0.0829-0.656 0.121-1.27 0.453-1.38 0.741-1.47 1.69-0.241 2.43 1.23 0.74 1.67 0.706 1.72-0.131zm-4.24-0.678c0.277-0.333 0.245-0.536-0.134-0.85-0.612-0.508-1.29 0.0276-1 0.786 0.237 0.618 0.658 0.641 1.14 0.064zm-1.31-3.8c0.0536-0.836-0.0184-1.52-0.16-1.51-0.451 9e-3 -2.76 1.42-2.87 1.75-0.144 0.442 1.51 1.41 2.29 1.34 0.527-0.047 0.657-0.326 0.738-1.58zm3.62 1.13c0.513-0.303 0.886-0.69 0.829-0.861-0.145-0.436-1.53-1.38-2.38-1.62-0.671-0.194-0.72-0.109-0.72 1.23 0 1.86 0.647 2.22 2.27 1.26zm-17.2-0.793c-0.211-0.211-0.384-0.918-0.384-1.57 0-0.933-0.211-1.36-0.984-2.02-0.966-0.813-1.19-0.835-3.18-0.326-0.614 0.157-1.09-0.162-1.55-1.04-0.562-1.07-0.467-1.31 0.88-2.2 1.74-1.15 1.93-2.67 0.55-4.4-0.927-1.16-0.952-1.27-0.496-2.08 0.614-1.09 1.44-1.24 2.8-0.512 1.05 0.567 1.11 0.566 2.23-0.0435 0.729-0.397 1.24-0.957 1.39-1.53 0.34-1.29 0.877-1.82 1.86-1.82 1.2 0 1.62 0.554 1.62 2.11 0 1.78 1.04 2.53 3.5 2.53 1.58 0 1.79 0.0849 2.24 0.898 0.491 0.886 0.479 0.913-0.868 2.08-1.65 1.43-1.81 2.71-0.555 4.35 0.997 1.31 1 1.81 0.034 2.72l-0.766 0.72-1.29-0.658c-1.18-0.6-1.39-0.618-2.38-0.2-0.838 0.35-1.23 0.798-1.65 1.91-0.501 1.31-0.659 1.46-1.59 1.46-0.566 0-1.2-0.173-1.41-0.384zm3.83-6.87c0.792-0.717 0.762-2.49-0.0548-3.31-1.36-1.36-3.84-0.368-3.84 1.53 0 1.43 0.818 2.31 2.15 2.31 0.636 0 1.42-0.238 1.74-0.53zm3.49-7.85c-3.47-1.8-3.28-6.31 0.314-7.75 2.67-1.07 5.74 0.934 5.74 3.74-0.0032 3.44-3.15 5.52-6.06 4zm1.03-2.53c-0.36-0.36-1.77 0.614-1.5 1.04 0.109 0.176 0.507 0.436 0.885 0.578 0.577 0.216 0.704 0.129 0.792-0.541 0.0578-0.439-0.0201-0.924-0.173-1.08zm2.59 1.35c0.894-0.59 0.901-0.615 0.261-0.958-1.16-0.62-1.66-0.436-1.66 0.608 0 1.12 0.164 1.16 1.4 0.35zm-3.39-2.65c0.0509-0.256-0.273-0.631-0.72-0.835-0.798-0.364-0.812-0.347-0.812 0.942 0 1.29 0.0128 1.3 0.72 0.835 0.396-0.262 0.762-0.686 0.812-0.942zm4.68-0.566c-0.287-0.623-0.294-0.623-1.09 0l-0.8 0.627 0.8 0.627c0.794 0.623 0.802 0.623 1.09 0 0.172-0.373 0.172-0.881 0-1.25zm-2.69 0.627c0-0.176-0.216-0.32-0.48-0.32s-0.48 0.144-0.48 0.32 0.216 0.32 0.48 0.32 0.48-0.144 0.48-0.32zm-0.817-2.32c0.0324-0.743-0.0627-0.849-0.612-0.681-0.358 0.109-0.844 0.353-1.08 0.543-0.351 0.282-0.323 0.421 0.154 0.77 0.859 0.628 1.49 0.367 1.54-0.632zm2.48 0.687c0.64-0.343 0.633-0.368-0.261-0.958-1.23-0.814-1.4-0.773-1.4 0.35 0 1.04 0.501 1.23 1.66 0.608zm5.26 1.05c-0.44-0.44-0.635-0.46-1.18-0.123-0.807 0.504-1.37 0.193-1.15-0.636 0.106-0.406-0.106-0.862-0.601-1.29-0.85-0.739-0.768-1.11 0.339-1.53 0.543-0.207 0.698-0.459 0.573-0.936-0.231-0.882 0.748-1.26 1.3-0.501 0.333 0.455 0.536 0.493 1.08 0.2 1.02-0.543 1.41-0.438 1.34 0.359-0.0994 1.23-0.0044 1.52 0.493 1.52 0.746 0 0.565 1.09-0.24 1.44-0.48 0.211-0.689 0.543-0.627 0.996 0.121 0.883-0.661 1.17-1.34 0.499zm0.207-2.17c0.305-0.305-0.112-1.09-0.58-1.09-0.536 0-0.886 0.537-0.625 0.96 0.219 0.354 0.906 0.427 1.2 0.129zm-6.26-1.93c-0.126-0.126-0.228-0.685-0.228-1.24 0-0.795-0.189-1.1-0.873-1.41-0.796-0.363-0.933-0.322-1.56 0.462-0.751 0.942-1.33 0.84-2.49-0.44-0.575-0.635-0.573-0.677 0.0519-1.55 0.584-0.82 0.6-0.983 0.178-1.79-0.395-0.755-0.637-0.873-1.62-0.795-1.07 0.085-1.18 0.0124-1.44-0.987-0.386-1.45-0.129-1.96 0.988-1.96 1.5 0 1.9-1.99 0.524-2.62-0.941-0.429-1-0.944-0.251-2.21 0.63-1.07 0.94-1.13 1.96-0.415 0.689 0.482 0.781 0.47 1.49-0.196 0.617-0.579 0.701-0.854 0.457-1.5-0.164-0.432-0.299-0.904-0.299-1.05 0-0.222 2.26-1.29 2.72-1.29 0.0821 0 0.346 0.471 0.586 1.05 0.321 0.768 0.662 1.06 1.28 1.12 0.695 0.0575 0.93-0.134 1.33-1.08 0.374-0.896 0.605-1.1 1.04-0.923 0.309 0.125 0.958 0.371 1.44 0.546 0.989 0.358 1.04 0.521 0.502 1.69-0.324 0.711-0.284 0.922 0.279 1.48 0.62 0.62 0.711 0.628 1.64 0.146 0.542-0.28 1.05-0.51 1.13-0.51 0.0794 0 0.458 0.531 0.841 1.18l0.696 1.18-0.745 0.573c-0.41 0.315-0.853 0.576-0.985 0.58-0.307 0.0091-0.304 1.34 0.0049 1.8 0.129 0.194 0.667 0.497 1.2 0.674 0.876 0.293 0.951 0.431 0.859 1.57-0.131 1.62-0.428 1.88-1.63 1.46-0.902-0.314-1.02-0.271-1.44 0.52-0.424 0.8-0.399 0.924 0.342 1.7l0.799 0.842-1.06 0.997c-0.585 0.548-1.15 0.997-1.25 0.998-0.101 9.6e-4 -0.511-0.346-0.91-0.771-0.622-0.662-0.857-0.727-1.64-0.455-0.748 0.261-0.93 0.529-1.01 1.49-0.0936 1.12-0.153 1.18-1.39 1.27-0.71 0.0523-1.39-8e-3 -1.52-0.133zm2.68-5.24c1.5-0.417 2.41-1.43 2.88-3.21 0.341-1.28 0.311-1.62-0.257-2.9-1.25-2.84-4.93-3.42-7.04-1.13-0.578 0.631-1.07 1.47-1.09 1.87-0.16 2.87 0.357 4 2.27 4.96 1.63 0.822 1.69 0.829 3.24 0.399zm12.5-3.39c-1.81-0.812-3.09-2.4-3.54-4.4-0.378-1.69-0.355-1.86 0.482-3.57 2.07-4.23 7.11-4.92 10.1-1.37 2.19 2.62 1.56 6.83-1.31 8.72-1.62 1.07-4.09 1.34-5.72 0.613zm1.92-2.34c0-1.55-0.795-1.94-2.23-1.1-0.915 0.54-0.932 0.591-0.404 1.18 0.564 0.627 1.52 1.12 2.23 1.16 0.256 0.013 0.4-0.434 0.4-1.24zm2.52 0.8c1.62-0.836 1.73-1.27 0.524-1.92-1.5-0.809-2.08-0.505-2.08 1.09 0 1.41 0.22 1.52 1.56 0.831zm-5.06-2.91c1.26-0.653 1.21-1.53-0.151-2.33-0.938-0.553-1.12-0.577-1.28-0.165-0.348 0.907-0.107 2.99 0.346 2.99 0.0779 0 0.566-0.22 1.09-0.488zm7.48-0.392c0.102-0.484 0.0779-1.27-0.0546-1.75l-0.241-0.868-1.04 0.659c-1.27 0.806-1.33 1.7-0.16 2.33 1.2 0.651 1.28 0.63 1.5-0.377zm-3.86-0.572c0.109-0.285-0.0198-0.572-0.307-0.682-0.598-0.229-1.25 0.34-0.95 0.827 0.314 0.508 1.04 0.425 1.26-0.144zm-1.59-1.94c0.726-0.279 0.712-2.69-0.0161-2.69-0.581 0-2.68 1.21-2.68 1.55 6.4e-4 0.213 1.57 1.25 1.97 1.3 0.118 0.0161 0.442-0.0582 0.72-0.165zm3.64-0.393 1.05-0.56-0.731-0.682c-0.402-0.375-1.13-0.781-1.61-0.901-0.85-0.211-0.88-0.175-0.88 1.07 0 1.12 0.269 1.57 0.96 1.62 0.088 0.0065 0.633-0.24 1.21-0.549zm-36.1-2.44c-0.37-0.371-0.39-1.78-0.0334-2.35 0.195-0.307 1.33-0.387 4.56-0.32l4.3 0.0897 0.0995 1.2c0.0645 0.779-0.0482 1.25-0.32 1.35-0.865 0.297-8.3 0.32-8.6 0.0271zm11.7-5.78c-0.284-0.284-0.517-0.718-0.517-0.963 0-0.818-1.19-1.18-2.41-0.74-0.966 0.349-1.18 0.331-1.66-0.143-0.514-0.514-0.514-0.599 0.0032-1.47 0.768-1.3 0.684-2.23-0.269-2.98-0.515-0.405-0.781-0.895-0.72-1.33 0.0783-0.549 0.374-0.714 1.5-0.843 1.44-0.164 1.65-0.369 2.16-2.08 0.39-1.31 1.61-1.33 2.33-0.0287 0.64 1.15 1.51 1.49 2.52 0.961 0.426-0.221 0.967-0.328 1.2-0.238 0.701 0.269 0.879 1.38 0.321 1.99-0.782 0.864-0.617 1.97 0.43 2.89 0.791 0.694 0.891 0.943 0.635 1.58-0.256 0.642-0.466 0.735-1.35 0.592-1.29-0.21-2.06 0.315-2.2 1.51-0.0591 0.5-0.415 1.11-0.79 1.36-0.596 0.393-0.749 0.385-1.2-0.0666zm1.02-4.7c1.03-1.03-0.126-2.78-1.55-2.33-0.78 0.248-1.16 1.6-0.625 2.24 0.476 0.573 1.64 0.622 2.17 0.0918zm14.2 2.32c-2.09-1.27-2.35-3.59-0.612-5.33 0.906-0.906 1.32-1.09 2.49-1.09 1.6 0 2.62 0.592 3.31 1.92 0.617 1.19 0.605 2.08-0.0452 3.18-1.11 1.87-3.29 2.43-5.14 1.31zm2.58-2.75c0.109-0.285-0.0198-0.572-0.307-0.682-0.598-0.229-1.25 0.34-0.95 0.827 0.314 0.508 1.04 0.425 1.26-0.144zm0.416-4.85c-0.377-0.0975-0.515-0.33-0.389-0.657 0.249-0.649-0.476-1.11-1.03-0.652-0.525 0.435-1.5-0.682-1.02-1.17 0.492-0.501 0.339-1.05-0.342-1.23-0.847-0.222-0.876-1.51-0.0342-1.51 0.75 0 1.13-0.854 0.526-1.19-0.375-0.211-0.375-0.34 3e-3 -0.856 0.362-0.494 0.534-0.534 0.921-0.212 0.592 0.491 1.14 0.183 1.14-0.639 0-0.449 0.221-0.621 0.8-0.621 0.498 0 0.8 0.181 0.8 0.48 0 0.557 0.849 0.654 1.03 0.118 0.0737-0.221 0.399-0.274 0.835-0.136 0.54 0.171 0.693 0.436 0.626 1.08-0.0708 0.686 0.0317 0.835 0.518 0.751 0.615-0.106 1.14 0.417 1.15 1.14 3e-3 0.22-0.211 0.4-0.475 0.4-0.64 0-0.614 0.853 0.0364 1.22 0.797 0.446 0.044 1.67-0.879 1.42-0.601-0.157-0.666-0.0792-0.496 0.599 0.254 1.01-0.781 1.8-1.39 1.07-0.528-0.637-0.842-0.584-1.04 0.174-0.17 0.651-0.262 0.681-1.29 0.415zm2.27-2.83c1.39-0.976 0.717-3.34-0.955-3.34-1.95 0-2.86 1.88-1.53 3.2 0.769 0.769 1.53 0.812 2.49 0.142z" fill="#abca44" fill-opacity=".995"/><path d="m200 81.9c0.156-0.406-0.154-0.472-1.92-0.411-2.56 0.0885-2.79-0.144-3.32-3.3-0.442-2.62-1.01-3.17-3.27-3.17h-1.53v-3.45l2.05-0.13c1.13-0.0717 2.28-0.322 2.56-0.556 0.637-0.529 0.684-2.69 0.0703-3.2-0.244-0.202-1.4-0.457-2.56-0.565l-2.12-0.198v-3.43l2.16 0.0035c3.4 0.0055 4.41 0.279 5.8 1.56 0.979 0.904 1.31 1.48 1.48 2.61 0.263 1.75-0.475 3.87-1.61 4.61l-0.763 0.5 0.776 1.14c1.06 1.56 1.29 2.39 0.758 2.73-0.278 0.176-0.3 0.277-0.0608 0.28 0.205 0.0026 0.531 0.739 0.723 1.64s0.564 1.94 0.827 2.31c0.563 0.804 0.62 1.5 0.123 1.5-0.195 0-0.271-0.218-0.169-0.484zm-113-7.82c-0.021-7.1 0.0202-7.69 0.534-7.7 0.527-0.0096 0.527-0.0328-4e-3 -0.435-0.324-0.246-0.56-0.848-0.56-1.43 0-0.858 0.117-1 0.8-1 0.44 0 0.802 0.18 0.805 0.4 4e-3 0.302 0.0709 0.296 0.274-0.0237 0.162-0.255 0.702-0.382 1.36-0.32l1.09 0.104 0.0518 8.64c0.0312 5.21-0.0718 8.79-0.26 9.02-0.226 0.273-0.57 0.286-1.25 0.0487-1.09-0.381-1.14-0.513-0.38-1.13 0.308-0.252 0.358-0.354 0.111-0.226-0.274 0.142-0.617 0.0026-0.88-0.357-0.237-0.325-0.431-0.447-0.431-0.273 0 0.174 0.173 0.49 0.384 0.701 0.299 0.299 0.245 0.385-0.24 0.389-0.509 4e-3 -0.537 0.0596-0.153 0.303 0.541 0.342 0.444 0.489-0.524 0.786l-0.694 0.213zm2.21-4.89c0-0.187-0.203-0.156-0.48 0.0734-0.264 0.219-0.48 0.448-0.48 0.509 0 0.0609 0.216 0.0279 0.48-0.0734 0.264-0.101 0.48-0.33 0.48-0.509zm-0.64-4.25c0-0.264-0.216-0.48-0.48-0.48-0.833 0-0.563 0.631 0.4 0.935 0.044 0.0139 0.08-0.191 0.08-0.455zm3.51 16.5c-0.497-0.307-0.281-2.87 0.242-2.87 0.246 0 0.353-0.15 0.24-0.334-0.14-0.227 1.09-0.315 3.84-0.274l4.04 0.06-0.189 3.59-3.93 0.0122c-2.16 0.0067-4.07-0.0738-4.24-0.179zm0.998-1.63c-0.282-0.705-0.308-0.713-0.327-0.0998-0.0112 0.367 0.0757 0.763 0.193 0.88 0.382 0.382 0.447 0.0032 0.134-0.78zm14.6 1.68c-0.116-0.187-0.423-0.259-0.682-0.159-0.888 0.341-2.62-0.221-3.81-1.24-1.42-1.22-2.1-2.43-2.1-3.77v-0.991l2 0.0953c1.78 0.0846 2.01 0.174 2.1 0.792 0.127 0.891 0.762 1.41 2.04 1.67 0.967 0.198 1.02 0.284 1.05 1.74 0.0307 1.63-0.234 2.45-0.599 1.86zm1.17-0.293c-0.109-0.284-0.0296-0.573 0.177-0.641 0.269-0.0896 0.248-0.252-0.0739-0.574-0.89-0.89 0.112-2.19 1.71-2.21 0.528-9e-3 1.07-1.67 0.635-1.94-0.47-0.291-0.337-0.725 0.268-0.872 0.308-0.0751 0.103-0.136-0.455-0.135-0.558 6.4e-4 -1.26-0.247-1.57-0.551-0.407-0.407-0.614-0.451-0.789-0.167-0.581 0.941-5.26-0.984-6.52-2.68-0.913-1.23-0.905-4.01 0.0152-5.25 0.877-1.19 2.82-2.22 4.69-2.49l1.54-0.226-0.0981 1.72c-0.092 1.61-0.153 1.73-0.985 1.82-0.511 0.0587-1.11 0.436-1.4 0.888-0.476 0.726-0.474 0.832 0.0246 1.38 0.326 0.361 1.72 0.87 3.53 1.29 3.02 0.698 5.42 2 5.14 2.8-0.0718 0.207 0.0768 0.549 0.33 0.759 0.567 0.471 0.594 1.31 0.061 1.9-0.342 0.384-0.316 0.385 0.18 0.0081 0.536-0.407 0.564-0.369 0.365 0.495-0.653 2.84-1.93 4.13-4.76 4.78-1.63 0.378-1.84 0.368-2.02-0.0936zm4.25-2.57c-0.0985-0.0985-0.357-2.05e-4 -0.574 0.218-0.314 0.316-0.277 0.353 0.179 0.179 0.316-0.12 0.493-0.299 0.395-0.398zm19.8 2.89c-0.594-0.594 0.188-4.65 1.4-7.27 0.163-0.352 1.04-2.91 1.95-5.69l1.65-5.05 4.83 0.186 2.95 8.32c1.62 4.58 3.05 8.64 3.18 9.04 0.218 0.699 0.161 0.72-2 0.72-2.53 0-2.72-0.139-3.28-2.32l-0.382-1.52h-5.09l0.218-1.04c0.46-2.19 0.852-2.64 2.32-2.64 1.17 0 1.32-0.0797 1.16-0.593-0.104-0.326-0.458-1.53-0.786-2.68-0.628-2.2-0.938-2.81-0.938-1.86 0 0.737-3.23 11.8-3.55 12.1-0.275 0.314-3.36 0.54-3.64 0.266zm16.4-0.623c-0.19-0.498-0.28-4.14-0.224-9.02l0.0932-8.18 1.71-0.0976c0.972-0.0556 1.9 0.0625 2.15 0.274 0.364 0.302 0.447 1.98 0.443 8.98l-5e-3 8.61-1.03 0.022c-0.566 0.0121-1.43 0.075-1.92 0.14-0.725 0.0953-0.956-0.0418-1.21-0.718zm14.1 0.556c0-0.176 0.144-0.32 0.32-0.32s0.32 0.144 0.32 0.32-0.144 0.32-0.32 0.32-0.32-0.144-0.32-0.32zm2.8-0.0696c-0.941-0.325-1.19-0.89-0.4-0.89 0.264 0 0.48-0.168 0.48-0.373 0-0.205-0.0963-0.277-0.214-0.159-0.118 0.118-0.478-0.0246-0.8-0.316-0.322-0.292-0.586-0.376-0.586-0.187 0 0.189 0.18 0.427 0.4 0.53 0.304 0.142 0.309 0.23 0.018 0.367-0.21 0.0994-0.303 0.387-0.206 0.64 0.281 0.733-0.473 0.531-0.97-0.261-0.612-0.975-0.716-10.8-0.118-11.2 0.313-0.199 0.312-0.252-4e-3 -0.256-0.581-0.0071-0.501-2.1 0.104-2.7 0.452-0.452 0.453-0.523 0.0109-0.693-0.323-0.124-0.479-0.564-0.452-1.28 0.034-0.906 0.163-1.09 0.762-1.09 0.397 0 0.794 0.18 0.883 0.4 0.129 0.32 0.166 0.32 0.187 0 0.0157-0.249 0.508-0.4 1.3-0.4h1.28l-0.0229 8.78c-0.0164 6.31-0.128 8.86-0.398 9.08-0.23 0.182-0.716 0.179-1.26-0.0077zm-0.622-12.3c-0.0985-0.0985-0.277 0.0791-0.398 0.395-0.174 0.456-0.137 0.493 0.179 0.179 0.219-0.217 0.317-0.475 0.218-0.574zm-0.578-4.31c0-0.176-0.144-0.32-0.32-0.32s-0.32 0.144-0.32 0.32 0.144 0.32 0.32 0.32 0.32-0.144 0.32-0.32zm3.59 16.7c-0.465-0.319-0.339-2.91 0.14-2.91 0.234 0 0.426-0.153 0.426-0.34 0-0.227 1.29-0.307 3.9-0.24l3.9 0.1 0.0578 1.53c0.0318 0.841-0.102 1.63-0.298 1.76-0.426 0.277-7.73 0.365-8.12 0.098zm0.87-1.74c-0.308-0.284-0.351-0.235-0.19 0.22 0.114 0.322 0.224 0.754 0.244 0.96 0.0204 0.206 0.106 0.107 0.19-0.22 0.0841-0.327-0.0258-0.759-0.244-0.96zm56.5 1.78c-0.343-0.343-0.172-2.02 0.183-1.8 0.247 0.153 0.244 0.0158-0.0113-0.461-0.304-0.568-0.274-0.679 0.181-0.679 0.3 0 0.452-0.0922 0.34-0.205-0.113-0.113 0.259-0.452 0.827-0.753 1.66-0.885 2.4-2.54 2.35-5.26-0.0383-1.99-0.167-2.47-0.919-3.46-0.485-0.636-1.37-1.31-2-1.52-1.1-0.363-1.12-0.406-1.12-2.11 0-2.04 0.225-2.12 2.96-1.1 2.47 0.926 5.42 4.3 4.91 5.63-0.0952 0.248-0.041 0.451 0.121 0.451 0.162 0 0.259 1.19 0.217 2.65-0.11 3.78-1.23 5.88-4 7.51-1.36 0.797-3.7 1.44-4.04 1.1zm6.07-10.6c-0.109-0.176-0.342-0.32-0.518-0.32s-0.231 0.144-0.122 0.32 0.342 0.32 0.518 0.32 0.231-0.144 0.122-0.32zm-110 10.2c-0.116-0.188-0.424-0.26-0.685-0.16-0.299 0.115-1.15-0.498-2.31-1.66-1.54-1.55-1.93-2.17-2.41-3.91-1.41-5.04 0.968-10.1 5.38-11.4 2.41-0.714 2.44-0.698 2.44 1.26 0 1.59-0.0701 1.76-0.88 2.07-1.33 0.507-1.94 1.11-2.5 2.43-0.531 1.27-0.679 3.77-0.298 5.02 0.309 1.02 1.7 2.83 2.17 2.83 0.722 0.0092 1.26 0.562 1.35 1.38 0.0494 0.45 0.176 0.957 0.281 1.13 0.105 0.17 0.103 0.538-4e-3 0.818-0.224 0.584-2.2 0.714-2.54 0.167zm2.03-0.787c-0.0985-0.0985-0.277 0.0791-0.398 0.395-0.174 0.456-0.137 0.493 0.179 0.179 0.219-0.217 0.317-0.475 0.218-0.574zm-4.74-7.51c-0.627-0.405-1.05-0.405-0.8 0 0.109 0.176 0.441 0.318 0.739 0.315 0.466-0.0042 0.475-0.0478 0.0611-0.315zm5.76 8.03c0-0.338-0.099-0.878-0.22-1.2-0.194-0.516-0.155-0.534 0.32-0.147 0.681 0.554 0.707 0.254 0.037-0.416-0.282-0.282-0.346-0.503-0.146-0.503 0.196 0 0.53-0.139 0.743-0.309 2.06-1.65 2.79-2.41 2.79-2.92 0-0.334 0.0905-0.607 0.201-0.607 0.401 0 3.64 1.97 3.64 2.22 0 0.611-2.69 3.23-3.94 3.83-1.8 0.873-3.42 0.898-3.42 0.053zm60.2-8.33v-8.97h4.09l0.158 3.44c0.0869 1.89 0.139 5.89 0.115 8.88l-0.0431 5.44-4.32 0.189zm20.6 8.6c-0.116-0.188-0.424-0.26-0.685-0.16-0.299 0.115-1.15-0.497-2.3-1.66-1.47-1.49-1.94-2.22-2.42-3.83-1.48-4.96 0.949-10.1 5.38-11.5 2.41-0.714 2.44-0.698 2.44 1.26 0 1.59-0.0701 1.76-0.88 2.07-1.13 0.432-1.8 0.986-2.28 1.88-0.652 1.22-0.946 3.56-0.627 4.98 0.321 1.43 1.65 3.43 2.28 3.43 0.722 0.0092 1.26 0.562 1.35 1.38 0.0494 0.45 0.176 0.957 0.281 1.13 0.105 0.17 0.103 0.538-4e-3 0.818-0.224 0.584-2.2 0.714-2.54 0.167zm2.03-0.787c-0.0985-0.0985-0.277 0.0791-0.398 0.395-0.174 0.456-0.137 0.493 0.179 0.179 0.219-0.217 0.317-0.475 0.218-0.574zm-4.74-7.51c-0.627-0.405-1.05-0.405-0.8 0 0.109 0.176 0.441 0.318 0.739 0.315 0.466-0.0042 0.475-0.0478 0.0611-0.315zm5.74 8.56c-0.193-0.757-0.154-2.11 0.058-1.98 0.155 0.096 0.282 0.0341 0.282-0.138 0-0.172-0.18-0.385-0.4-0.474-0.232-0.0936-0.157-0.172 0.179-0.187 0.318-0.0139 0.499-0.154 0.402-0.311-0.0972-0.157 0.15-0.368 0.55-0.468 0.4-0.1 1.14-0.618 1.66-1.15 0.84-0.876 0.941-1.22 1.06-3.61 0.12-2.38 0.0568-2.75-0.628-3.76-0.419-0.616-1.31-1.41-1.99-1.76-0.675-0.352-1.21-0.748-1.19-0.88 0.0212-0.132 0.0386-0.904 0.0386-1.72v-1.48l1.2 0.218c2.94 0.536 6.21 3.44 6.29 5.6 0.0192 0.537 0.153 0.976 0.298 0.977 0.145 3.2e-4 0.221 0.325 0.17 0.721-0.0512 0.396 0.029 0.916 0.178 1.16 0.167 0.269 0.117 0.531-0.131 0.684s-0.298 0.416-0.131 0.684c1.05 1.68-1.94 6.29-4.88 7.52-0.891 0.372-2.95 0.618-3.01 0.36zm5.37-9.39c-0.106-0.106-0.382-0.118-0.613-0.0252-0.255 0.102-0.179 0.178 0.193 0.193 0.337 0.0139 0.526-0.0617 0.42-0.168zm0.727-0.908c0-0.0776-0.144-0.23-0.32-0.339s-0.32-0.0453-0.32 0.141c0 0.186 0.144 0.339 0.32 0.339s0.32-0.0635 0.32-0.141zm8.32 10c0-0.195-0.212-0.273-0.472-0.173-0.762 0.292-3.06-1.73-4.14-3.63-0.917-1.63-0.993-1.99-0.993-4.8 0-2.35 0.135-3.29 0.596-4.16 1.33-2.51 3.69-4.26 6.27-4.68l1.33-0.212-0.0982 1.7c-0.0933 1.61-0.163 1.73-1.38 2.41-1.91 1.06-2.57 2.39-2.52 5.1 0.0394 2.42 0.894 4.44 2.03 4.8 1.18 0.374 1.81 1.26 1.89 2.64l0.073 1.36h-1.29c-0.732 0-1.29-0.154-1.29-0.354zm-2.72-8.29c-0.109-0.176-0.441-0.318-0.739-0.315-0.466 0.0042-0.475 0.0478-0.0611 0.315 0.627 0.405 1.05 0.405 0.8 0zm14.2 3.9c0-3.26 0.12-4.86 0.384-5.12 0.299-0.299 0.299-0.384 0-0.384-0.211 0-0.384-0.303-0.384-0.674 0-0.461 0.148-0.617 0.47-0.494 0.258 0.0991 0.545 0.0589 0.636-0.0894 0.0917-0.148-0.12-0.345-0.47-0.436-0.56-0.146-0.636-0.44-0.636-2.44 0-1.25 0.108-2.27 0.24-2.26 0.132 0.0035 0.721 0.83 1.31 1.84 0.854 1.46 0.999 1.94 0.72 2.39-0.298 0.476-0.242 0.549 0.37 0.484 0.562-0.0596 0.715 0.0816 0.695 0.644-0.014 0.396 0.149 0.72 0.363 0.72 0.599 0 0.715 0.897 0.765 5.91l0.0467 4.65h-4.51zm16.6-0.122v-4.86l1.95-3.3c1.07-1.82 2.05-3.3 2.16-3.3 0.113-1.28e-4 0.165 3.67 0.115 8.16l-0.0905 8.16h-4.14zm-9.39-1.01c-1.52-2.52-2.77-4.67-2.77-4.77 0-0.0983 0.54-0.242 1.2-0.32s1.43-0.245 1.72-0.371c0.387-0.172 0.787 0.193 1.6 1.46 1.02 1.59 1.09 1.89 1.24 5.14 0.088 1.9 0.0736 3.45-0.0321 3.45-0.106-3.2e-4 -1.44-2.07-2.96-4.59zm3.64 1.31c3e-3 -3.27 5e-3 -3.28 1.28-5.29 0.702-1.11 1.28-2.15 1.28-2.32 0-0.169 0.144-0.307 0.32-0.307s0.32-0.126 0.32-0.279 0.66-1.38 1.47-2.72l1.47-2.44h2.07c1.14 0 2.01 0.108 1.93 0.24-0.0775 0.132-0.758 1.25-1.51 2.48s-1.53 2.53-1.72 2.88c-0.982 1.8-6.64 11-6.76 11-0.0774 0-0.139-1.48-0.138-3.28zm-91.5-3.28v-1.76h1.77c1.46 0 1.91-0.14 2.56-0.785 0.432-0.432 0.785-1.16 0.785-1.61s-0.353-1.18-0.785-1.61c-0.645-0.645-1.1-0.785-2.56-0.785h-1.77v-3.52h1.22c0.669 0 1.39-0.173 1.6-0.384 0.299-0.299 0.384-0.299 0.384 0 0 0.211 0.396 0.387 0.88 0.391 0.484 0.0039 1.46 0.268 2.16 0.588s1.48 0.514 1.72 0.433c0.269-0.0903 0.38 0.0231 0.284 0.292-0.0856 0.242 0.123 0.994 0.463 1.67 0.746 1.49 0.819 4.25 0.146 5.54-1.29 2.47-2.91 3.31-6.44 3.31h-2.41zm-61.9 0.226c-0.105-0.17-0.175-1.05-0.154-1.95 0.0326-1.45 0.0969-1.59 0.537-1.24 0.392 0.318 0.448 0.319 0.259 0.0044-0.186-0.309 0.483-0.4 2.95-0.4 1.76 0 3.42 0.0874 3.7 0.194 0.365 0.14 0.506 0.626 0.506 1.74v1.55l-1.36 0.0984c-0.748 0.0541-2.34 0.0245-3.53-0.0657-1.19-0.0903-2.29-0.0417-2.44 0.108s-0.358 0.133-0.463-0.0374zm76.4-0.126c-0.0747-0.121-0.11-0.949-0.0785-1.84 0.0548-1.55 0.359-2.08 0.704-1.22 0.129 0.32 0.166 0.32 0.187 0 0.0183-0.29 0.855-0.4 3.04-0.4 3.95 0 4.03 0.036 4.03 1.95 0 1.55-0.0102 1.57-1.04 1.58-0.572 0.0075-2.31 0.0435-3.87 0.08s-2.89-0.0326-2.97-0.154zm-40.4-4.38c-0.454-0.89-0.998-1.39-1.93-1.76l-1.29-0.518v-3.6l1.2 0.218c2.01 0.367 4.31 1.85 5.44 3.52 0.572 0.841 1.04 1.62 1.04 1.73-3.2e-4 0.221-3.06 1.64-3.54 1.64-0.159 0-0.573-0.558-0.921-1.24zm110 0.496c-0.105-0.272-0.0182-0.565 0.192-0.651 0.218-0.0889 0.155-0.166-0.148-0.181-0.457-0.0218-3.47-4.6-3.47-5.27 0-0.125 0.889-0.184 1.98-0.132l1.98 0.0953 1.38 2.35c0.762 1.29 1.38 2.47 1.38 2.61 0 0.146 0.18 0.332 0.4 0.413 0.807 0.296-0.344 0.955-1.93 1.11-1.22 0.117-1.61 0.0403-1.76-0.344zm-127-1.2c-0.235-0.622-0.729-1.12-1.35-1.35-0.923-0.348-0.98-0.468-0.98-2.06 0-1.86 0.0486-1.89 2.08-1.34 2.39 0.653 4.32 2.68 4.32 4.55 0 0.646-0.199 0.807-1.2 0.972-2.15 0.355-2.48 0.267-2.87-0.775zm-19.3-3.34v-1.76l8.48 0.154 0.193 3.36h-8.67zm76.5 0.0075v-1.75h8.64v3.5h-8.64zm-47.7-9.13c0-0.176 0.288-0.32 0.64-0.32s0.64 0.144 0.64 0.32-0.288 0.32-0.64 0.32-0.64-0.144-0.64-0.32zm-46-4.72c-0.0835-3.8-0.0656-3.92 0.588-3.92 0.371 0 0.589-0.138 0.485-0.306-0.104-0.168-0.384-0.231-0.623-0.139-0.359 0.138-0.443-1.49-0.483-9.41-0.0437-8.57 6e-3 -9.6 0.47-9.78 0.904-0.347 5.53-0.223 5.77 0.155 0.336 0.544 0.346 16.3 0.01 16-0.172-0.107-0.173 0.0026-3.1e-4 0.271 0.159 0.247 0.289 2.5 0.289 5 2.8e-4 4.22-0.0454 4.57-0.64 4.88-0.598 0.313-0.593 0.323 0.08 0.152 0.74-0.188 0.894 0.0505 0.467 0.723-0.166 0.261-1.22 0.364-3.28 0.324l-3.04-0.0591-0.0862-3.92zm2.62-5.69c0.153-0.398 0.0705-0.425-0.446-0.149-0.742 0.397-0.812 0.636-0.187 0.636 0.245 0 0.53-0.219 0.633-0.487zm3.31-2.59c-0.106-0.106-0.382-0.118-0.613-0.0252-0.255 0.102-0.179 0.178 0.193 0.193 0.337 0.0139 0.526-0.0617 0.42-0.168zm-1.51-12.3c0-0.176-0.252-0.318-0.56-0.315-0.479 0.0042-0.49 0.05-0.08 0.315 0.604 0.39 0.64 0.39 0.64 0zm2.85 24.2c-0.0297-0.41-0.0204-4.35 0.0113-4.82 0.01-0.143 1.28-0.236 2.82-0.207 3.99 0.0745 5.39-0.591 5.74-2.71 0.472-2.91-0.663-3.7-5.32-3.7-1.77 0-3.23-0.108-3.24-0.24-0.118-1.11-0.141-4.48-0.0329-4.81 0.1-0.304 0.957-0.395 3.28-0.35 3.73 0.0734 4.63-0.318 4.97-2.17 0.193-1.03 0.11-1.28-0.643-1.92-0.785-0.675-1.17-0.743-4.21-0.743-2.44 0-3.35-0.108-3.38-0.4-0.0183-0.22-0.0365-1.41-0.0404-2.64l-7e-3 -2.24 4.76 0.0014c5.36 0.0016 6.44 0.326 8.37 2.53 1.7 1.93 2.07 4.31 1.05 6.69-0.642 1.5-1.31 2.2-1.31 1.38 0-0.264 0.144-0.569 0.32-0.678s0.32-0.353 0.32-0.542c0-0.535-1.21 1.13-1.33 1.84-0.0602 0.345-0.302 0.778-0.538 0.964-0.337 0.265-0.144 0.534 0.906 1.26 2.32 1.61 3.33 4.55 2.68 7.8-0.136 0.679-0.386 1-0.781 1-0.32 0-0.672 0.148-0.784 0.328-0.111 0.18-0.084 0.288 0.0611 0.24 0.145-0.0484 0.264 0.0561 0.264 0.232s-0.36 0.282-0.8 0.236c-0.733-0.0774-0.753-0.0476-0.24 0.355 0.308 0.242 0.56 0.577 0.56 0.744 0 0.774-3.46 2.56-4.31 2.23-0.267-0.103-0.486-0.0497-0.486 0.117 0 0.535-1.57 0.735-2.14 0.272-0.412-0.34-0.557-0.348-0.663-0.0357-0.0943 0.28-0.99 0.4-2.99 0.4-2.05 0-2.86-0.112-2.88-0.4zm2.91-3.3c0-0.274-0.146-0.408-0.325-0.298-0.179 0.111-0.242 0.335-0.141 0.499 0.274 0.444 0.466 0.361 0.466-0.201zm6.2-1.26c-0.101-0.264-0.421-0.475-0.71-0.47-0.446 0.0086-0.432 0.0812 0.0954 0.48 0.776 0.587 0.843 0.586 0.615-0.0102zm2.76-0.8c0-0.176-0.139-0.32-0.31-0.32-0.633 0 0.0844-0.961 0.744-0.997 0.541-0.0293 0.567-0.068 0.126-0.183-0.308-0.0805-0.56-0.424-0.56-0.763 0-0.339-0.161-0.617-0.357-0.617-0.21 0-0.293 0.334-0.203 0.808 0.101 0.526-0.0208 0.906-0.348 1.09-0.421 0.236-0.434 0.363-0.078 0.792 0.477 0.575 0.986 0.674 0.986 0.191zm1.3-3.7c0.664-0.8 0.729-2.59 0.103-2.83-0.45-0.173-0.467-0.127-0.115 0.297 0.298 0.359 0.318 0.599 0.0703 0.846-0.19 0.19-0.27 0.543-0.177 0.784 0.0925 0.241-0.0627 0.527-0.345 0.635-0.282 0.108-0.513 0.326-0.513 0.483 0 0.449 0.521 0.335 0.977-0.215zm-1.47-3.5c0.0192-0.439-6.4e-4 -0.798-0.0444-0.798-0.267 0-0.735 1.35-0.565 1.63 0.294 0.476 0.568 0.102 0.609-0.83zm1.55-6.23c-0.297-0.347-0.604-0.566-0.682-0.488-0.191 0.191 0.593 1.12 0.945 1.12 0.153 0 0.0348-0.284-0.262-0.63zm-3.61-1.93c0-0.176-0.0635-0.32-0.141-0.32-0.0776 0-0.23 0.144-0.339 0.32s-0.0453 0.32 0.141 0.32c0.186 0 0.339-0.144 0.339-0.32zm1.92 0.179c0-0.0776-0.144-0.23-0.32-0.339s-0.32-0.0453-0.32 0.141c0 0.186 0.144 0.339 0.32 0.339s0.32-0.0635 0.32-0.141zm4.95 20.5c-0.0844-0.22-0.116-6.45-0.07-13.8l0.0836-13.4h6.08l0.167 27.7h-3.05c-2.15 0-3.1-0.119-3.21-0.4zm15.7-0.8c-0.294-0.66-0.801-2.62-1.13-4.35-0.325-1.73-0.802-3.36-1.06-3.62-0.617-0.617-3.93-1.38-4.47-1.04-0.232 0.147-0.744 0.27-1.14 0.273-0.861 0.0059-1.05-0.667-0.956-3.36l0.0696-1.92 2.91-0.205c2.97-0.209 4.7-0.799 5.05-1.73 0.109-0.285 0.199-1.22 0.199-2.07 0-1.29-0.14-1.66-0.843-2.21-0.714-0.561-1.29-0.663-3.78-0.663-1.85 0-3.07-0.141-3.32-0.384-0.586-0.586-0.502-4.56 0.107-5.07 0.366-0.304 1.41-0.358 4.12-0.213 4.04 0.217 6.55 0.729 6.81 1.39 0.0918 0.239 0.367 0.435 0.611 0.435 0.745 0 2.31 2.51 2.68 4.29 0.646 3.11-0.549 6.25-2.92 7.66-1.08 0.647-1.18 0.786-0.644 0.927 1.41 0.37 3.41 5.36 2.14 5.36-0.277 0-0.398 0.189-0.294 0.46 0.097 0.253 0.36 0.389 0.584 0.303 0.275-0.106 0.512 0.368 0.727 1.46 0.193 0.977 0.202 1.62 0.0228 1.62-0.163 0-0.0705 0.226 0.206 0.503 0.277 0.277 0.503 0.758 0.503 1.07 0 0.312 0.288 0.828 0.64 1.15s0.64 0.669 0.64 0.779c0 0.11-1.01 0.241-2.24 0.292-1.64 0.0671-2.24-0.0167-2.24-0.314 0-0.315-0.0853-0.32-0.384-0.0213-0.211 0.211-0.765 0.384-1.23 0.384-0.671 0-0.959-0.25-1.38-1.2zm12 0.861c0-0.186-0.137-0.254-0.305-0.15-0.413 0.255-1.93-0.148-1.93-0.512 0-0.161 0.349-0.451 0.775-0.645 0.464-0.212 0.706-0.533 0.603-0.801-0.123-0.319-0.287-0.353-0.572-0.116-0.285 0.237-0.521 0.186-0.822-0.176-0.351-0.423-0.345-0.557 0.0375-0.799 0.253-0.16 0.315-0.291 0.139-0.291s-0.536 0.145-0.8 0.321c-0.42 0.281-0.41 0.375 0.08 0.75 0.777 0.595 0.724 1.25-0.08 0.999-0.367-0.117-0.64-0.0575-0.64 0.138 0 0.188 0.144 0.342 0.32 0.342s0.32 0.216 0.32 0.48c0 0.592-0.611 0.603-1.37 0.0239-0.74-0.562-1.08-2.58-0.548-3.22 0.224-0.269 0.259-0.483 0.0799-0.483-0.204 0-0.331-2.56-0.348-7.03-0.0253-6.5 0.0139-7.01 0.522-6.85 0.476 0.149 0.47 0.108-0.0451-0.314-0.504-0.413-0.567-0.792-0.416-2.51 0.0978-1.11 0.185-2.06 0.194-2.1 9e-3 -0.044 0.232-0.08 0.496-0.08s0.48-0.144 0.48-0.32-0.159-0.32-0.354-0.32c-0.195 0-0.274-0.209-0.176-0.464 0.118-0.308 0.0242-0.405-0.28-0.288-0.362 0.139-0.445-0.134-0.394-1.3l0.0641-1.47h1.18c0.651 0 1.26 0.18 1.35 0.4 0.129 0.32 0.166 0.32 0.187 0 0.0172-0.273 0.634-0.4 1.94-0.4h1.91l-8e-3 6c-8e-3 6.03-0.304 7.95-1.18 7.61-0.22-0.0845-0.4 0.0016-0.4 0.191 0 0.205 0.314 0.266 0.775 0.15l0.775-0.194 9.6e-4 6.48c6.4e-4 4.04-0.125 6.63-0.334 6.88-0.407 0.49-1.22 0.533-1.22 0.0646zm-1.15-12.3c-0.287-0.438-0.654-0.716-0.814-0.617-0.161 0.0992 0.0352 0.453 0.435 0.787 0.956 0.797 1 0.778 0.379-0.17zm-1.73-4.27c0-0.147-0.216-0.267-0.48-0.267s-0.48 0.12-0.48 0.267c0 0.147 0.216 0.267 0.48 0.267s0.48-0.12 0.48-0.267zm2.72-0.37c0.112-0.181-0.0163-0.235-0.301-0.126-0.554 0.213-0.656 0.442-0.196 0.442 0.166 0 0.389-0.142 0.497-0.316zm-1.44-1.62c0-0.126-0.244-0.427-0.541-0.669-0.417-0.338-0.483-0.342-0.289-0.019 0.153 0.254 0.0211 0.676-0.332 1.07-0.578 0.639-0.575 0.642 0.289 0.248 0.481-0.219 0.874-0.501 0.874-0.628zm-2.08-1.86c-0.282-0.282-0.794 0.378-0.784 1.01 0.0109 0.676 0.0271 0.673 0.454-0.0984 0.243-0.44 0.392-0.85 0.33-0.912zm0.645 0.912c0.109-0.176 0.0453-0.32-0.141-0.32-0.186 0-0.339 0.144-0.339 0.32s0.0635 0.32 0.141 0.32c0.0776 0 0.23-0.144 0.339-0.32zm1.12-1.1c0-0.0776-0.144-0.23-0.32-0.339s-0.32-0.0453-0.32 0.141c0 0.186 0.144 0.339 0.32 0.339s0.32-0.0635 0.32-0.141zm-1.12-0.815c0.112-0.181-0.0164-0.235-0.301-0.126-0.554 0.213-0.656 0.442-0.196 0.442 0.166 0 0.389-0.142 0.497-0.316zm0.382-3.69c-0.0341-0.443-0.169-0.803-0.301-0.8-0.131 0.0033-0.455 0.0061-0.719 0.0061-0.708 0-0.584 0.673 0.16 0.867 0.352 0.092 0.64 0.295 0.64 0.45s0.0634 0.283 0.141 0.283c0.0774 0 0.113-0.363 0.0789-0.806zm5.35 25.2c-0.48-0.319-0.501-2.4-0.0272-2.73 0.292-0.208 0.287-0.309-0.0193-0.434-0.22-0.0893-0.4-0.375-0.4-0.635s0.144-0.383 0.32-0.274 0.32 0.0368 0.32-0.16c0-0.197 0.144-0.269 0.32-0.16s0.32-0.0232 0.32-0.293c0-0.426 0.789-0.482 6-0.419l6 0.0721v5.12l-3.52 0.0261c-2.19 0.0163-3.61-0.104-3.76-0.32-0.16-0.235-0.237-0.218-0.24 0.0539-7e-3 0.578-2.7 0.523-3.19-0.0646-0.212-0.256-0.296-0.747-0.186-1.09 0.11-0.346 0.0398-0.727-0.155-0.848-0.195-0.121-0.278-0.421-0.183-0.667 0.0945-0.246 0.0491-0.448-0.101-0.448-0.348 0-0.678 1.22-0.364 1.34 0.129 0.0524 0.327 0.563 0.438 1.14 0.18 0.923 0.123 1.04-0.509 1.04-0.392-0.0026-0.871-0.111-1.07-0.24zm3.55-0.395c-0.109-0.176-0.369-0.318-0.579-0.315-0.229 0.0029-0.19 0.129 0.0989 0.315 0.615 0.397 0.726 0.397 0.48 0zm3.79-0.814c-0.104-0.272-0.258-0.425-0.342-0.341-0.0839 0.0839-0.0576 0.306 0.0584 0.494 0.316 0.511 0.5 0.411 0.284-0.153zm6.44-1.03c0.154-2.96 2.05-8.95 2.77-8.78 0.326 0.0765 0.346 0.0087 0.078-0.264-0.267-0.272-0.218-0.753 0.189-1.86 0.302-0.823 1.53-4.34 2.72-7.83l2.17-6.33 7.39 0.18 4.75 13.4c2.61 7.39 4.75 13.5 4.75 13.7 0 0.138-1.62 0.25-3.6 0.25l-3.6-9.6e-4 -1.6-5.6-3.92-0.0898c-2.16-0.0494-3.92-0.121-3.91-0.16 4e-3 -0.0386 0.343-1.22 0.754-2.63l0.746-2.56 2.31-0.0945c1.64-0.067 2.27-0.206 2.16-0.48-0.0805-0.212-0.691-2.29-1.36-4.62l-1.21-4.23-0.706 2.79c-0.741 2.93-3.85 13.4-4.31 14.6-0.149 0.369-0.358 1.21-0.465 1.87l-0.195 1.2h-6.03l0.129-2.48zm4.65 1.23c0-0.157-0.236-0.376-0.525-0.487-0.439-0.169-0.459-0.122-0.121 0.286 0.461 0.555 0.646 0.613 0.646 0.202zm20.8-12.5v-13.8h6.4v27.5h-6.4zm11.9 8.01-4.88-5.72 0.016-6.93 8.78-9.15 3.92 0.0135c2.16 0.0074 3.93 0.122 3.93 0.254 7e-3 0.132-2.75 2.92-6.13 6.19l-6.15 5.95 6.37 7.27c3.5 4 6.42 7.41 6.48 7.57 0.0627 0.177-1.45 0.296-3.68 0.29l-3.79-0.0106zm22.5 5.51c-0.34-0.0866-0.812-0.352-1.05-0.589s-0.64-0.352-0.895-0.254c-1.19 0.456-5.14-3.28-6.4-6.05-1.02-2.23-1.2-3.09-1.35-6.42-0.23-4.98 1.51-8.96 5.07-11.6 2.07-1.52 4.42-2.4 6.43-2.4h1.22v4.97l-1.52 0.544c-1.7 0.608-3.03 1.72-3.76 3.13-0.77 1.49-1.43 5.11-1.09 5.99 0.161 0.422 0.292 1.17 0.292 1.66 0 1.08 1.35 3.72 2.33 4.54 0.39 0.329 1.14 0.721 1.67 0.87 0.606 0.172 0.944 0.468 0.916 0.804-0.0245 0.293 0.156 0.532 0.4 0.532 0.244 0 0.444 0.296 0.444 0.659 0 0.434-0.136 0.582-0.4 0.433-0.32-0.181-0.32-0.14 0 0.205 0.533 0.574 0.505 0.943-0.07 0.943-0.286 0-0.398 0.188-0.286 0.48 0.117 0.304-4e-3 0.48-0.33 0.48-0.301 0-0.514 0.266-0.514 0.64 0 0.658-0.0478 0.676-1.1 0.408zm0.777-3.93c0-0.176-0.0635-0.32-0.141-0.32-0.0776 0-0.23 0.144-0.339 0.32s-0.0453 0.32 0.141 0.32c0.186 0 0.339-0.144 0.339-0.32zm-7.45-6.27c-0.106-0.106-0.382-0.118-0.613-0.0252-0.255 0.102-0.179 0.178 0.193 0.193 0.337 0.0139 0.526-0.0617 0.42-0.168zm1.53-3.28c-1.1-0.674-2.01-0.575-1.41 0.152 0.202 0.243 0.818 0.442 1.37 0.441l1-0.0016-0.96-0.591zm6.73 13.4c-0.166-0.269 0.877-1.61 1.25-1.61 0.0762 0 0.126 0.432 0.111 0.96-0.0199 0.699-0.183 0.96-0.6 0.96-0.315 0-0.658-0.139-0.763-0.308zm2.12-1.41c0.0118-0.991 0.151-1.72 0.308-1.62 0.158 0.0975 0.287 0.0248 0.287-0.162 0-0.186-0.144-0.339-0.32-0.339s-0.32-0.216-0.32-0.48 0.144-0.48 0.32-0.48 0.32 0.152 0.32 0.339c0 0.186 0.148 0.248 0.328 0.136 0.181-0.112 0.289-0.444 0.24-0.739-0.0575-0.348 0.166-0.572 0.64-0.639 1.09-0.154 3.49-2.6 3.74-3.82 0.121-0.572 0.316-1.04 0.434-1.04 0.118 1.3e-5 0.204-1.48 0.191-3.28-0.0193-2.68-0.147-3.52-0.701-4.59-0.886-1.71-2.63-3.22-4.23-3.65l-1.28-0.346v-5.18l1.81 0.187c2.49 0.257 5.43 1.77 7.28 3.75 1.78 1.9 3.33 4.98 2.78 5.52-0.509 0.509-0.44 0.88 0.124 0.664 0.372-0.143 0.48 0.0755 0.48 0.97 0 0.705-0.156 1.16-0.4 1.16-0.222 0.0054-0.151 0.155 0.16 0.336 0.308 0.179 0.56 0.688 0.56 1.13 0 0.454-0.139 0.717-0.32 0.605-0.403-0.249-0.422 0.567-0.0229 0.976 0.935 0.956-1.42 6.41-3.75 8.69-1.73 1.69-4.84 3.24-7.01 3.5l-1.67 0.197zm10-12.9c-0.0985-0.0985-0.357-2.05e-4 -0.574 0.218-0.314 0.316-0.277 0.353 0.179 0.179 0.316-0.12 0.493-0.299 0.395-0.398zm-1.77-0.0245c0-0.155-0.347-0.349-0.771-0.43-0.552-0.106-0.724-0.0253-0.606 0.283 0.181 0.473 1.38 0.601 1.38 0.147zm1.41-1.56c-0.194-0.129-0.415-0.431-0.492-0.67-0.108-0.335-0.247-0.303-0.608 0.141-0.282 0.347-0.309 0.481-0.0683 0.336 0.22-0.132 0.4-0.0878 0.4 0.0986 0 0.186 0.252 0.337 0.56 0.334 0.345-0.0029 0.425-0.095 0.208-0.24zm9.67 15.8c-1.98-0.706-3.47-2.14-4.68-4.49l-1.12-2.18v-20.5l6.24-0.183v9.27c0 5.78 0.128 9.61 0.341 10.2 0.468 1.23 1.4 2.03 2.37 2.03h0.813l-0.0258 3.2-0.0259 3.2-1.33-0.014c-0.733-0.0077-1.89-0.213-2.57-0.456zm2.36-3.05c0-0.176-0.144-0.32-0.32-0.32s-0.32 0.144-0.32 0.32 0.144 0.32 0.32 0.32 0.32-0.144 0.32-0.32zm-1.92-2.38c0-0.0776-0.144-0.23-0.32-0.339s-0.32-0.0453-0.32 0.141c0 0.186 0.144 0.339 0.32 0.339s0.32-0.0635 0.32-0.141zm-1.6-21.3c0-0.432-0.517-0.337-0.939 0.172-0.31 0.373-0.259 0.424 0.281 0.283 0.362-0.0947 0.658-0.299 0.658-0.455zm5.98 27c-0.0739-0.132-0.159-1.57-0.189-3.2l-0.0552-2.96h0.942c0.659 0 1.19-0.296 1.77-0.985l0.828-0.985 0.0462-8.54c0.0254-4.69 0.0349-9.08 0.021-9.74l-0.0253-1.21 3.03 0.053c1.8 0.0315 3.12 0.196 3.25 0.406 0.383 0.612 0.375 1.27-0.0196 1.76-0.268 0.331-0.272 0.407-0.0137 0.252 0.528-0.316 0.595 15.5 0.0754 17.6-0.837 3.42-2.77 6.06-5.24 7.19-1.28 0.582-4.17 0.816-4.42 0.359zm2.34-4.06c0-0.0776-0.144-0.23-0.32-0.339s-0.32-0.0453-0.32 0.141c0 0.186 0.144 0.339 0.32 0.339s0.32-0.0635 0.32-0.141zm3.36-7.86c0.109-0.176-0.0267-0.32-0.301-0.32-0.274 0-0.499 0.144-0.499 0.32s0.136 0.32 0.301 0.32c0.166 0 0.39-0.144 0.499-0.32zm3.52-12.2c0.109-0.176-0.0352-0.32-0.32-0.32-0.285 0-0.429 0.144-0.32 0.32s0.253 0.32 0.32 0.32c0.0672 0 0.211-0.144 0.32-0.32zm-3.37-2.73c-0.223-0.268-0.488-0.404-0.59-0.303-0.102 0.102 0.0267 0.319 0.286 0.483 0.677 0.428 0.766 0.376 0.304-0.18zm12.3 26.7c-0.109-0.177-0.16-3.13-0.113-6.57 0.0616-4.5 0.187-6.21 0.449-6.11 0.2 0.0767 0.566 0.0029 0.814-0.164 0.381-0.256 0.376-0.296-0.029-0.252-1.18 0.126-1.28-0.0231-1.28-1.96 0-1.47 0.0976-1.88 0.4-1.7 0.272 0.163 0.259 0.0668-0.0392-0.301-0.324-0.399-0.347-0.653-0.0876-0.965 0.209-0.252 0.235-0.544 0.0638-0.72-0.158-0.163-0.213-0.679-0.121-1.15l0.167-0.851 3.17-0.0068c2.64-0.0057 3.17 0.0752 3.17 0.485 0 0.331-0.177 0.424-0.542 0.284-0.5-0.192-0.502-0.164-0.0264 0.366 0.449 0.499 0.519 1.83 0.542 10.3l0.0267 9.68h-3.18c-1.79 0-3.27-0.141-3.38-0.322zm2.4-11.5c0-0.176-0.144-0.32-0.32-0.32s-0.32 0.144-0.32 0.32 0.144 0.32 0.32 0.32 0.32-0.144 0.32-0.32zm-122-0.213c-0.375-0.375-0.25-4.01 0.13-3.77 0.189 0.117 0.158-0.0842-0.0679-0.447-0.564-0.903-0.106-1.24 0.696-0.517 0.565 0.511 0.627 0.519 0.45 0.0573-0.187-0.488 0.247-0.536 4.79-0.529 2.75 0.0038 5.21 0.0885 5.47 0.188 0.357 0.137 0.473 0.751 0.473 2.51 0 2.19-0.0466 2.34-0.762 2.52-1.22 0.307-8.96 0.169-9.37-0.167-0.239-0.197-0.445-0.187-0.579 0.0293-0.234 0.378-0.913 0.445-1.24 0.122zm10.2-3.31c-0.109-0.176-0.342-0.32-0.518-0.32s-0.231 0.144-0.122 0.32 0.342 0.32 0.518 0.32 0.231-0.144 0.122-0.32zm103-6.83c-0.46-0.554 0.201-3.1 0.75-2.89 0.223 0.0854 0.482-0.141 0.577-0.503 0.192-0.735-0.0856-0.852-0.659-0.279-0.594 0.594-0.862 0.0239-0.396-0.846l0.421-0.786 8.11-0.0036c5.34-0.0024 8.11 0.109 8.11 0.325 0 0.183 0.288 0.127 0.65-0.127 0.426-0.299 1-0.383 1.68-0.245l1.03 0.21 0.0998 5.5-10 0.0206c-7.58 0.0156-10.1-0.0756-10.4-0.374zm12.7-0.91c-0.102-0.255-0.178-0.179-0.193 0.193-0.0139 0.337 0.0617 0.526 0.168 0.42 0.106-0.106 0.118-0.382 0.0253-0.613zm-10.6-1.26c-0.108-0.175 0.0559-0.597 0.364-0.938 0.309-0.341 0.417-0.62 0.241-0.62-0.576 0-1.46 1.24-1.26 1.77 0.108 0.282 0.344 0.421 0.524 0.31 0.18-0.111 0.239-0.346 0.131-0.52zm10.1-0.278c0-0.176-0.0635-0.32-0.141-0.32-0.0776 0-0.23 0.144-0.339 0.32s-0.0453 0.32 0.141 0.32c0.186 0 0.339-0.144 0.339-0.32zm5.95-0.4c0.127-0.22 0.111-0.292-0.0351-0.159-0.146 0.132-0.529 0.0021-0.851-0.29-0.619-0.561-0.708-0.483-0.392 0.343 0.232 0.605 0.956 0.665 1.28 0.106zm-3.55-0.56c-0.109-0.176-0.369-0.318-0.579-0.315-0.229 0.0029-0.19 0.129 0.0989 0.315 0.615 0.397 0.726 0.397 0.48 0zm-2.88-0.32c0.109-0.176 0.0453-0.32-0.141-0.32-0.186 0-0.339 0.144-0.339 0.32s0.0635 0.32 0.141 0.32c0.0776 0 0.23-0.144 0.339-0.32zm4.21-0.155c0-0.359-0.104-0.389-0.427-0.121-0.235 0.195-0.427 0.408-0.427 0.475s0.192 0.121 0.427 0.121c0.235 0 0.427-0.214 0.427-0.475zm3.15-0.805c-0.109-0.176-0.333-0.32-0.499-0.32-0.166 0-0.301 0.144-0.301 0.32s0.224 0.32 0.499 0.32c0.274 0 0.41-0.144 0.301-0.32zm-129 4.55-3.76-0.0898v-5.08l13.1-4e-3v5.06l-2.8 0.104c-1.54 0.0569-4.49 0.0631-6.56 0.0137zm109-4.87c0-0.176 0.152-0.32 0.339-0.32 0.186 0 0.25 0.144 0.141 0.32s-0.261 0.32-0.339 0.32c-0.0776 0-0.141-0.144-0.141-0.32z" fill="#fff"/></svg>
