<?xml version="1.0" encoding="UTF-8"?>
<svg width="32" height="32" version="1.1" viewBox="0 0 8.4664 8.4665" xmlns="http://www.w3.org/2000/svg" xmlns:cc="http://creativecommons.org/ns#" xmlns:dc="http://purl.org/dc/elements/1.1/" xmlns:rdf="http://www.w3.org/1999/02/22-rdf-syntax-ns#">
 <metadata>
  <rdf:RDF>
   <cc:Work rdf:about="">
    <dc:format>image/svg+xml</dc:format>
    <dc:type rdf:resource="http://purl.org/dc/dcmitype/StillImage"/>
    <dc:title/>
   </cc:Work>
  </rdf:RDF>
 </metadata>
 <g transform="matrix(.27996 0 0 .27222 -.10473 -72.25)">
  <g transform="matrix(.061132 0 0 .060745 .37434 265.41)">
   <path transform="matrix(4.3281,0,0,4.3556,-6.1235,-6.6876)" d="m67.381 1.5352c-1.2759 0-2.3105 1.0269-2.3105 2.2949 0 14.366-3.7068 26.257-11.027 35.432-1.3814-1.0472-2.7209-2.0101-4-2.8672-6.8476-4.5892-10.926-5.6643-13.205-3.4805-0.01617 0.01492-0.03312 0.02954-0.04883 0.04492-0.0023 0.0023-0.0055 0.0038-0.0078 0.0059-0.0014 0.0014-0.0025 0.0028-0.0039 0.0039-0.58386 0.58155-0.94353 1.2859-1.0801 2.125l-34.104 80.807c-0.36275 0.85958-0.1653 1.8526 0.49805 2.5117 0.44223 0.4392 1.0336 0.67187 1.6348 0.67187 0.30083 0 0.604-0.0574 0.89258-0.17773l0.00586-4e-3 81.316-33.883c0.77101-0.12398 1.4266-0.43837 1.9805-0.93359 0.0402-0.03329 0.07757-0.06816 0.11523-0.10352 0.01479-0.01446 0.03037-0.02632 0.04492-0.04102 0.0023-0.0023 0.0038-0.0057 0.0059-0.0078 0.01594-0.01561 0.03163-0.03253 0.04687-0.04883 2.1975-2.2653 1.1145-6.3173-3.5039-13.121-0.97618-1.4381-2.0857-2.9513-3.3047-4.5176 4.4251-2.0369 8.8321-3.5235 13.16-4.4336 1.2484-0.26242 2.0453-1.4802 1.7812-2.7207s-1.4883-2.0341-2.7383-1.7715c-5.0099 1.0534-10.099 2.8154-15.188 5.25-2.8426-3.3687-6.0966-6.8923-9.6074-10.381-3.7308-3.7069-7.501-7.1267-11.082-10.072 3.0988-3.8936 5.6294-8.2543 7.543-13.025 2.9835-7.4389 4.4961-15.938 4.4961-25.262 0-1.268-1.0347-2.2949-2.3105-2.2949zm24.137 0c-3.822 0-6.9316 3.0908-6.9316 6.8887 0 3.7978 3.1096 6.8867 6.9316 6.8867s6.9316-3.0889 6.9316-6.8867-3.1096-6.8887-6.9316-6.8887zm-57.943 2.2969c-1.2726 0-2.3105 1.0304-2.3105 2.2949 0 1.2646 1.0379 2.2969 2.3105 2.2969s2.3105-1.0323 2.3105-2.2969-1.0379-2.2949-2.3105-2.2949zm13.705 5.8809c-3.822 0-6.9316 3.0908-6.9316 6.8887 0 3.7978 3.1096 6.8867 6.9316 6.8867s6.9316-3.0889 6.9316-6.8867-3.1096-6.8887-6.9316-6.8887zm31.58 9.0547c-1.2726 0-2.3105 1.0323-2.3105 2.2969 2.31e-4 1.2643 1.0382 2.2949 2.3105 2.2949 1.2726 0 2.3105-1.0304 2.3105-2.2949 0-1.2646-1.0379-2.2969-2.3105-2.2969zm-51.523 1.3125c-0.89634-0.0761-1.7911 0.37651-2.2324 1.2188l-1.0664 2.0332-2.0449-1.0723c-1.1303-0.59223-2.5249-0.16205-3.1133 0.96094-0.58848 1.1232-0.14987 2.5132 0.98047 3.1055l2.0469 1.0723-1.0645 2.0352c-0.58838 1.123-0.14987 2.5132 0.98047 3.1055 1.1303 0.59223 2.523 0.16205 3.1113-0.96094l1.0664-2.0352 2.0469 1.0723c1.1303 0.59223 2.523 0.16205 3.1113-0.96094 0.58838-1.123 0.14987-2.5132-0.98047-3.1055l-2.0469-1.0723 1.0664-2.0332c0.58838-1.123 0.14792-2.5132-0.98242-3.1055-0.28258-0.14806-0.58013-0.23245-0.87891-0.25781zm86.002 4.7461c-1.0737-0.04519-2.068 0.66367-2.3379 1.7402-0.30822 1.2304 0.4454 2.4769 1.6836 2.7832l0.11914 0.0293c0.20056 0.05349 0.40137 0.08008 0.59961 0.08008 1.0199 0 1.9537-0.67583 2.2305-1.7012 0.33063-1.2246-0.40016-2.4837-1.6328-2.8125-0.0654-0.01745-0.13198-0.03597-0.19922-0.05273-0.15477-0.03834-0.30951-0.05995-0.46289-0.06641zm-7.1133 1.6777c-6.9253 0.55537-16.479 3.2906-22.527 9.3008-0.90225 0.89654-0.90225 2.3496 0 3.2461 0.45124 0.44816 1.0416 0.67188 1.6328 0.67188 0.59149 0 1.1835-0.22372 1.6348-0.67188 5.1623-5.1297 13.524-7.481 19.631-7.9707 1.2719-0.10194 2.2198-1.209 2.1172-2.4727-0.10282-1.2639-1.2143-2.2018-2.4883-2.1035zm-32.396 9.5547c-0.29895-0.0233-0.6093 0.01093-0.91211 0.11133-1.211 0.40151-1.8697 1.7029-1.4707 2.9062l0.72266 2.1797-2.1934 0.72656c-1.211 0.40151-1.8697 1.7029-1.4707 2.9062 0.39904 1.2036 1.705 1.8546 2.916 1.4531l2.1934-0.72852 0.72266 2.1797c0.39904 1.2036 1.705 1.8527 2.916 1.4512 1.2113-0.40158 1.8697-1.7027 1.4707-2.9062l-0.72266-2.1777 2.1934-0.72656c1.211-0.40151 1.8697-1.7029 1.4707-2.9062-0.39896-1.2034-1.705-1.8546-2.916-1.4531l-2.1934 0.72656-0.72266-2.1797c-0.29922-0.90253-1.1071-1.4926-2.0039-1.5625zm-33.471 0.46094c1.0744 0.2429 3.5548 1.1645 8.4121 4.584 0.72041 0.50716 1.4607 1.049 2.2148 1.6172-0.16197 0.16576-0.32159 0.3324-0.48633 0.49609-0.90225 0.89654-0.90225 2.3513 0 3.248 0.45124 0.44816 1.0435 0.67188 1.6348 0.67188 0.59126 0 1.1818-0.22372 1.6328-0.67188 0.2902-0.28836 0.5768-0.58193 0.85938-0.87695 3.5048 2.8788 7.2095 6.2403 10.842 9.8496 3.1236 3.1038 6.0612 6.2607 8.666 9.2988-0.41728 0.23028-0.83491 0.46585-1.252 0.70508-1.1051 0.63412-1.4839 2.0369-0.8457 3.1348 0.4279 0.73652 1.2052 1.1484 2.0039 1.1484 0.39186 0 0.78867-0.0999 1.1523-0.30859 0.64139-0.36826 1.2842-0.72134 1.9258-1.0664 1.0039 1.2669 1.9341 2.4996 2.7754 3.6797 3.4417 4.8266 4.3691 7.2918 4.6133 8.3594-1.0748-0.24313-3.555-1.1665-8.4121-4.5859-5.023-3.5363-10.953-8.6262-16.697-14.334-5.7439-5.7076-10.867-11.601-14.426-16.592-3.4415-4.8266-4.3691-7.2898-4.6133-8.3574zm65.607 4.877c-3.822 0-6.9316 3.0889-6.9316 6.8867s3.1096 6.8887 6.9316 6.8887 6.9316-3.0908 6.9316-6.8887-3.1098-6.8867-6.9316-6.8867zm-68.223 0.72656c0.66912 1.2191 1.4982 2.5552 2.4922 4.0195 0.68437 1.0084 1.4339 2.0525 2.2402 3.127 7.9035 11.917 7.7247 24.115 6.1797 32.254-1.643 8.6566-5.1609 14.994-6.4531 16.742l-4.9805 2.0762c0.47458-1.1913 0.89218-2.5484 1.1953-4.0859 1.8493-9.3794-1.1701-20.976-8.9688-34.48l2.5-5.9238c1.9787 2.3659 4.2334 5.7149 5.1465 7.8262 0.37592 0.86945 1.2295 1.3887 2.125 1.3887 0.30429 0 0.6128-0.06077 0.91016-0.1875 1.1723-0.50073 1.7146-1.8505 1.2109-3.0156-1.3549-3.1325-4.79-8.0067-7.418-10.689zm15.012 19.145c1.0945 1.1489 2.22 2.3015 3.375 3.4492 3.456 3.4339 6.9452 6.6194 10.287 9.4121-0.33133 10.84-5.3345 15.779-6.4121 16.719l-10.969 4.5703c1.5838-3.4521 3.198-7.9835 4.1582-13.043 1.0725-5.6511 1.545-13.083-0.43945-21.107zm50.135 5.4844c-1.2726 0-2.3106 1.0304-2.3106 2.2949s1.0379 2.2969 2.3106 2.2969 2.3106-1.0325 2.3106-2.2969c0-1.2646-1.0379-2.2949-2.3106-2.2949zm-75.721 0.42578c7.184 13.534 7.7233 22.503 6.791 27.783-0.93159 5.2769-3.4028 7.8203-4.1055 8.4512l-6.0879 2.5371c1.3535-4.7878 1.7093-12.389-3.5215-22.365zm43.615 10.439c1.3946 1.0579 2.7465 2.0297 4.0371 2.8945 1.4743 0.98815 2.8195 1.8117 4.0469 2.4766l-10.9 4.541c1.2368-2.5427 2.3294-5.8192 2.8164-9.9121zm30.359 6.5137c-0.58946 0.0039-1.1753 0.231-1.6191 0.68359l-1.6074 1.6406-1.6504-1.6191c-0.91095-0.8933-2.3702-0.88371-3.2578 0.02148-0.88765 0.90519-0.86798 2.3645 0.04297 3.2578l1.6504 1.6172-1.6074 1.6406c-0.88764 0.90519-0.86994 2.3626 0.04102 3.2559 0.91095 0.8933 2.3702 0.8837 3.2578-0.02148l1.6074-1.6387 1.6504 1.6172c0.91095 0.8933 2.3682 0.8837 3.2559-0.02148 0.88765-0.90519 0.8701-2.3644-0.041-3.2578l-1.6504-1.6172 1.6074-1.6387c0.88764-0.90519 0.86798-2.3645-0.043-3.2578-0.45548-0.44665-1.0473-0.66601-1.6367-0.66211zm-83.322 5.1953c1.9136 4.7665 2.5766 9.3331 1.9199 13.402-0.4822 2.9876-1.5544 4.9516-2.0703 5.7598l-9.6289 4.0117z" stroke-width=".23032"/>
  </g>
 </g>
</svg>
