<svg width="32" height="32" version="1.1" viewBox="0 0 8.47 8.47" xmlns="http://www.w3.org/2000/svg"><title>Icon celebration</title><g transform="matrix(.28 0 0 .272 -.109 -72.1)"><g transform="matrix(.0611 0 0 .0607 .374 265)"><path transform="matrix(4.33,0,0,4.36,-6.12,-6.69)" d="m67.4 1.54c-1.28 0-2.31 1.03-2.31 2.29 0 14.4-3.71 26.3-11 35.4-1.38-1.05-2.72-2.01-4-2.87-6.85-4.59-10.9-5.66-13.2-3.48-0.0162 0.0149-0.0331 0.0295-0.0488 0.0449-0.0023 0.0023-0.0055 0.0038-0.0078 0.0059-0.0014 0.0014-0.0025 0.0028-0.0039 0.0039-0.584 0.582-0.944 1.29-1.08 2.12l-34.1 80.8c-0.363 0.86-0.165 1.85 0.498 2.51 0.442 0.439 1.03 0.672 1.63 0.672 0.301 0 0.604-0.0574 0.893-0.178l0.00586-4e-3 81.3-33.9c0.771-0.124 1.43-0.438 1.98-0.934 0.0402-0.0333 0.0776-0.0682 0.115-0.104 0.0148-0.0145 0.0304-0.0263 0.0449-0.041 0.0023-0.0023 0.0038-0.0057 0.0059-0.0078 0.0159-0.0156 0.0316-0.0325 0.0469-0.0488 2.2-2.27 1.11-6.32-3.5-13.1-0.976-1.44-2.09-2.95-3.3-4.52 4.43-2.04 8.83-3.52 13.2-4.43 1.25-0.262 2.05-1.48 1.78-2.72s-1.49-2.03-2.74-1.77c-5.01 1.05-10.1 2.82-15.2 5.25-2.84-3.37-6.1-6.89-9.61-10.4-3.73-3.71-7.5-7.13-11.1-10.1 3.1-3.89 5.63-8.25 7.54-13 2.98-7.44 4.5-15.9 4.5-25.3 0-1.27-1.03-2.29-2.31-2.29zm24.1 0c-3.82 0-6.93 3.09-6.93 6.89s3.11 6.89 6.93 6.89 6.93-3.09 6.93-6.89-3.11-6.89-6.93-6.89zm-57.9 2.3c-1.27 0-2.31 1.03-2.31 2.29s1.04 2.3 2.31 2.3 2.31-1.03 2.31-2.3-1.04-2.29-2.31-2.29zm13.7 5.88c-3.82 0-6.93 3.09-6.93 6.89s3.11 6.89 6.93 6.89 6.93-3.09 6.93-6.89-3.11-6.89-6.93-6.89zm31.6 9.05c-1.27 0-2.31 1.03-2.31 2.3 2.31e-4 1.26 1.04 2.29 2.31 2.29s2.31-1.03 2.31-2.29-1.04-2.3-2.31-2.3zm-51.5 1.31c-0.896-0.0761-1.79 0.377-2.23 1.22l-1.07 2.03-2.04-1.07c-1.13-0.592-2.52-0.162-3.11 0.961-0.588 1.12-0.15 2.51 0.98 3.11l2.05 1.07-1.06 2.04c-0.588 1.12-0.15 2.51 0.98 3.11 1.13 0.592 2.52 0.162 3.11-0.961l1.07-2.04 2.05 1.07c1.13 0.592 2.52 0.162 3.11-0.961 0.588-1.12 0.15-2.51-0.98-3.11l-2.05-1.07 1.07-2.03c0.588-1.12 0.148-2.51-0.982-3.11-0.283-0.148-0.58-0.232-0.879-0.258zm86 4.75c-1.07-0.0452-2.07 0.664-2.34 1.74-0.308 1.23 0.445 2.48 1.68 2.78l0.119 0.0293c0.201 0.0535 0.401 0.0801 0.6 0.0801 1.02 0 1.95-0.676 2.23-1.7 0.331-1.22-0.4-2.48-1.63-2.81-0.0654-0.0174-0.132-0.036-0.199-0.0527-0.155-0.0383-0.31-0.06-0.463-0.0664zm-7.11 1.68c-6.93 0.555-16.5 3.29-22.5 9.3-0.902 0.897-0.902 2.35 0 3.25 0.451 0.448 1.04 0.672 1.63 0.672 0.591 0 1.18-0.224 1.63-0.672 5.16-5.13 13.5-7.48 19.6-7.97 1.27-0.102 2.22-1.21 2.12-2.47-0.103-1.26-1.21-2.2-2.49-2.1zm-32.4 9.55c-0.299-0.0233-0.609 0.0109-0.912 0.111-1.21 0.402-1.87 1.7-1.47 2.91l0.723 2.18-2.19 0.727c-1.21 0.402-1.87 1.7-1.47 2.91 0.399 1.2 1.7 1.85 2.92 1.45l2.19-0.729 0.723 2.18c0.399 1.2 1.7 1.85 2.92 1.45 1.21-0.402 1.87-1.7 1.47-2.91l-0.723-2.18 2.19-0.727c1.21-0.402 1.87-1.7 1.47-2.91-0.399-1.2-1.7-1.85-2.92-1.45l-2.19 0.727-0.723-2.18c-0.299-0.903-1.11-1.49-2-1.56zm-33.5 0.461c1.07 0.243 3.55 1.16 8.41 4.58 0.72 0.507 1.46 1.05 2.21 1.62-0.162 0.166-0.322 0.332-0.486 0.496-0.902 0.897-0.902 2.35 0 3.25 0.451 0.448 1.04 0.672 1.63 0.672 0.591 0 1.18-0.224 1.63-0.672 0.29-0.288 0.577-0.582 0.859-0.877 3.5 2.88 7.21 6.24 10.8 9.85 3.12 3.1 6.06 6.26 8.67 9.3-0.417 0.23-0.835 0.466-1.25 0.705-1.11 0.634-1.48 2.04-0.846 3.13 0.428 0.737 1.21 1.15 2 1.15 0.392 0 0.789-0.0999 1.15-0.309 0.641-0.368 1.28-0.721 1.93-1.07 1 1.27 1.93 2.5 2.78 3.68 3.44 4.83 4.37 7.29 4.61 8.36-1.07-0.243-3.56-1.17-8.41-4.59-5.02-3.54-11-8.63-16.7-14.3-5.74-5.71-10.9-11.6-14.4-16.6-3.44-4.83-4.37-7.29-4.61-8.36zm65.6 4.88c-3.82 0-6.93 3.09-6.93 6.89s3.11 6.89 6.93 6.89 6.93-3.09 6.93-6.89-3.11-6.89-6.93-6.89zm-68.2 0.727c0.669 1.22 1.5 2.56 2.49 4.02 0.684 1.01 1.43 2.05 2.24 3.13 7.9 11.9 7.72 24.1 6.18 32.3-1.64 8.66-5.16 15-6.45 16.7l-4.98 2.08c0.475-1.19 0.892-2.55 1.2-4.09 1.85-9.38-1.17-21-8.97-34.5l2.5-5.92c1.98 2.37 4.23 5.71 5.15 7.83 0.376 0.869 1.23 1.39 2.12 1.39 0.304 0 0.613-0.0608 0.91-0.188 1.17-0.501 1.71-1.85 1.21-3.02-1.35-3.13-4.79-8.01-7.42-10.7zm15 19.1c1.09 1.15 2.22 2.3 3.38 3.45 3.46 3.43 6.95 6.62 10.3 9.41-0.331 10.8-5.33 15.8-6.41 16.7l-11 4.57c1.58-3.45 3.2-7.98 4.16-13 1.07-5.65 1.54-13.1-0.439-21.1zm50.1 5.48c-1.27 0-2.31 1.03-2.31 2.29s1.04 2.3 2.31 2.3 2.31-1.03 2.31-2.3c0-1.26-1.04-2.29-2.31-2.29zm-75.7 0.426c7.18 13.5 7.72 22.5 6.79 27.8-0.932 5.28-3.4 7.82-4.11 8.45l-6.09 2.54c1.35-4.79 1.71-12.4-3.52-22.4zm43.6 10.4c1.39 1.06 2.75 2.03 4.04 2.89 1.47 0.988 2.82 1.81 4.05 2.48l-10.9 4.54c1.24-2.54 2.33-5.82 2.82-9.91zm30.4 6.51c-0.589 0.0039-1.18 0.231-1.62 0.684l-1.61 1.64-1.65-1.62c-0.911-0.893-2.37-0.884-3.26 0.0215-0.888 0.905-0.868 2.36 0.043 3.26l1.65 1.62-1.61 1.64c-0.888 0.905-0.87 2.36 0.041 3.26 0.911 0.893 2.37 0.884 3.26-0.0215l1.61-1.64 1.65 1.62c0.911 0.893 2.37 0.884 3.26-0.0215 0.888-0.905 0.87-2.36-0.041-3.26l-1.65-1.62 1.61-1.64c0.888-0.905 0.868-2.36-0.043-3.26-0.455-0.447-1.05-0.666-1.64-0.662zm-83.3 5.2c1.91 4.77 2.58 9.33 1.92 13.4-0.482 2.99-1.55 4.95-2.07 5.76l-9.63 4.01z" stroke-width=".23"/></g></g></svg>
