<svg width="32.1" height="33.6" version="1.1" viewBox="0 0 8.48 8.88" xmlns="http://www.w3.org/2000/svg"><title>Icon team building/networking</title><g transform="matrix(.998 0 0 .998 -.0366 -288)"><g transform="matrix(.0166 0 0 .0166 .0367 289)"><path d="m478 102c-18.8 0-34.1 15.3-34.1 34.1s15.3 34.1 34.1 34.1 34.1-15.3 34.1-34.1-15.3-34.1-34.1-34.1zm0 51.2c-9.41 0-17.1-7.65-17.1-17.1 0-9.41 7.65-17.1 17.1-17.1s17.1 7.65 17.1 17.1c-1e-3 9.41-7.66 17.1-17.1 17.1z"/><path d="m34.1 384c-18.8 0-34.1 15.3-34.1 34.1s15.3 34.1 34.1 34.1 34.1-15.3 34.1-34.1-15.3-34.1-34.1-34.1zm0 51.2c-9.41 0-17.1-7.65-17.1-17.1s7.65-17.1 17.1-17.1c9.41 0 17.1 7.65 17.1 17.1s-7.65 17.1-17.1 17.1z"/><path d="m461 113-73.6-35.5c-4.25-2.06-9.34-0.265-11.4 3.98-2.05 4.24-0.265 9.34 3.98 11.4l73.6 35.5c1.2 0.58 2.46 0.853 3.7 0.853 3.17 0 6.22-1.78 7.69-4.83 2.05-4.24 0.265-9.34-3.98-11.4z"/><path d="m384 444c-18.8 0-34.1 15.3-34.1 34.1s15.3 34.1 34.1 34.1 34.1-15.3 34.1-34.1-15.3-34.1-34.1-34.1zm0 51.2c-9.41 0-17.1-7.65-17.1-17.1s7.66-17.1 17.1-17.1 17.1 7.65 17.1 17.1-7.66 17.1-17.1 17.1z"/><path d="m367 455-73.6-35.5c-4.25-2.06-9.34-0.273-11.4 3.98-2.05 4.24-0.265 9.34 3.98 11.4l73.6 35.5c1.2 0.58 2.46 0.853 3.7 0.853 3.17 0 6.22-1.78 7.69-4.83 2.05-4.24 0.264-9.34-3.98-11.4z"/><path d="m256 230c-18.8 0-34.1 15.3-34.1 34.1s15.3 34.1 34.1 34.1 34.1-15.3 34.1-34.1-15.3-34.1-34.1-34.1zm0 51.2c-9.41 0-17.1-7.65-17.1-17.1 0-9.41 7.65-17.1 17.1-17.1 9.41 0 17.1 7.65 17.1 17.1s-7.66 17.1-17.1 17.1z"/><path d="m241 242-56.6-44.1c-3.72-2.88-9.08-2.24-12 1.48-2.89 3.72-2.24 9.08 1.48 12l56.6 44.1c1.56 1.21 3.4 1.8 5.24 1.8 2.54 0 5.05-1.13 6.74-3.28 2.89-3.72 2.24-9.08-1.48-12z"/><path d="m410 222c-51.8 0-93.9 42.1-93.9 93.9s42.1 93.9 93.9 93.9 93.9-42.1 93.9-93.9-42.1-93.9-93.9-93.9zm0 171c-42.4 0-76.8-34.4-76.8-76.8s34.4-76.8 76.8-76.8 76.8 34.4 76.8 76.8-34.4 76.8-76.8 76.8z"/><path d="m410 256c-18.8 0-34.1 15.3-34.1 34.1s15.3 34.1 34.1 34.1 34.1-15.3 34.1-34.1-15.3-34.1-34.1-34.1zm0 51.2c-9.41 0-17.1-7.65-17.1-17.1 0-9.41 7.65-17.1 17.1-17.1 9.41 0 17.1 7.65 17.1 17.1s-7.66 17.1-17.1 17.1z"/><path d="m434 341h-49.5c-14.6 0-26.4 11.5-26.4 25.7v22.5c0 3.05 1.62 5.86 4.26 7.39 14.3 8.28 30.5 12.7 46.9 12.7s32.6-4.38 46.9-12.7c2.64-1.52 4.26-4.34 4.26-7.38v-22.5c0-14.2-11.9-25.7-26.4-25.7zm9.38 43.1c-21.2 10.6-47 10.6-68.3 0v-17.4c0-4.78 4.21-8.67 9.38-8.67h49.5c5.17 0 9.38 3.89 9.38 8.67v17.4z"/><path d="m205 324c-51.8 0-93.9 42.1-93.9 93.9s42.1 93.9 93.9 93.9 93.9-42.1 93.9-93.9-42.1-93.9-93.9-93.9zm0 171c-42.4 0-76.8-34.4-76.8-76.8s34.4-76.8 76.8-76.8 76.8 34.4 76.8 76.8-34.4 76.8-76.8 76.8z"/><path d="m205 358c-18.8 0-34.1 15.3-34.1 34.1s15.3 34.1 34.1 34.1 34.1-15.3 34.1-34.1-15.3-34.1-34.1-34.1zm0 51.2c-9.41 0-17.1-7.65-17.1-17.1 0-9.41 7.65-17.1 17.1-17.1 9.41 0 17.1 7.65 17.1 17.1s-7.66 17.1-17.1 17.1z"/><path d="m230 444h-49.5c-14.6 0-26.4 11.5-26.4 25.7v22.5c0 3.05 1.62 5.86 4.26 7.39 14.3 8.28 30.5 12.7 46.9 12.7s32.6-4.38 46.9-12.7c2.64-1.52 4.26-4.34 4.26-7.38v-22.5c0-14.2-11.9-25.7-26.4-25.7zm9.38 43.1c-21.2 10.6-47 10.6-68.3 0v-17.4c0-4.78 4.21-8.67 9.38-8.67h49.5c5.17 0 9.38 3.89 9.38 8.67v17.4z"/><path d="m93.9 111c-51.8 0-93.9 42.1-93.9 93.9s42.1 93.9 93.9 93.9 93.9-42.1 93.9-93.9c-1e-3 -51.8-42.1-93.9-93.9-93.9zm0 171c-42.4 0-76.8-34.4-76.8-76.8s34.4-76.8 76.8-76.8 76.8 34.4 76.8 76.8-34.4 76.8-76.8 76.8z"/><path d="m93.9 145c-18.8 0-34.1 15.3-34.1 34.1s15.3 34.1 34.1 34.1 34.1-15.3 34.1-34.1-15.3-34.1-34.1-34.1zm0 51.2c-9.41 0-17.1-7.65-17.1-17.1s7.65-17.1 17.1-17.1c9.41 0 17.1 7.65 17.1 17.1s-7.66 17.1-17.1 17.1z"/><path d="m119 230h-49.5c-14.6 0-26.4 11.5-26.4 25.7v22.5c0 3.05 1.62 5.86 4.26 7.39 14.3 8.28 30.5 12.7 46.9 12.7s32.6-4.38 46.9-12.7c2.64-1.52 4.26-4.34 4.26-7.38v-22.5c0-14.2-11.9-25.7-26.4-25.7zm9.38 43.1c-21.2 10.6-47 10.6-68.3 0v-17.4c0-4.78 4.21-8.67 9.38-8.67h49.5c5.17 0 9.38 3.89 9.38 8.67v17.4z"/><path d="m299 0c-51.8 0-93.9 42.1-93.9 93.9s42.1 93.9 93.9 93.9 93.9-42.1 93.9-93.9c-1e-3 -51.8-42.1-93.9-93.9-93.9zm0 171c-42.4 0-76.8-34.4-76.8-76.8s34.4-76.8 76.8-76.8 76.8 34.4 76.8 76.8-34.4 76.8-76.8 76.8z"/><path d="m299 34.1c-18.8 0-34.1 15.3-34.1 34.1s15.3 34.1 34.1 34.1 34.1-15.3 34.1-34.1-15.3-34.1-34.1-34.1zm0 51.2c-9.41 0-17.1-7.65-17.1-17.1 0-9.41 7.65-17.1 17.1-17.1s17.1 7.65 17.1 17.1c-1e-3 9.41-7.66 17.1-17.1 17.1z"/><path d="m323 119h-49.5c-14.6 0-26.4 11.5-26.4 25.7v22.5c0 3.05 1.62 5.86 4.26 7.39 14.3 8.28 30.5 12.7 46.9 12.7s32.6-4.38 46.9-12.7c2.64-1.52 4.26-4.34 4.26-7.38v-22.5c0-14.2-11.9-25.7-26.4-25.7zm9.38 43.1c-21.2 10.6-47 10.6-68.3 0v-17.4c0-4.78 4.21-8.67 9.38-8.67h49.5c5.17 0 9.38 3.89 9.38 8.67v17.4z"/><path d="m220 88.3c-3.06-3.57-8.45-3.99-12-0.93l-59.1 50.6c-3.58 3.06-4 8.45-0.939 12 1.69 1.97 4.08 2.99 6.48 2.99 1.96 0 3.93-0.674 5.55-2.06l59.1-50.6c3.58-3.06 4-8.45 0.939-12z"/><path d="m408 225-51.2-68.3c-2.82-3.78-8.18-4.52-11.9-1.71-3.77 2.82-4.53 8.18-1.71 11.9l51.2 68.3c1.68 2.24 4.24 3.41 6.84 3.41 1.78 0 3.58-0.555 5.11-1.71 3.77-2.82 4.53-8.17 1.71-11.9z"/><path d="m338 344c-2.82-3.77-8.18-4.53-11.9-1.71l-47.7 35.7c-3.77 2.82-4.53 8.18-1.71 11.9 1.68 2.24 4.24 3.41 6.84 3.41 1.78 0 3.58-0.563 5.11-1.71l47.7-35.7c3.77-2.82 4.53-8.17 1.71-11.9z"/><path d="m119 410h-59.7c-4.71 0-8.53 3.81-8.53 8.53s3.82 8.53 8.53 8.53h59.7c4.71 0 8.53-3.81 8.53-8.53s-3.82-8.53-8.53-8.53z"/><path d="m93.9 0c-18.8 0-34.1 15.3-34.1 34.1s15.3 34.1 34.1 34.1 34.1-15.3 34.1-34.1c1e-3 -18.8-15.3-34.1-34.1-34.1zm0 51.2c-9.41 0-17.1-7.65-17.1-17.1 0-9.41 7.65-17.1 17.1-17.1 9.41 0 17.1 7.65 17.1 17.1-1e-3 9.41-7.66 17.1-17.1 17.1z"/><path d="m93.9 51.2c-4.71 0-8.53 3.81-8.53 8.53v59.7c0 4.72 3.82 8.53 8.53 8.53s8.53-3.81 8.53-8.53v-59.7c0-4.72-3.82-8.53-8.53-8.53z"/></g></g></svg>
