<?xml version="1.0" encoding="UTF-8"?>
<svg width="32" height="32" version="1.1" viewBox="0 0 8.4667 8.4665" xmlns="http://www.w3.org/2000/svg" xmlns:cc="http://creativecommons.org/ns#" xmlns:dc="http://purl.org/dc/elements/1.1/" xmlns:rdf="http://www.w3.org/1999/02/22-rdf-syntax-ns#">
 <metadata>
  <rdf:RDF>
   <cc:Work rdf:about="">
    <dc:format>image/svg+xml</dc:format>
    <dc:type rdf:resource="http://purl.org/dc/dcmitype/StillImage"/>
    <dc:title/>
   </cc:Work>
  </rdf:RDF>
 </metadata>
 <g transform="matrix(1.0171 0 0 1.0171 .044817 -294.37)">
  <g transform="matrix(.016259 0 0 .01428 -.044063 288.92)">
   <path d="m59.069 227.93c-1.859-1.86-4.439-2.93-7.069-2.93s-5.21 1.07-7.07 2.93-2.93 4.44-2.93 7.07 1.069 5.21 2.93 7.07 4.44 2.93 7.07 2.93 5.21-1.07 7.069-2.93c1.861-1.86 2.931-4.44 2.931-7.07s-1.07-5.21-2.931-7.07z"/>
   <path d="m174.38 35.719c-26.024 0-47.203 21.158-47.203 47.181v12.838c0 2.11 0.33549 4.1276 0.60517 6.165-8.6618-10.045-21.336-16.573-35.61-16.573-26.024 0-47.172 21.193-47.172 47.218v12.802c0 10.183 3.2544 19.624 8.7591 27.345-30.011 2.2419-53.765 27.373-53.765 57.952v121.63c0 25.306 18.121 46.447 42.076 51.134v205.25c0 5.5348 4.4993 10.009 10.033 10.009h80.17c5.5338 0 10.033-4.4744 10.033-10.009v-205.25c13.106-2.5644 24.47-10.047 32.074-20.454 7.6042 10.405 18.937 17.889 32.042 20.454v205.25c0 5.5348 4.4993 10.009 10.033 10.009h80.17c5.5338 0 10.033-4.4744 10.033-10.009v-205.25c13.106-2.5644 24.47-10.047 32.074-20.454 7.6042 10.405 18.937 17.889 32.042 20.454v205.25c0 5.5348 4.4993 10.009 10.033 10.009h80.17c5.5338 0 10.033-4.4744 10.033-10.009v-205.25c23.955-4.6859 42.076-25.828 42.076-51.134v-121.63c0-30.579-23.748-55.711-53.765-57.952 5.5057-7.7195 8.7591-17.161 8.7591-27.345v-12.802c0-26.023-21.179-47.218-47.203-47.218-14.274 0-26.916 6.528-35.577 16.573 0.26973-2.0376 0.60518-4.055 0.60518-6.165v-12.838c0-26.023-21.148-47.181-47.172-47.181s-47.203 21.158-47.203 47.181v12.838c0 2.11 0.33545 4.1276 0.60518 6.165-8.6618-10.045-21.336-16.573-35.61-16.573-14.274 0-26.916 6.528-35.577 16.573 0.26973-2.0376 0.60518-4.055 0.60518-6.165v-12.838c0-26.023-21.148-47.181-47.172-47.181zm0 20.055c14.972 0 27.138 12.154 27.138 27.126v12.838c0 14.972-12.164 27.126-27.138 27.126-14.973 0-27.169-12.154-27.169-27.126v-12.838c0-14.972 12.197-27.126 27.169-27.126zm164.35 0c14.972 0 27.138 12.154 27.138 27.126v12.838c0 14.972-12.164 27.126-27.138 27.126-14.973 0-27.169-12.154-27.169-27.126v-12.838c0-14.972 12.197-27.126 27.169-27.126zm-246.53 49.611c14.973 0 27.138 12.191 27.138 27.163v12.802c0 14.972-12.164 27.163-27.138 27.163-14.973 0-27.169-12.191-27.169-27.163v-12.802c0-14.972 12.196-27.163 27.169-27.163zm164.35 0c14.973 0 27.138 12.191 27.138 27.163v12.802c0 14.972-12.164 27.163-27.138 27.163-14.974 0-27.169-12.191-27.169-27.163v-12.802c0-14.972 12.196-27.163 27.169-27.163zm164.32 0c14.973 0 27.169 12.191 27.169 27.163v12.802c0 14.972-12.196 27.163-27.169 27.163s-27.138-12.191-27.138-27.163v-12.802c0-14.972 12.164-27.163 27.138-27.163zm-282.11 20.998c8.6618 10.045 21.336 16.537 35.61 16.537 14.274 0 26.916-6.4918 35.577-16.537-0.26974 2.0376-0.60519 4.055-0.60519 6.165v12.802c0 10.183 3.2544 19.624 8.7591 27.345-18.17 1.3569-34.069 11.084-43.764 25.349-9.6957-14.265-25.563-23.991-43.731-25.349 5.5057-7.7195 8.7591-17.161 8.7591-27.345v-12.802c0-2.11-0.33549-4.1276-0.60517-6.165zm164.35 0c8.6618 10.045 21.336 16.537 35.61 16.537 14.274 0 26.916-6.4918 35.577-16.537-0.26973 2.0376-0.60518 4.055-0.60518 6.165v12.802c0 10.183 3.2544 19.624 8.7591 27.345-18.17 1.3569-34.069 11.084-43.764 25.349-9.6957-14.265-25.563-23.991-43.731-25.349 5.5057-7.7195 8.7591-17.161 8.7591-27.345v-12.802c0-2.11-0.33545-4.1276-0.60518-6.165zm-244.99 66.185h68.129c20.998 0 38.094 17.081 38.094 38.079v121.63c0 14.183-9.2528 26.244-22.042 30.462v-147.85c0-5.5348-4.4993-10.009-10.033-10.009-5.5338 0-10.033 4.4744-10.033 10.009v127.47h-60.103v-127.73c0-5.5348-4.4993-10.046-10.033-10.046s-10.033 4.5106-10.033 10.046v148.11c-12.788-4.219-22.042-16.279-22.042-30.462v-121.63c0-20.998 17.097-38.079 38.094-38.079zm164.35 0h68.129c20.998 0 38.094 17.081 38.094 38.079v121.63c0 14.183-9.2528 26.244-22.042 30.462v-147.85c0-5.5348-4.4994-10.009-10.033-10.009-5.5339 0-10.033 4.4744-10.033 10.009v127.47h-60.103v-127.47c0-5.5348-4.4993-10.009-10.033-10.009-5.5338 0-10.033 4.4744-10.033 10.009v147.85c-12.788-4.219-22.042-16.279-22.042-30.462v-121.63c0-20.998 17.097-38.079 38.094-38.079zm164.35 0h68.129c20.998 0 38.094 17.081 38.094 38.079v121.63c0 14.183-9.2528 26.244-22.042 30.462v-147.85c0-5.5348-4.4993-10.009-10.033-10.009s-10.033 4.4744-10.033 10.009v127.47h-60.103v-127.47c0-5.5348-4.4993-10.009-10.033-10.009-5.5338 0-10.033 4.4744-10.033 10.009v147.85c-12.788-4.219-22.042-16.279-22.042-30.462v-121.63c0-20.998 17.097-38.079 38.094-38.079zm-324.69 189.85h60.103v216.23h-20.034v-195.34c0-5.5348-4.4675 9.4563-10.001 9.4563s-10.033-14.991-10.033-9.4563v195.34h-20.034v-216.23zm164.35 0h60.103v216.23h-20.034v-195.34c0-5.5348-4.4676 9.4563-10.001 9.4563s-10.033-14.991-10.033-9.4563v195.34h-20.034v-216.23zm164.35 0h60.103v216.23h-20.034v-195.34c0-5.5348-4.4993 9.4563-10.033 9.4563s-10.001-14.991-10.001-9.4563v195.34h-20.034v-216.23z" stroke-width="17.401"/>
  </g>
 </g>
</svg>
