<?xml version="1.0" encoding="UTF-8" standalone="no"?>
<!-- Created with Inkscape (http://www.inkscape.org/) -->

<svg
   xmlns:dc="http://purl.org/dc/elements/1.1/"
   xmlns:cc="http://creativecommons.org/ns#"
   xmlns:rdf="http://www.w3.org/1999/02/22-rdf-syntax-ns#"
   xmlns:svg="http://www.w3.org/2000/svg"
   xmlns="http://www.w3.org/2000/svg"
   xmlns:sodipodi="http://sodipodi.sourceforge.net/DTD/sodipodi-0.dtd"
   xmlns:inkscape="http://www.inkscape.org/namespaces/inkscape"
   version="1.1"
   id="svg2"
   width="100"
   height="100"
   viewBox="0 0 100 100"
   sodipodi:docname="LogoBase.svg"
   inkscape:version="0.92.4 5da689c313, 2019-01-14">
  <metadata
     id="metadata8">
    <rdf:RDF>
      <cc:Work
         rdf:about="">
        <dc:format>image/svg+xml</dc:format>
        <dc:type
           rdf:resource="http://purl.org/dc/dcmitype/StillImage" />
        <dc:title />
      </cc:Work>
    </rdf:RDF>
  </metadata>
  <defs
     id="defs6" />
  <sodipodi:namedview
     pagecolor="#ffffff"
     bordercolor="#666666"
     borderopacity="1"
     objecttolerance="10"
     gridtolerance="10"
     guidetolerance="10"
     inkscape:pageopacity="0"
     inkscape:pageshadow="2"
     inkscape:window-width="1920"
     inkscape:window-height="1028"
     id="namedview4"
     showgrid="false"
     showguides="false"
     inkscape:zoom="2.8284272"
     inkscape:cx="80.807431"
     inkscape:cy="30.634892"
     inkscape:window-x="0"
     inkscape:window-y="24"
     inkscape:window-maximized="1"
     inkscape:current-layer="svg2" />
  <path
     style="opacity:1;fill:#9cba33;fill-opacity:1;stroke:none;stroke-width:0.12750705;stroke-opacity:1"
     d="M 10.28125,0.0019 C 7.55474,0.0019 4.93966,1.0857 3.01172,3.0136 1.08379,4.9416 0,7.5566 0,10.2831 c 0,2.7266 1.08379,5.3397 3.01172,7.2676 1.92794,1.928 4.54302,3.0117 7.26953,3.0117 h 0.006 v -2.0625 h -0.006 c -2.17929,0 -4.26955,-0.8672 -5.81055,-2.4082 -1.54099,-1.541 -2.40819,-3.6293 -2.4082,-5.8086 1e-5,-2.1792 0.86721,-4.2695 2.4082,-5.8105 1.541,-1.541 3.63126,-2.4082 5.81055,-2.4082 4.53815,0 8.21679,3.6805 8.2168,8.2187 v 0.01 h 2.0625 v -0.01 c 0,-2.7265 -1.08379,-5.3415 -3.01172,-7.2695 C 15.62091,1.0857 13.00777,0.0019 10.28125,0.0019 Z m 38.31641,0.4668 c -0.51776,0 -0.9336,0.4177 -0.9336,0.9355 v 1.8692 c 0,0.5178 0.41584,0.9336 0.9336,0.9336 h 9.3457 c 0.51776,0 0.93555,-0.4158 0.93555,-0.9336 V 1.4042 c 0,-0.5178 -0.41779,-0.9355 -0.93555,-0.9355 z m 8.41211,4.2051 H 49.5332 c -0.51776,0 -0.93554,0.4158 -0.93554,0.9336 V 6.7773 C 39.46668,7.6948 30.80452,11.282 23.69922,17.0898 L 18.02539,11.418 c -0.61018,-0.6102 -1.59294,-0.6102 -2.20312,0 l -4.4043,4.4043 c -0.61018,0.6102 -0.61018,1.5929 0,2.2031 l 5.67187,5.6738 C 11.28189,30.8046 7.69477,39.4667 6.77734,48.5977 H 5.61328 c -0.52109,0 -0.93945,0.4203 -0.93945,0.9414 v 7.4648 c 0,0.5211 0.41836,0.9395 0.93945,0.9395 H 6.77734 C 7.8501,68.6205 12.57356,78.6576 20.22852,86.3125 28.9919,95.0759 40.87819,100 53.27148,100 65.66477,100 77.54912,95.0759 86.3125,86.3125 95.07588,77.5492 99.99999,65.6648 100,53.2715 l -0.002,-0.027 h -9.37696 v 0.027 C 90.62103,63.1774 86.68613,72.677 79.68159,79.6816 72.67703,86.6861 63.17735,90.621 53.27143,90.6211 43.36552,90.621 33.86582,86.6861 26.86128,79.6816 19.85676,72.677 15.92183,63.1774 15.92183,53.2715 c 10e-6,-20.628 16.7216,-37.3516 37.3496,-37.3516 h 0.0274 v -0.033 h 3.71094 c 0.51775,0 0.93359,-0.4159 0.93359,-0.9336 V 5.6057 c 0,-0.5178 -0.41584,-0.9336 -0.93359,-0.9336 z M 1.12891,47.666 C 0.5036,47.666 0,48.1695 0,48.7949 v 8.957 c 0,0.6253 0.5036,1.1289 1.12891,1.1289 h 1.48047 c 0.62531,0 1.1289,-0.5036 1.1289,-1.1289 v -8.957 c 0,-0.6254 -0.5036,-1.1289 -1.1289,-1.1289 z"
     id="path1251"
     inkscape:connector-curvature="0" />
</svg>
