<?xml version="1.0" encoding="UTF-8" standalone="no"?>
<!-- Created with Inkscape (http://www.inkscape.org/) -->

<svg
   xmlns:dc="http://purl.org/dc/elements/1.1/"
   xmlns:cc="http://creativecommons.org/ns#"
   xmlns:rdf="http://www.w3.org/1999/02/22-rdf-syntax-ns#"
   xmlns:svg="http://www.w3.org/2000/svg"
   xmlns="http://www.w3.org/2000/svg"
   xmlns:sodipodi="http://sodipodi.sourceforge.net/DTD/sodipodi-0.dtd"
   xmlns:inkscape="http://www.inkscape.org/namespaces/inkscape"
   width="26.458332mm"
   height="26.45783mm"
   viewBox="0 0 26.458332 26.45783"
   version="1.1"
   id="svg8"
   inkscape:version="0.92.4 5da689c313, 2019-01-14"
   sodipodi:docname="favicon.svg">
  <defs
     id="defs2" />
  <sodipodi:namedview
     id="base"
     pagecolor="#ffffff"
     bordercolor="#666666"
     borderopacity="1.0"
     inkscape:pageopacity="0.0"
     inkscape:pageshadow="2"
     inkscape:zoom="3.959798"
     inkscape:cx="1.7763048"
     inkscape:cy="48.1362"
     inkscape:document-units="mm"
     inkscape:current-layer="layer1"
     showgrid="false"
     fit-margin-top="0"
     fit-margin-left="0"
     fit-margin-right="0"
     fit-margin-bottom="0"
     inkscape:window-width="1920"
     inkscape:window-height="1028"
     inkscape:window-x="0"
     inkscape:window-y="24"
     inkscape:window-maximized="1" />
  <metadata
     id="metadata5">
    <rdf:RDF>
      <cc:Work
         rdf:about="">
        <dc:format>image/svg+xml</dc:format>
        <dc:type
           rdf:resource="http://purl.org/dc/dcmitype/StillImage" />
        <dc:title></dc:title>
      </cc:Work>
    </rdf:RDF>
  </metadata>
  <g
     inkscape:label="Layer 1"
     inkscape:groupmode="layer"
     id="layer1"
     transform="translate(-16.252976,-91.75918)">
    <path
       style="opacity:1;fill:#9cba33;fill-opacity:1;stroke:none;stroke-width:0.03373624;stroke-opacity:1"
       d="m 18.973224,91.75918 c -0.721389,0 -1.413296,0.286756 -1.923397,0.796846 -0.510098,0.510116 -0.796851,1.202002 -0.796851,1.923388 0,0.721413 0.286753,1.412796 0.796851,1.922886 0.510101,0.510117 1.202008,0.796846 1.923397,0.796846 h 0.0016 v -0.545703 h -0.0016 c -0.576604,0 -1.129652,-0.229447 -1.537375,-0.63717 -0.40772,-0.407723 -0.637167,-0.960252 -0.63717,-1.536859 3e-6,-0.57658 0.22945,-1.129638 0.63717,-1.537361 0.407723,-0.407723 0.960771,-0.63717 1.537375,-0.63717 1.200719,0 2.174025,0.973799 2.174028,2.174531 v 0.0026 h 0.545703 v -0.0026 c 0,-0.721386 -0.286753,-1.413272 -0.796851,-1.923388 -0.510095,-0.51009 -1.201489,-0.796846 -1.92288,-0.796846 z"
       id="path855" />
    <path
       style="opacity:1;fill:#9cba33;fill-opacity:1;stroke:none;stroke-width:0.03373624;stroke-opacity:1"
       d="m 29.111107,91.882688 c -0.136991,0 -0.247015,0.110516 -0.247015,0.247517 v 0.494559 c 0,0.137002 0.110024,0.247015 0.247015,0.247015 h 2.472716 c 0.136991,0 0.247531,-0.110013 0.247531,-0.247015 v -0.494559 c 0,-0.137001 -0.11054,-0.247517 -0.247531,-0.247517 z"
       id="path853" />
    <path
       style="opacity:1;fill:#9cba33;fill-opacity:1;stroke:none;stroke-width:0.03373624;stroke-opacity:1"
       d="m 31.336811,92.995287 h -1.978176 c -0.136991,0 -0.247528,0.110014 -0.247528,0.247015 v 0.309536 c -2.415905,0.242755 -4.707768,1.191869 -6.587712,2.728516 L 21.022194,94.77969 c -0.161443,-0.161449 -0.421465,-0.161449 -0.582909,0 l -1.165304,1.165304 c -0.161444,0.161449 -0.161444,0.421455 0,0.582904 l 1.500682,1.501193 c -1.536687,1.87997 -2.485779,4.171819 -2.728515,6.587729 h -0.307991 c -0.137872,0 -0.248563,0.1112 -0.248563,0.24908 v 1.97506 c 0,0.13787 0.110691,0.24858 0.248563,0.24858 h 0.307991 c 0.283834,2.82498 1.533583,5.48063 3.558958,7.50599 2.318644,2.31865 5.463558,3.62148 8.742616,3.62148 3.279058,0 6.423459,-1.30283 8.742103,-3.62148 2.318644,-2.31863 3.621482,-5.46304 3.621484,-8.7421 l -5.29e-4,-0.007 h -2.480987 v 0.007 c -3e-6,2.62093 -1.041112,5.13437 -2.894396,6.98767 -1.85329,1.85327 -4.366747,2.89438 -6.987688,2.89441 -2.620939,-3e-5 -5.134401,-1.04114 -6.987686,-2.89441 -1.853279,-1.8533 -2.894396,-4.36674 -2.894396,-6.98767 3e-6,-5.45783 4.424257,-9.882612 9.882082,-9.882612 h 0.0072 v -0.0087 h 0.981853 c 0.136988,0 0.247012,-0.110041 0.247012,-0.247015 v -2.473221 c 0,-0.137001 -0.110024,-0.247015 -0.247012,-0.247015 z"
       id="path851" />
    <path
       style="opacity:1;fill:#9cba33;fill-opacity:1;stroke:none;stroke-width:0.03373624;stroke-opacity:1"
       d="m 16.551667,104.37031 c -0.165446,0 -0.298691,0.13321 -0.298691,0.29868 v 2.36988 c 0,0.16544 0.133245,0.29869 0.298691,0.29869 h 0.391708 c 0.165446,0 0.298688,-0.13325 0.298688,-0.29869 v -2.36988 c 0,-0.16547 -0.133244,-0.29868 -0.298688,-0.29868 z"
       id="path1251" />
    <g
       transform="matrix(3.3029304,0,0,3.3029304,23.396634,-868.16885)"
       id="layer1-5"
       inkscape:label="Layer 1"
       style="fill:#9cba33;fill-opacity:1">
      <path
         inkscape:connector-curvature="0"
         id="path1381"
         d="m 2.1045215,292.79303 a 2.1035192,2.1035192 0 0 0 -0.2377757,0.0159 c -0.085732,0.23191 -0.1517561,0.54324 -0.23983,0.7616 a 1.4106251,1.4106251 0 0 0 -0.4318994,0.24959 c -0.23336921,-0.0328 -0.53635977,-0.13145 -0.7800893,-0.17307 a 2.1035192,2.1035192 0 0 0 -0.23828932,0.40981 c 0.1578881,0.19057 0.39544312,0.40403 0.54077293,0.59008 a 1.4106251,1.4106251 0 0 0 -0.0236235,0.24959 1.4106251,1.4106251 0 0 0 0.02311,0.2501 c -0.14507116,0.1854 -0.38146693,0.39802 -0.53923225,0.58802 a 2.1035192,2.1035192 0 0 0 0.23726221,0.41135 c 0.243197,-0.0415 0.54535841,-0.13949 0.77854863,-0.17255 a 1.4106251,1.4106251 0 0 0 0.4334401,0.24856 c 0.088453,0.21886 0.1547699,0.53154 0.2408571,0.76366 a 2.1035192,2.1035192 0 0 0 0.2367486,0.0144 2.1035192,2.1035192 0 0 0 0.2377758,-0.0159 c 0.085732,-0.23192 0.1517561,-0.54325 0.2398299,-0.76161 a 1.4106251,1.4106251 0 0 0 0.4318993,-0.24958 c 0.2333694,0.0328 0.5363598,0.13144 0.7800894,0.17306 a 2.1035192,2.1035192 0 0 0 0.2382893,-0.40981 c -0.1578881,-0.19057 -0.395443,-0.40403 -0.5407728,-0.59008 a 1.4106251,1.4106251 0 0 0 0.023623,-0.24958 1.4106251,1.4106251 0 0 0 -0.02311,-0.25011 c 0.1450711,-0.1854 0.381467,-0.39802 0.5392322,-0.58801 a 2.1035192,2.1035192 0 0 0 -0.2372622,-0.41136 c -0.2431968,0.0415 -0.5453585,0.13949 -0.7785486,0.17255 a 1.4106251,1.4106251 0 0 0 -0.4334401,-0.24856 c -0.088452,-0.21885 -0.1547699,-0.53154 -0.2408571,-0.76365 a 2.1035192,2.1035192 0 0 0 -0.2367482,-0.0144 z m 0,1.5345 a 0.56925363,0.56925363 0 0 1 0.5690183,0.56902 0.56925363,0.56925363 0 0 1 -0.5690183,0.56901 0.56925363,0.56925363 0 0 1 -0.5690184,-0.56901 0.56925363,0.56925363 0 0 1 0.5690184,-0.56902 z"
         style="opacity:1;fill:#9cba33;fill-opacity:1;stroke:none;stroke-width:0.02629399;stroke-miterlimit:4;stroke-dasharray:none;stroke-opacity:1" />
    </g>
  </g>
</svg>
